<svg width="134" height="30" viewBox="0 0 134 30" fill="none" xmlns="http://www.w3.org/2000/svg">
<path d="M20.0573 24.1421C20.0573 27.0698 17.6839 29.4432 14.7562 29.4432C11.8285 29.4432 9.45508 27.0698 9.45508 24.1421V5.37238C9.45508 2.44467 11.8285 0.0712889 14.7562 0.0712891C17.6839 0.0712894 20.0573 2.44467 20.0573 5.37239V24.1421Z" fill="#2E37A4"/>
<path d="M14.8871 9.52734C17.7759 9.52734 20.1178 11.8691 20.1178 14.7579C20.1178 17.6467 17.7759 19.9885 14.8871 19.9885H5.23063C2.34183 19.9885 -1.26e-07 17.6467 0 14.7579C1.26e-07 11.8691 2.34183 9.52734 5.23062 9.52734H14.8871Z" fill="#2E37A4"/>
<path d="M24.141 9.52734C27.0298 9.52734 29.3717 11.8691 29.3717 14.7579C29.3717 17.6467 27.0298 19.9885 24.141 19.9885H14.6857C11.7969 19.9885 9.45508 17.6467 9.45508 14.7579C9.45508 11.8691 11.7969 9.52734 14.6857 9.52734H24.141Z" fill="#00D3C7"/>
<path d="M20.1185 9.52734V19.9885H14.6867C11.7979 19.9885 9.45605 17.6467 9.45605 14.7579C9.45605 11.8691 11.7979 9.52734 14.6867 9.52734H20.1185Z" fill="white"/>
<path d="M118.228 17.5324C118.228 18.4805 118.057 19.3432 117.715 20.1204C117.374 20.882 116.907 21.5349 116.317 22.0789C115.726 22.6074 115.042 23.0193 114.265 23.3146C113.488 23.6099 112.656 23.7576 111.77 23.7576C110.9 23.7576 110.068 23.6099 109.275 23.3146C108.498 23.0193 107.814 22.6074 107.224 22.0789C106.648 21.5349 106.19 20.882 105.848 20.1204C105.506 19.3432 105.335 18.4805 105.335 17.5324C105.335 16.5842 105.506 15.7293 105.848 14.9677C106.19 14.206 106.648 13.561 107.224 13.0325C107.814 12.504 108.498 12.0999 109.275 11.8201C110.068 11.5403 110.9 11.4004 111.77 11.4004C112.656 11.4004 113.488 11.5403 114.265 11.8201C115.042 12.0999 115.726 12.504 116.317 13.0325C116.907 13.561 117.374 14.206 117.715 14.9677C118.057 15.7293 118.228 16.5842 118.228 17.5324ZM114.545 17.5324C114.545 17.1593 114.482 16.794 114.358 16.4365C114.234 16.079 114.055 15.7682 113.822 15.5039C113.589 15.2241 113.301 14.9987 112.959 14.8278C112.617 14.6568 112.221 14.5713 111.77 14.5713C111.319 14.5713 110.923 14.6568 110.581 14.8278C110.239 14.9987 109.951 15.2241 109.718 15.5039C109.501 15.7682 109.33 16.079 109.205 16.4365C109.097 16.794 109.042 17.1593 109.042 17.5324C109.042 17.9054 109.097 18.2707 109.205 18.6282C109.33 18.9857 109.508 19.3121 109.742 19.6074C109.975 19.8872 110.262 20.1126 110.604 20.2836C110.946 20.4546 111.343 20.5401 111.793 20.5401C112.244 20.5401 112.64 20.4546 112.982 20.2836C113.324 20.1126 113.612 19.8872 113.845 19.6074C114.078 19.3121 114.249 18.9857 114.358 18.6282C114.482 18.2707 114.545 17.9054 114.545 17.5324Z" fill="white"/>
<path d="M102.189 15.5272C101.972 15.2474 101.677 15.0221 101.303 14.8511C100.93 14.6801 100.55 14.5946 100.161 14.5946C99.7569 14.5946 99.3916 14.6801 99.0652 14.8511C98.7388 15.0065 98.459 15.2241 98.2258 15.5039C97.9927 15.7682 97.8062 16.079 97.6663 16.4365C97.5419 16.794 97.4797 17.1749 97.4797 17.579C97.4797 17.9831 97.5419 18.3639 97.6663 18.7215C97.7906 19.079 97.9694 19.3976 98.2025 19.6774C98.4512 19.9416 98.7388 20.1515 99.0652 20.3069C99.4072 20.4623 99.788 20.5401 100.208 20.5401C100.596 20.5401 100.977 20.4701 101.35 20.3302C101.739 20.1748 102.05 19.9572 102.283 19.6774L104.404 22.2654C103.923 22.7317 103.301 23.097 102.539 23.3612C101.778 23.6255 100.969 23.7576 100.114 23.7576C99.1973 23.7576 98.3424 23.6177 97.5497 23.3379C96.757 23.0581 96.0653 22.654 95.4746 22.1255C94.8995 21.5815 94.441 20.9286 94.099 20.167C93.7726 19.4054 93.6094 18.5427 93.6094 17.579C93.6094 16.6308 93.7726 15.7759 94.099 15.0143C94.441 14.2526 94.8995 13.6076 95.4746 13.0791C96.0653 12.5351 96.757 12.1232 97.5497 11.8434C98.3424 11.5481 99.1895 11.4004 100.091 11.4004C100.511 11.4004 100.923 11.4393 101.327 11.517C101.746 11.5947 102.143 11.7035 102.516 11.8434C102.904 11.9677 103.254 12.1309 103.565 12.333C103.891 12.5195 104.171 12.7294 104.404 12.9625L102.189 15.5272Z" fill="white"/>
<path d="M91.4439 8.06714C91.4439 8.36247 91.3817 8.64226 91.2573 8.9065C91.1485 9.1552 90.9931 9.37281 90.791 9.55933C90.6045 9.74586 90.3713 9.89352 90.0916 10.0023C89.8273 10.1111 89.5475 10.1655 89.2522 10.1655C88.6305 10.1655 88.1097 9.96347 87.6901 9.55933C87.2704 9.13966 87.0605 8.64226 87.0605 8.06714C87.0605 7.78736 87.1149 7.52312 87.2238 7.27442C87.3326 7.01018 87.488 6.78479 87.6901 6.59827C87.8921 6.41174 88.1253 6.26408 88.3895 6.15527C88.6538 6.03092 88.9413 5.96875 89.2522 5.96875C89.5475 5.96875 89.8273 6.02315 90.0916 6.13196C90.3713 6.24076 90.6045 6.38843 90.791 6.57495C90.9931 6.76148 91.1485 6.98686 91.2573 7.2511C91.3817 7.4998 91.4439 7.77181 91.4439 8.06714ZM87.3403 23.3854V11.7743H91.1641V23.3854H87.3403Z" fill="white"/>
<path d="M80.7361 23.3843V21.8688H80.6895C80.3164 22.4595 79.7802 22.918 79.0807 23.2444C78.3968 23.5553 77.6662 23.7107 76.889 23.7107C76.0186 23.7107 75.2414 23.5397 74.5575 23.1978C73.8736 22.8558 73.2907 22.4051 72.8088 21.8455C72.3425 21.2704 71.985 20.6098 71.7363 19.8637C71.4876 19.1176 71.3633 18.3404 71.3633 17.5321C71.3633 16.7239 71.4876 15.9544 71.7363 15.2239C72.0006 14.4778 72.3658 13.825 72.8322 13.2654C73.314 12.7058 73.8891 12.2628 74.5575 11.9364C75.2414 11.61 76.0031 11.4468 76.8424 11.4468C77.6973 11.4468 78.4201 11.61 79.0108 11.9364C79.6014 12.2628 80.06 12.6203 80.3864 13.0089H80.433V5.75781H84.2567V23.3843H80.7361ZM80.5962 17.5554C80.5962 17.1824 80.5263 16.8171 80.3864 16.4596C80.262 16.1021 80.0755 15.7835 79.8268 15.5037C79.5936 15.2239 79.3061 14.9985 78.9641 14.8275C78.6222 14.6566 78.2336 14.5711 77.7984 14.5711C77.3476 14.5711 76.9512 14.6566 76.6093 14.8275C76.2673 14.9985 75.9797 15.2239 75.7466 15.5037C75.5134 15.7679 75.3347 16.0788 75.2103 16.4363C75.1015 16.7938 75.0471 17.1591 75.0471 17.5321C75.0471 17.9052 75.1015 18.2782 75.2103 18.6513C75.3347 19.0088 75.5134 19.3274 75.7466 19.6072C75.9797 19.887 76.2673 20.1124 76.6093 20.2834C76.9512 20.4543 77.3476 20.5398 77.7984 20.5398C78.2336 20.5398 78.6222 20.4543 78.9641 20.2834C79.3061 20.1124 79.5936 19.887 79.8268 19.6072C80.0755 19.3274 80.262 19.0088 80.3864 18.6513C80.5263 18.2938 80.5962 17.9285 80.5962 17.5554Z" fill="white"/>
<path d="M66.0547 16.25C66.0547 15.6438 65.8604 15.1231 65.4718 14.6879C65.0988 14.2527 64.5314 14.035 63.7698 14.035C63.3967 14.035 63.0548 14.0972 62.7439 14.2216C62.433 14.3304 62.161 14.4858 61.9279 14.6879C61.6947 14.8899 61.5082 15.1309 61.3683 15.4107C61.2284 15.6749 61.1507 15.9547 61.1351 16.25H66.0547ZM69.5753 17.7189C69.5753 17.8743 69.5753 18.0298 69.5753 18.1852C69.5753 18.3406 69.5676 18.4883 69.552 18.6282H61.1351C61.1662 18.9546 61.2595 19.2499 61.4149 19.5142C61.5859 19.7784 61.7957 20.0116 62.0444 20.2136C62.3087 20.4002 62.5962 20.5478 62.9071 20.6566C63.2335 20.7654 63.5677 20.8198 63.9097 20.8198C64.5159 20.8198 65.0288 20.711 65.4485 20.4934C65.8682 20.2603 66.2101 19.9649 66.4744 19.6074L69.1323 21.2862C68.5883 22.0789 67.8655 22.6929 66.964 23.1281C66.078 23.5478 65.0444 23.7576 63.863 23.7576C62.9926 23.7576 62.1688 23.6255 61.3916 23.3612C60.6144 23.0814 59.9305 22.6851 59.3398 22.1721C58.7647 21.6437 58.3062 20.9986 57.9642 20.237C57.6378 19.4753 57.4746 18.6049 57.4746 17.6256C57.4746 16.6775 57.6378 15.8226 57.9642 15.0609C58.2907 14.2837 58.7336 13.6309 59.2932 13.1024C59.8528 12.5584 60.5134 12.1387 61.275 11.8434C62.0367 11.5481 62.8605 11.4004 63.7465 11.4004C64.6014 11.4004 65.3863 11.5481 66.1013 11.8434C66.8163 12.1232 67.4303 12.5351 67.9433 13.0791C68.4562 13.6231 68.8526 14.2837 69.1323 15.0609C69.4277 15.8381 69.5753 16.7241 69.5753 17.7189Z" fill="white"/>
<path d="M50.9685 23.3843L51.0618 11.7033H50.9919L46.7018 23.3843H43.9039L39.7305 11.7033H39.6605L39.7538 23.3843H36V6.87695H41.6657L45.4195 17.4622H45.5127L49.1033 6.87695H54.8622V23.3843H50.9685Z" fill="white"/>
</svg>
