<svg width="134" height="30" viewBox="0 0 134 30" fill="none" xmlns="http://www.w3.org/2000/svg">
<path d="M20.0573 24.3843C20.0573 27.3121 17.6839 29.6854 14.7562 29.6854C11.8285 29.6854 9.45508 27.3121 9.45508 24.3843V5.61458C9.45508 2.68686 11.8285 0.313476 14.7562 0.313477C17.6839 0.313477 20.0573 2.68686 20.0573 5.61458V24.3843Z" fill="#2E37A4"/>
<path d="M14.8871 9.76953C17.7759 9.76953 20.1178 12.1114 20.1178 15.0002C20.1178 17.8889 17.7759 20.2308 14.8872 20.2308H5.23063C2.34183 20.2308 -1.263e-07 17.8889 0 15.0002C1.262e-07 12.1114 2.34183 9.76953 5.23062 9.76953H14.8871Z" fill="#2E37A4"/>
<path d="M24.141 9.76953C27.0298 9.76953 29.3717 12.1114 29.3717 15.0002C29.3717 17.8889 27.0298 20.2308 24.141 20.2308H14.6857C11.7969 20.2308 9.45508 17.8889 9.45508 15.0002C9.45508 12.1114 11.7969 9.76953 14.6857 9.76953H24.141Z" fill="#00D3C7"/>
<path d="M20.1175 9.76953V20.2308H14.6857C11.7969 20.2308 9.45508 17.8889 9.45508 15.0002C9.45508 12.1114 11.7969 9.76953 14.6857 9.76953H20.1175Z" fill="white"/>
<path d="M118.6 17.7745C118.6 18.7227 118.43 19.5854 118.088 20.3626C117.746 21.1242 117.279 21.777 116.689 22.3211C116.098 22.8496 115.414 23.2615 114.637 23.5568C113.86 23.8521 113.028 23.9998 112.142 23.9998C111.272 23.9998 110.44 23.8521 109.647 23.5568C108.87 23.2615 108.186 22.8496 107.596 22.3211C107.02 21.777 106.562 21.1242 106.22 20.3626C105.878 19.5854 105.707 18.7227 105.707 17.7745C105.707 16.8264 105.878 15.9715 106.22 15.2098C106.562 14.4482 107.02 13.8031 107.596 13.2747C108.186 12.7462 108.87 12.342 109.647 12.0623C110.44 11.7825 111.272 11.6426 112.142 11.6426C113.028 11.6426 113.86 11.7825 114.637 12.0623C115.414 12.342 116.098 12.7462 116.689 13.2747C117.279 13.8031 117.746 14.4482 118.088 15.2098C118.43 15.9715 118.6 16.8264 118.6 17.7745ZM114.917 17.7745C114.917 17.4015 114.854 17.0362 114.73 16.6787C114.606 16.3212 114.427 16.0103 114.194 15.7461C113.961 15.4663 113.673 15.2409 113.331 15.07C112.989 14.899 112.593 14.8135 112.142 14.8135C111.691 14.8135 111.295 14.899 110.953 15.07C110.611 15.2409 110.323 15.4663 110.09 15.7461C109.873 16.0103 109.702 16.3212 109.577 16.6787C109.469 17.0362 109.414 17.4015 109.414 17.7745C109.414 18.1476 109.469 18.5129 109.577 18.8704C109.702 19.2279 109.881 19.5543 110.114 19.8496C110.347 20.1294 110.634 20.3548 110.976 20.5258C111.318 20.6968 111.715 20.7822 112.165 20.7822C112.616 20.7822 113.013 20.6968 113.355 20.5258C113.696 20.3548 113.984 20.1294 114.217 19.8496C114.45 19.5543 114.621 19.2279 114.73 18.8704C114.854 18.5129 114.917 18.1476 114.917 17.7745Z" fill="black"/>
<path d="M102.562 15.7694C102.344 15.4896 102.049 15.2642 101.676 15.0933C101.303 14.9223 100.922 14.8368 100.533 14.8368C100.129 14.8368 99.7637 14.9223 99.4373 15.0933C99.1109 15.2487 98.8311 15.4663 98.5979 15.7461C98.3648 16.0103 98.1782 16.3212 98.0383 16.6787C97.914 17.0362 97.8518 17.417 97.8518 17.8212C97.8518 18.2253 97.914 18.6061 98.0383 18.9636C98.1627 19.3211 98.3414 19.6398 98.5746 19.9196C98.8233 20.1838 99.1109 20.3937 99.4373 20.5491C99.7792 20.7045 100.16 20.7822 100.58 20.7822C100.968 20.7822 101.349 20.7123 101.722 20.5724C102.111 20.417 102.422 20.1994 102.655 19.9196L104.777 22.5076C104.295 22.9739 103.673 23.3392 102.911 23.6034C102.15 23.8677 101.341 23.9998 100.486 23.9998C99.5694 23.9998 98.7145 23.8599 97.9218 23.5801C97.129 23.3003 96.4373 22.8962 95.8467 22.3677C95.2716 21.8237 94.813 21.1708 94.4711 20.4092C94.1447 19.6476 93.9814 18.7849 93.9814 17.8212C93.9814 16.873 94.1447 16.0181 94.4711 15.2565C94.813 14.4948 95.2716 13.8498 95.8467 13.3213C96.4373 12.7773 97.129 12.3654 97.9218 12.0856C98.7145 11.7902 99.5616 11.6426 100.463 11.6426C100.883 11.6426 101.295 11.6814 101.699 11.7592C102.119 11.8369 102.515 11.9457 102.888 12.0856C103.277 12.2099 103.626 12.3731 103.937 12.5752C104.264 12.7617 104.543 12.9716 104.777 13.2047L102.562 15.7694Z" fill="black"/>
<path d="M91.8159 8.30933C91.8159 8.60466 91.7538 8.88445 91.6294 9.14869C91.5206 9.39739 91.3652 9.615 91.1631 9.80152C90.9766 9.98804 90.7434 10.1357 90.4636 10.2445C90.1994 10.3533 89.9196 10.4077 89.6243 10.4077C89.0025 10.4077 88.4818 10.2057 88.0621 9.80152C87.6425 9.38184 87.4326 8.88445 87.4326 8.30933C87.4326 8.02955 87.487 7.7653 87.5958 7.5166C87.7046 7.25236 87.8601 7.02698 88.0621 6.84046C88.2642 6.65393 88.4974 6.50627 88.7616 6.39746C89.0258 6.27311 89.3134 6.21094 89.6243 6.21094C89.9196 6.21094 90.1994 6.26534 90.4636 6.37415C90.7434 6.48295 90.9766 6.63062 91.1631 6.81714C91.3652 7.00366 91.5206 7.22905 91.6294 7.49329C91.7538 7.74199 91.8159 8.014 91.8159 8.30933ZM87.7124 23.6276V12.0165H91.5361V23.6276H87.7124Z" fill="black"/>
<path d="M81.1082 23.6265V22.111H81.0615C80.6885 22.7017 80.1522 23.1602 79.4528 23.4866C78.7689 23.7975 78.0383 23.9529 77.2611 23.9529C76.3907 23.9529 75.6135 23.7819 74.9296 23.44C74.2456 23.098 73.6628 22.6473 73.1809 22.0877C72.7146 21.5126 72.3571 20.852 72.1084 20.1059C71.8597 19.3598 71.7354 18.5826 71.7354 17.7743C71.7354 16.966 71.8597 16.1966 72.1084 15.4661C72.3726 14.72 72.7379 14.0672 73.2042 13.5076C73.6861 12.948 74.2612 12.505 74.9296 12.1786C75.6135 11.8522 76.3751 11.689 77.2145 11.689C78.0694 11.689 78.7922 11.8522 79.3828 12.1786C79.9735 12.505 80.432 12.8625 80.7584 13.2511H80.8051V6H84.6288V23.6265H81.1082ZM80.9683 17.7976C80.9683 17.4246 80.8983 17.0593 80.7584 16.7018C80.6341 16.3443 80.4476 16.0257 80.1989 15.7459C79.9657 15.4661 79.6782 15.2407 79.3362 15.0697C78.9942 14.8987 78.6056 14.8132 78.1704 14.8132C77.7197 14.8132 77.3233 14.8987 76.9813 15.0697C76.6394 15.2407 76.3518 15.4661 76.1187 15.7459C75.8855 16.0101 75.7068 16.321 75.5824 16.6785C75.4736 17.036 75.4192 17.4013 75.4192 17.7743C75.4192 18.1474 75.4736 18.5204 75.5824 18.8935C75.7068 19.251 75.8855 19.5696 76.1187 19.8494C76.3518 20.1292 76.6394 20.3546 76.9813 20.5255C77.3233 20.6965 77.7197 20.782 78.1704 20.782C78.6056 20.782 78.9942 20.6965 79.3362 20.5255C79.6782 20.3546 79.9657 20.1292 80.1989 19.8494C80.4476 19.5696 80.6341 19.251 80.7584 18.8935C80.8983 18.536 80.9683 18.1707 80.9683 17.7976Z" fill="black"/>
<path d="M66.4268 16.4922C66.4268 15.886 66.2325 15.3653 65.8439 14.9301C65.4708 14.4948 64.9035 14.2772 64.1419 14.2772C63.7688 14.2772 63.4268 14.3394 63.116 14.4638C62.8051 14.5726 62.5331 14.728 62.2999 14.9301C62.0668 15.1321 61.8803 15.3731 61.7404 15.6528C61.6005 15.9171 61.5228 16.1969 61.5072 16.4922H66.4268ZM69.9474 17.9611C69.9474 18.1165 69.9474 18.2719 69.9474 18.4274C69.9474 18.5828 69.9396 18.7305 69.9241 18.8704H61.5072C61.5383 19.1968 61.6316 19.4921 61.787 19.7564C61.958 20.0206 62.1678 20.2538 62.4165 20.4558C62.6808 20.6424 62.9683 20.79 63.2792 20.8988C63.6056 21.0076 63.9398 21.062 64.2818 21.062C64.888 21.062 65.4009 20.9532 65.8206 20.7356C66.2403 20.5025 66.5822 20.2071 66.8465 19.8496L69.5044 21.5283C68.9604 22.3211 68.2376 22.935 67.3361 23.3703C66.4501 23.7899 65.4164 23.9998 64.2351 23.9998C63.3647 23.9998 62.5409 23.8677 61.7637 23.6034C60.9865 23.3236 60.3026 22.9273 59.7119 22.4143C59.1368 21.8858 58.6783 21.2408 58.3363 20.4791C58.0099 19.7175 57.8467 18.8471 57.8467 17.8678C57.8467 16.9196 58.0099 16.0647 58.3363 15.3031C58.6627 14.5259 59.1057 13.8731 59.6653 13.3446C60.2249 12.8006 60.8855 12.3809 61.6471 12.0856C62.4087 11.7902 63.2326 11.6426 64.1185 11.6426C64.9734 11.6426 65.7584 11.7902 66.4734 12.0856C67.1884 12.3654 67.8024 12.7773 68.3153 13.3213C68.8283 13.8653 69.2246 14.5259 69.5044 15.3031C69.7997 16.0803 69.9474 16.9663 69.9474 17.9611Z" fill="black"/>
<path d="M51.3406 23.6265L51.4339 11.9454H51.3639L47.0739 23.6265H44.276L40.1025 11.9454H40.0326L40.1259 23.6265H36.3721V7.11914H42.0377L45.7915 17.7044H45.8848L49.4754 7.11914H55.2343V23.6265H51.3406Z" fill="black"/>
</svg>
