<svg width="119" height="25" viewBox="0 0 119 25" fill="none" xmlns="http://www.w3.org/2000/svg">
<path d="M17.9995 20.4979C17.9995 22.9888 15.9804 25.0078 13.4896 25.0078C10.9989 25.0078 8.97974 22.9888 8.97974 20.4979V4.52967C8.97974 2.03892 10.9989 0.0197745 13.4896 0.0197754C15.9804 0.0197754 17.9995 2.03892 17.9995 4.52967V20.4979Z" fill="#2E37A4"/>
<path d="M13.6011 8.06445C16.0587 8.06445 18.0511 10.0568 18.0511 12.5144C18.0511 14.972 16.0587 16.9643 13.6011 16.9643H5.38585C2.92822 16.9643 0.935913 14.972 0.935913 12.5144C0.935913 10.0568 2.92822 8.06445 5.38584 8.06445H13.6011Z" fill="#2E37A4"/>
<path d="M21.4737 8.06445C23.9314 8.06445 25.9237 10.0568 25.9237 12.5144C25.9237 14.972 23.9314 16.9643 21.4737 16.9643H13.4297C10.972 16.9643 8.97974 14.972 8.97974 12.5144C8.97974 10.0568 10.972 8.06445 13.4297 8.06445H21.4737Z" fill="#00D3C7"/>
<path d="M18.0508 8.06445V16.9643H13.4297C10.972 16.9643 8.97974 14.972 8.97974 12.5144C8.97974 10.0568 10.972 8.06445 13.4297 8.06445H18.0508Z" fill="white"/>
<path d="M107.156 7.36011H110.756L112.736 13.5801C112.79 13.7401 112.83 13.9068 112.856 14.0801C112.896 14.2401 112.93 14.4134 112.956 14.6001C112.983 14.7734 113.003 14.9601 113.016 15.1601H113.076C113.116 14.8534 113.163 14.5734 113.216 14.3201C113.283 14.0534 113.35 13.8134 113.416 13.6001L115.396 7.36011H118.916L114.396 19.4201C114.103 20.2334 113.73 20.9134 113.276 21.4601C112.836 22.0201 112.303 22.4401 111.676 22.7201C111.063 23.0001 110.343 23.1401 109.516 23.1401C109.183 23.1401 108.89 23.1201 108.636 23.0801C108.383 23.0534 108.163 23.0201 107.976 22.9801V20.3201C108.123 20.3468 108.296 20.3734 108.496 20.4001C108.71 20.4268 108.93 20.4401 109.156 20.4401C109.583 20.4401 109.936 20.3534 110.216 20.1801C110.496 20.0068 110.73 19.7734 110.916 19.4801C111.103 19.2001 111.256 18.8934 111.376 18.5601L111.496 18.2201L107.156 7.36011Z" fill="white"/>
<path d="M106.988 9.88004H104.508V18.34H101.148V9.88004H99.5883V8.24004L101.188 7.38004V6.86004C101.188 5.91337 101.328 5.16671 101.608 4.62004C101.888 4.06004 102.315 3.66004 102.888 3.42004C103.462 3.16671 104.162 3.04004 104.988 3.04004C105.575 3.04004 106.102 3.08671 106.568 3.18004C107.035 3.27337 107.468 3.38671 107.868 3.52004L107.068 5.84004C106.868 5.78671 106.642 5.73337 106.388 5.68004C106.135 5.62671 105.855 5.60004 105.548 5.60004C105.188 5.60004 104.922 5.71337 104.748 5.94004C104.588 6.15337 104.508 6.46004 104.508 6.86004V7.36004H106.988V9.88004Z" fill="white"/>
<path d="M97.6991 7.36V18.34H94.3391V7.36H97.6991ZM96.0391 3C96.5191 3 96.9391 3.10667 97.2991 3.32C97.6591 3.53333 97.8391 3.94667 97.8391 4.56C97.8391 5.16 97.6591 5.57333 97.2991 5.8C96.9391 6.01333 96.5191 6.12 96.0391 6.12C95.5325 6.12 95.0991 6.01333 94.7391 5.8C94.3925 5.57333 94.2191 5.16 94.2191 4.56C94.2191 3.94667 94.3925 3.53333 94.7391 3.32C95.0991 3.10667 95.5325 3 96.0391 3Z" fill="white"/>
<path d="M91.4296 18.3401H88.0496V3.14014H91.4296V18.3401Z" fill="white"/>
<path d="M81.6957 7.16016C82.9223 7.16016 83.9023 7.64682 84.6357 8.62016C85.369 9.58016 85.7357 10.9802 85.7357 12.8202C85.7357 14.0735 85.5557 15.1268 85.1957 15.9802C84.8357 16.8335 84.3423 17.4735 83.7157 17.9002C83.1023 18.3268 82.3957 18.5402 81.5957 18.5402C81.0757 18.5402 80.629 18.4735 80.2557 18.3402C79.8957 18.2068 79.5823 18.0402 79.3157 17.8402C79.0623 17.6268 78.849 17.4135 78.6757 17.2002H78.5357C78.5757 17.4535 78.609 17.7202 78.6357 18.0002C78.6623 18.2802 78.6757 18.5802 78.6757 18.9002V23.1402H75.2957V7.36016H78.0357L78.5157 8.76016H78.6757C78.8623 8.46682 79.089 8.20016 79.3557 7.96016C79.6357 7.72016 79.969 7.52682 80.3557 7.38016C80.7423 7.23349 81.189 7.16016 81.6957 7.16016ZM80.5157 9.82016C80.0623 9.82016 79.7023 9.92016 79.4357 10.1202C79.1823 10.3202 78.9957 10.6202 78.8757 11.0202C78.7557 11.4068 78.689 11.9002 78.6757 12.5002V12.8002C78.6757 13.4535 78.729 14.0068 78.8357 14.4602C78.9557 14.9002 79.149 15.2402 79.4157 15.4802C79.6957 15.7068 80.0757 15.8202 80.5557 15.8202C80.9423 15.8202 81.2623 15.7135 81.5157 15.5002C81.7823 15.2735 81.9757 14.9335 82.0957 14.4802C82.229 14.0268 82.2957 13.4602 82.2957 12.7802C82.2957 11.7535 82.149 11.0068 81.8557 10.5402C81.5623 10.0602 81.1157 9.82016 80.5157 9.82016Z" fill="white"/>
<path d="M68.631 7.16016C69.8843 7.16016 70.831 7.48016 71.471 8.12016C72.1243 8.74682 72.451 9.76682 72.451 11.1802V18.3402H69.091V12.1202C69.091 11.3202 68.9643 10.7402 68.711 10.3802C68.471 10.0068 68.0976 9.82016 67.591 9.82016C66.8843 9.82016 66.3843 10.1002 66.091 10.6602C65.7976 11.2068 65.651 11.9935 65.651 13.0202V18.3402H62.291V12.1202C62.291 11.6002 62.2376 11.1735 62.131 10.8402C62.0243 10.4935 61.8643 10.2402 61.651 10.0802C61.4376 9.90682 61.1576 9.82016 60.811 9.82016C60.3176 9.82016 59.9243 9.96016 59.631 10.2402C59.351 10.5068 59.151 10.9002 59.031 11.4202C58.9243 11.9402 58.871 12.5802 58.871 13.3402V18.3402H55.491V7.36016H58.051L58.531 8.74016H58.671C58.8843 8.39349 59.151 8.10682 59.471 7.88016C59.791 7.64016 60.1576 7.46016 60.571 7.34016C60.9843 7.22016 61.431 7.16016 61.911 7.16016C62.711 7.16016 63.3843 7.29349 63.931 7.56016C64.4776 7.82682 64.9043 8.21349 65.211 8.72016H65.411C65.7576 8.20016 66.2176 7.81349 66.791 7.56016C67.3643 7.29349 67.9776 7.16016 68.631 7.16016Z" fill="white"/>
<path d="M42.2932 7.36011H45.8932L47.8732 13.5801C47.9265 13.7401 47.9665 13.9068 47.9932 14.0801C48.0332 14.2401 48.0665 14.4134 48.0932 14.6001C48.1199 14.7734 48.1399 14.9601 48.1532 15.1601H48.2132C48.2532 14.8534 48.2999 14.5734 48.3532 14.3201C48.4199 14.0534 48.4865 13.8134 48.5532 13.6001L50.5332 7.36011H54.0532L49.5332 19.4201C49.2399 20.2334 48.8665 20.9134 48.4132 21.4601C47.9732 22.0201 47.4399 22.4401 46.8132 22.7201C46.1999 23.0001 45.4799 23.1401 44.6532 23.1401C44.3199 23.1401 44.0265 23.1201 43.7732 23.0801C43.5199 23.0534 43.2999 23.0201 43.1132 22.9801V20.3201C43.2599 20.3468 43.4332 20.3734 43.6332 20.4001C43.8465 20.4268 44.0665 20.4401 44.2932 20.4401C44.7199 20.4401 45.0732 20.3534 45.3532 20.1801C45.6332 20.0068 45.8665 19.7734 46.0532 19.4801C46.2399 19.2001 46.3932 18.8934 46.5132 18.5601L46.6332 18.2201L42.2932 7.36011Z" fill="white"/>
<path d="M41.5437 14.2001C41.5437 15.0134 41.3437 15.7534 40.9437 16.4201C40.5437 17.0734 39.9437 17.5934 39.1437 17.9801C38.3437 18.3534 37.337 18.5401 36.1237 18.5401C35.5637 18.5401 35.0437 18.5068 34.5637 18.4401C34.0837 18.3734 33.6237 18.2801 33.1837 18.1601C32.757 18.0268 32.337 17.8601 31.9237 17.6601V14.5601C32.6437 14.8934 33.377 15.1734 34.1237 15.4001C34.8837 15.6268 35.6104 15.7401 36.3037 15.7401C36.7437 15.7401 37.097 15.6868 37.3637 15.5801C37.6437 15.4601 37.8437 15.3068 37.9637 15.1201C38.097 14.9201 38.1637 14.6934 38.1637 14.4401C38.1637 14.1334 38.057 13.8734 37.8437 13.6601C37.6437 13.4334 37.3437 13.2201 36.9437 13.0201C36.5437 12.8068 36.057 12.5668 35.4837 12.3001C35.057 12.1134 34.637 11.9001 34.2237 11.6601C33.8237 11.4068 33.457 11.1201 33.1237 10.8001C32.8037 10.4668 32.5437 10.0734 32.3437 9.62011C32.157 9.15344 32.0637 8.60677 32.0637 7.98011C32.0637 7.08677 32.2704 6.34011 32.6837 5.74011C33.1104 5.12677 33.7037 4.66011 34.4637 4.34011C35.2237 4.02011 36.117 3.86011 37.1437 3.86011C37.9837 3.86011 38.757 3.95344 39.4637 4.14011C40.1704 4.32677 40.857 4.56677 41.5237 4.86011L40.4437 7.52011C39.8037 7.24011 39.2037 7.02677 38.6437 6.88011C38.097 6.72011 37.5637 6.64011 37.0437 6.64011C36.6837 6.64011 36.3837 6.69344 36.1437 6.80011C35.9037 6.89344 35.7237 7.03344 35.6037 7.22011C35.4837 7.39344 35.4237 7.60011 35.4237 7.84011C35.4237 8.12011 35.517 8.36677 35.7037 8.58011C35.8904 8.78011 36.1837 8.98677 36.5837 9.20011C36.9837 9.41344 37.5104 9.67344 38.1637 9.98011C38.8704 10.3001 39.477 10.6468 39.9837 11.0201C40.4904 11.3934 40.877 11.8334 41.1437 12.3401C41.4104 12.8334 41.5437 13.4534 41.5437 14.2001Z" fill="white"/>
</svg>
