<svg width="127" height="28" viewBox="0 0 127 28" fill="none" xmlns="http://www.w3.org/2000/svg">
<path d="M19.1204 22.9465C19.1204 25.7376 16.8579 28 14.0669 28C11.276 28 9.01343 25.7376 9.01343 22.9465V5.0535C9.01343 2.26253 11.276 -9.53291e-07 14.0669 0C16.8579 0 19.1204 2.26253 19.1204 5.0535V22.9465Z" fill="#2E37A4"/>
<path d="M14.1917 9.01465C16.9456 9.01465 19.1781 11.2471 19.1781 14.001C19.1781 16.7548 16.9456 18.9873 14.1918 18.9873H4.98631C2.23245 18.9873 -1.20401e-07 16.7548 0 14.001C1.20305e-07 11.2471 2.23245 9.01465 4.9863 9.01465H14.1917Z" fill="#2E37A4"/>
<path d="M23.0134 9.01465C25.7673 9.01465 27.9998 11.2471 27.9998 14.001C27.9998 16.7548 25.7673 18.9873 23.0134 18.9873H13.9997C11.2459 18.9873 9.01343 16.7548 9.01343 14.001C9.01343 11.2471 11.2459 9.01465 13.9997 9.01465H23.0134Z" fill="#00D3C7"/>
<path d="M19.1778 9.01465V18.9873H13.9997C11.2459 18.9873 9.01343 16.7548 9.01343 14.001C9.01343 11.2471 11.2459 9.01465 13.9997 9.01465H19.1778Z" fill="white"/>
<path d="M123.796 9.03516H126.829L121.915 20.5826C120.864 23.2116 119.367 24.0003 117.405 24.0003C116.293 24.0003 115.08 23.6363 114.372 23.0094L115.525 20.7646C116.01 21.1893 116.677 21.4522 117.304 21.4522C118.174 21.4522 118.659 21.068 119.084 20.0973L119.124 19.9961L114.413 9.03516H117.668L120.722 16.4166L123.796 9.03516Z" fill="black"/>
<path d="M111.47 8.81291V9.27805H114.261V11.7048H111.551V19.9155H108.396V11.7048H106.718V9.27805H108.396V8.79269C108.396 6.34568 109.893 4.74805 112.603 4.74805C113.492 4.74805 114.423 4.93006 115.009 5.33452L114.18 7.61974C113.836 7.37707 113.391 7.2355 112.906 7.2355C111.976 7.2355 111.47 7.74108 111.47 8.81291Z" fill="black"/>
<path d="M103.507 7.51884C102.334 7.51884 101.545 6.75036 101.545 5.75942C101.545 4.76848 102.334 4 103.507 4C104.68 4 105.469 4.72804 105.469 5.69875C105.469 6.75036 104.68 7.51884 103.507 7.51884ZM101.93 19.9157V9.03558H105.084V19.9157H101.93Z" fill="black"/>
<path d="M95.8472 19.9158V4.91016H99.0019V19.9158H95.8472Z" fill="black"/>
<path d="M88.3156 8.87402C91.3692 8.87402 93.7353 11.0581 93.7353 14.4759C93.7353 17.8936 91.3692 20.0777 88.3156 20.0777C86.9607 20.0777 85.8484 19.653 85.0395 18.7632V23.8392H81.8848V9.03581H84.898V10.2896C85.6866 9.33916 86.8596 8.87402 88.3156 8.87402ZM87.7696 17.4891C89.347 17.4891 90.5401 16.3566 90.5401 14.4759C90.5401 12.5951 89.347 11.4626 87.7696 11.4626C86.1922 11.4626 84.9991 12.5951 84.9991 14.4759C84.9991 16.3566 86.1922 17.4891 87.7696 17.4891Z" fill="black"/>
<path d="M74.6078 8.87402C77.1963 8.87402 79.0568 10.3705 79.0568 13.6871V19.9159H75.9021V14.1725C75.9021 12.4131 75.1134 11.6042 73.8393 11.6042C72.4237 11.6042 71.4328 12.5142 71.4328 14.4556V19.9159H68.2781V14.1725C68.2781 12.4131 67.5298 11.6042 66.2154 11.6042C64.82 11.6042 63.8291 12.5142 63.8291 14.4556V19.9159H60.6743V9.03581H63.6875V10.2896C64.4964 9.35938 65.7098 8.87402 67.1052 8.87402C68.6219 8.87402 69.9161 9.4605 70.6846 10.6537C71.5542 9.54139 72.9698 8.87402 74.6078 8.87402Z" fill="black"/>
<path d="M56.354 9.03516H59.3874L54.4733 20.5826C53.4217 23.2116 51.9252 24.0003 49.9636 24.0003C48.8513 24.0003 47.638 23.6363 46.9302 23.0094L48.0829 20.7646C48.5682 21.1893 49.2356 21.4522 49.8625 21.4522C50.7321 21.4522 51.2174 21.068 51.6421 20.0973L51.6825 19.9961L46.9706 9.03516H50.2265L53.2801 16.4166L56.354 9.03516Z" fill="black"/>
<path d="M40.7635 20.1582C38.5188 20.1582 36.2538 19.4908 35 18.5201L36.1123 16.0529C37.3054 16.9225 39.085 17.5292 40.7837 17.5292C42.7251 17.5292 43.5138 16.882 43.5138 16.0124C43.5138 13.3632 35.2831 15.1833 35.2831 9.92526C35.2831 7.5187 37.2245 5.5166 41.2488 5.5166C43.0284 5.5166 44.8485 5.94129 46.163 6.77044L45.1518 9.2579C43.8374 8.50964 42.4824 8.14562 41.2286 8.14562C39.2872 8.14562 38.539 8.87365 38.539 9.76348C38.539 12.3723 46.7697 10.5724 46.7697 15.7698C46.7697 18.1359 44.808 20.1582 40.7635 20.1582Z" fill="black"/>
</svg>
