<svg width="32" height="32" viewBox="0 0 32 32" fill="none" xmlns="http://www.w3.org/2000/svg">
<path d="M15.25 0.678003C15.025 0.759253 14.3438 1.203 13.5312 1.79675C12.1438 2.80925 11.5938 3.0655 10.4688 3.23425C9.43125 3.38425 8.925 3.5905 8.4375 4.04675C8.26875 4.203 8.08125 4.45925 8.00625 4.628C7.9125 4.853 7.76875 5.02175 7.48125 5.253C5.8625 6.53425 4.88125 8.37175 4.7125 10.3968L4.66875 10.9405L4.475 10.9843C3.9125 11.103 3.35625 11.5718 3.10625 12.128C2.83125 12.7468 2.90625 13.6843 3.29375 14.3968C3.6 14.9655 4.325 15.5468 5.01875 15.778C5.0875 15.803 5.125 15.8843 5.125 16.003C5.125 16.328 5.36875 16.978 5.625 17.3468L5.88125 17.7093L5.33125 17.6718C4.38125 17.5968 3.61875 17.4468 2.7625 17.1593C1.625 16.778 1.1875 16.803 0.65625 17.2718C0.19375 17.678 0.09375 17.928 0.09375 18.6655C0.09375 19.253 0.10625 19.3218 0.30625 19.728C0.56875 20.2655 1.28125 20.9905 1.875 21.3405C2.65 21.7905 3.59375 22.0905 4.875 22.303L5.5375 22.4155L5.3625 22.9843L5.1875 23.553L4.5625 23.9718C4.21875 24.203 3.89375 24.453 3.84375 24.528C3.70625 24.728 3.725 24.9905 3.90625 25.1655C4.14375 25.4093 4.34375 25.3655 4.93125 24.9468C5.21875 24.7405 5.49375 24.5718 5.5375 24.5718C5.58125 24.5718 5.75 24.728 5.90625 24.9218C6.46875 25.6218 6.93125 26.5405 7.2 27.5093C7.3375 28.0218 7.425 29.5405 7.325 29.6843C7.25625 29.7843 3.65 30.378 3.125 30.3843C2.725 30.3843 2.35625 30.2343 2.1125 29.9718C1.73125 29.5593 1 28.5343 1 28.4093C1 28.2343 1.26875 28.1343 1.7125 28.1343C1.8875 28.1343 2.13125 28.1093 2.24375 28.0718C2.45625 28.0093 2.8125 27.728 2.8125 27.6155C2.8125 27.5843 2.925 27.3155 3.0625 27.0218C3.3375 26.4343 3.35 26.2093 3.10625 26.0405C2.91875 25.9093 2.5875 25.9218 2.44375 26.0655C2.31875 26.1905 1.9375 26.9468 1.9375 27.0655C1.9375 27.1093 1.80625 27.1343 1.6125 27.1343C0.6125 27.1343 0 27.6155 0 28.3968C0 28.5905 0.025 28.8218 0.0625 28.9155C0.09375 29.003 0.375 29.403 0.675 29.8093C1.9875 31.5405 2.2 31.5968 5.5 31.0718C7.2375 30.7905 7.55625 30.753 7.71875 30.8218C8.225 31.028 9.03125 31.2593 9.59375 31.3593C10.1062 31.453 10.5437 31.478 11.9688 31.4718C13.9938 31.4718 14.5188 31.4093 15.7125 31.003L16.45 30.753L18.4625 31.0718C19.5625 31.2405 20.6562 31.3843 20.8813 31.3843C21.8375 31.3843 22.3188 31.0718 23.2188 29.878C23.9563 28.903 24.0562 28.6593 23.9438 28.1718C23.7938 27.5218 23.35 27.2093 22.5 27.153C22.1938 27.128 22 27.0905 22 27.0468C22 26.8968 21.6 26.1468 21.3062 25.753C20.875 25.1655 20.0375 24.3968 19.3563 23.9468L18.7812 23.5655L18.5938 22.9843L18.4062 22.4093L19.2188 22.278C21.4625 21.9155 22.9937 21.028 23.6625 19.7093C23.825 19.3843 23.8438 19.2968 23.8438 18.6968C23.8438 17.9405 23.7563 17.703 23.3563 17.3093C22.9062 16.8718 22.2625 16.778 21.5312 17.0468C20.5063 17.4218 19.75 17.578 18.6063 17.6718L18.05 17.7155L18.2875 17.3843C18.5375 17.0343 18.8125 16.3593 18.8125 16.0843C18.8125 15.853 18.8625 15.803 19.2063 15.6718C19.6187 15.5155 20.1063 15.1343 20.425 14.7218C20.5688 14.528 20.6875 14.3468 20.6875 14.3155C20.6875 14.2843 20.7125 14.2593 20.7437 14.2593C20.7688 14.2593 21.3062 14.6655 21.9312 15.1655C22.5562 15.6655 23.1438 16.0905 23.2375 16.1155C23.4563 16.1718 23.8563 16.1718 24.075 16.1155C24.2812 16.0593 27.6875 13.3655 27.7938 13.178C27.9125 12.9655 27.8875 12.7655 27.7188 12.603C27.3938 12.278 27.3188 12.3155 25.4375 13.8218C24.4937 14.578 23.6938 15.1968 23.6562 15.1968C23.625 15.1968 23.0125 14.7343 22.3062 14.1655L21.0188 13.1343L20.9875 12.7405C20.925 11.9655 20.3438 11.2343 19.6187 11.0218L19.25 10.9155V10.5968C19.25 10.1843 19.1 9.3405 18.9312 8.7905C18.7313 8.128 18.2875 7.27175 17.8062 6.63425L17.375 6.05925L17.6063 5.778C18.2563 5.00925 18.7 4.28425 18.875 3.70925C18.9813 3.37175 19 3.34675 19.2563 3.278C19.65 3.178 20.5375 3.178 20.9625 3.2905C21.7313 3.4905 22.5125 3.98425 22.9688 4.55925C23.4563 5.17175 23.8813 5.17175 24.3438 4.5655C24.9625 3.753 26.125 3.19675 27.2063 3.19675C27.8687 3.19675 28.2563 3.2905 28.9062 3.603C29.7875 4.028 30.4188 4.72175 30.8 5.68425C30.9438 6.05925 30.9625 6.1905 30.9688 6.9155C30.9688 7.8155 30.9125 8.07175 30.525 8.853C30.25 9.4155 29.8 10.0093 29.1 10.7468C28.6063 11.2593 28.5375 11.3593 28.5375 11.553C28.5375 11.8343 28.7375 12.0093 29.05 12.0093C29.2437 12.0093 29.3375 11.9468 29.8438 11.428C30.825 10.4343 31.4125 9.5405 31.7875 8.478C32.0312 7.77175 32.075 6.58425 31.8813 5.8155C31.4375 4.04675 30.1187 2.7405 28.3438 2.3155C27.875 2.203 27.6562 2.1905 27.0312 2.2155C25.85 2.25925 24.9688 2.60925 24.0688 3.378L23.6562 3.7405L23.2938 3.4155C22.6562 2.84675 21.9 2.4655 21.075 2.2905C20.5312 2.17175 19.575 2.17175 19.0688 2.2905C18.7938 2.35925 18.6125 2.37175 18.4625 2.328C18.15 2.2405 17.8188 2.34675 16.9563 2.803L16.1688 3.2155L16.2125 3.003C16.3 2.52175 16.3313 1.403 16.2563 1.178C16.1125 0.753002 15.6625 0.528002 15.25 0.678003ZM15.3125 2.0405C15.3125 2.15925 15.2563 2.54675 15.1875 2.89675C15.0375 3.6655 15.0375 3.778 15.1562 4.003C15.3875 4.45925 16.0625 4.40925 17.15 3.853C17.525 3.6655 17.8438 3.52175 17.8625 3.5405C17.9188 3.59675 17.3062 4.5405 16.9062 5.0155C15.875 6.228 14.55 6.903 13.5813 6.703C13.0437 6.59675 12.9 6.6155 12.675 6.8155L12.4688 7.003L12.4875 7.57175L12.5063 8.14675L12.3313 8.10925C12.0125 8.028 11.4875 7.75925 11.0688 7.4655C10.2688 6.8905 8.875 5.43425 8.875 5.15925C8.875 5.103 8.99375 4.93425 9.14375 4.7905C9.45 4.503 10 4.29675 10.6562 4.22175C11.1938 4.1655 11.9938 3.92175 12.5188 3.65925C13.0125 3.40925 13.4812 3.09675 14.5312 2.328C14.9125 2.053 15.2375 1.82175 15.2688 1.82175C15.2937 1.82175 15.3125 1.92175 15.3125 2.0405ZM8.45625 6.3655C8.85625 6.88425 9.76875 7.7655 10.3063 8.17175C10.8938 8.6155 11.6188 8.978 12.1 9.07175C12.9313 9.23425 13.5 8.80925 13.5 8.028V7.728L14.0188 7.72175C14.7812 7.7155 15.55 7.44675 16.3 6.93425C16.5562 6.75925 16.575 6.753 16.6875 6.853C16.9125 7.053 17.45 7.88425 17.6938 8.4155C18.1 9.28425 18.2063 9.778 18.2125 10.7905C18.2125 11.8093 18.1375 12.1468 17.7125 13.078C17.375 13.8093 17.3625 14.0655 17.6187 14.7093C17.8687 15.3468 17.9 15.6155 17.7875 16.0655C17.6625 16.5468 17.475 16.8468 17.0562 17.2218C15.725 18.4218 12.4375 18.928 9.59375 18.3843C8.3375 18.1405 7.475 17.7593 6.83125 17.178C6.1125 16.5155 5.9375 15.7155 6.3125 14.778C6.58125 14.1155 6.56875 13.7968 6.25 13.1155C5.84375 12.253 5.73125 11.7405 5.73125 10.7905C5.73125 10.1718 5.7625 9.8655 5.8625 9.49675C6.175 8.33425 6.7 7.42175 7.5625 6.553C7.8625 6.253 8.11875 6.00925 8.1375 6.00925C8.15625 6.00925 8.3 6.17175 8.45625 6.3655ZM4.925 12.4655C5 12.7468 5.1625 13.1843 5.28125 13.4405C5.4 13.6905 5.5 13.9468 5.5 14.0093C5.5 14.0968 5.28125 14.6718 5.21875 14.7468C5.1625 14.8155 4.6625 14.4655 4.41875 14.1968C3.7625 13.4718 3.7875 12.478 4.4625 12.0655C4.56875 12.003 4.6875 11.9468 4.71875 11.9468C4.75625 11.9468 4.84375 12.178 4.925 12.4655ZM19.5063 12.0905C19.8563 12.328 20 12.5968 20 13.0343C20 13.503 19.8062 13.9468 19.4625 14.2843C19.2437 14.4968 18.7625 14.7968 18.725 14.7468C18.7125 14.7343 18.6438 14.5655 18.5688 14.3718L18.425 14.0093L18.675 13.428C18.8188 13.1093 18.9813 12.6468 19.0438 12.3968C19.1 12.153 19.1812 11.9468 19.2188 11.9468C19.2625 11.9468 19.3875 12.0093 19.5063 12.0905ZM2.2 18.0405C3.23125 18.4593 4.28125 18.6343 5.96875 18.6718C7.18125 18.6968 7.23125 18.703 7.6625 18.8843C7.9125 18.9843 8.4 19.1405 8.75625 19.228C9.1125 19.3155 9.4875 19.4093 9.5875 19.4343C9.7375 19.4718 9.78125 19.528 9.8375 19.7593C10.0188 20.4655 10.5188 21.1093 11.1313 21.4218C11.6125 21.6655 12.375 21.703 12.8938 21.5093C13.6 21.2405 14.2937 20.403 14.4125 19.6593L14.45 19.4093L15.05 19.2655C15.3813 19.1905 15.8875 19.028 16.175 18.9093L16.7063 18.6968L17.9937 18.6718C19.5 18.6405 20.3938 18.5093 21.3813 18.1655C22.2437 17.8655 22.2812 17.8593 22.5063 17.9468C22.75 18.0468 22.875 18.303 22.875 18.678C22.8687 19.0718 22.7 19.4343 22.3313 19.828C21.5813 20.6343 20.3625 21.128 18.525 21.3593C18.0813 21.4155 17.65 21.503 17.575 21.553C17.4 21.6593 17.225 22.0405 17.2688 22.2093C17.3 22.3155 17.125 22.3218 11.9938 22.3218H6.6875V22.1468C6.6875 21.9468 6.49375 21.603 6.31875 21.5155C6.25625 21.478 5.925 21.4155 5.58125 21.3843C3.75 21.1843 2.3625 20.6405 1.6 19.8218C1.225 19.4218 1.0625 19.0718 1.0625 18.6405C1.0625 18.3468 1.0875 18.2843 1.275 18.0968C1.53125 17.8405 1.68125 17.828 2.2 18.0405ZM13.375 19.6093C13.375 19.7343 13.0813 20.1593 12.8688 20.3468C12.2625 20.8655 11.4125 20.6655 10.9875 19.9093L10.8063 19.5843H12.0938C12.8 19.578 13.375 19.5905 13.375 19.6093ZM17.7 23.5218C17.7563 23.678 17.7188 23.7405 17.3563 24.1718C16.6063 25.0655 16.1 26.053 15.7688 27.3093C15.625 27.8405 15.6 28.0405 15.6 28.9593L15.5938 30.003L15.1562 30.128C14.1375 30.4343 13.8 30.4718 12.0312 30.4718C10.2188 30.478 9.65625 30.4155 8.7625 30.1155L8.35 29.978L8.36875 29.1343C8.38125 28.4655 8.35625 28.153 8.25625 27.653C7.96875 26.2468 7.31875 24.9468 6.43125 23.978C6.20625 23.7343 6.19375 23.703 6.25625 23.5155L6.325 23.3218L11.9875 23.3343L17.6438 23.353L17.7 23.5218ZM18.975 24.9218C19.9563 25.6155 20.6812 26.4593 21.025 27.3155C21.2875 27.9718 21.5312 28.1343 22.225 28.1343C22.6063 28.1343 22.9125 28.228 22.9625 28.3655C23 28.4593 22.1187 29.7093 21.8 30.0093C21.5438 30.253 21.2125 30.3843 20.8625 30.3843C20.5 30.3843 16.7 29.7905 16.6375 29.728C16.6125 29.703 16.5813 29.428 16.575 29.1093C16.5188 27.6968 17.1187 26.0468 18.1187 24.8343C18.2375 24.6905 18.375 24.5718 18.4125 24.5718C18.4563 24.5718 18.7063 24.728 18.975 24.9218Z" fill="white"/>
<path d="M8.74343 10.703C8.61843 10.7405 8.42468 10.8468 8.30593 10.9405C7.76843 11.3905 8.32468 12.078 8.93718 11.728C9.02468 11.678 9.18093 11.6405 9.28093 11.6405C9.38718 11.6405 9.53718 11.678 9.62468 11.728C10.0184 11.953 10.4372 11.7405 10.4372 11.3093C10.4372 11.0718 10.3497 10.9655 9.99968 10.7905C9.74343 10.6593 9.06843 10.6093 8.74343 10.703Z" fill="white"/>
<path d="M14.0317 10.7593C13.863 10.828 13.6692 10.9405 13.613 11.0155C13.4505 11.2093 13.4692 11.5218 13.6505 11.6905C13.8192 11.8468 13.963 11.8468 14.4817 11.6905C14.713 11.6218 14.7755 11.6218 14.9692 11.7155C15.288 11.8655 15.538 11.853 15.7192 11.6655C16.3317 11.0593 15.0317 10.3593 14.0317 10.7593Z" fill="white"/>
<path d="M8.95625 12.4092C8.80625 12.5405 8.78125 12.603 8.78125 12.9092C8.78125 13.3405 8.9375 13.5342 9.2875 13.5342C9.61875 13.5342 9.75 13.3467 9.75 12.8842C9.75 12.5655 9.73125 12.503 9.5875 12.3905C9.36875 12.2155 9.16875 12.228 8.95625 12.4092Z" fill="white"/>
<path d="M14.4563 12.3218C14.2688 12.3968 14.1875 12.578 14.1875 12.9155C14.1875 13.278 14.2625 13.4155 14.5 13.503C14.8688 13.628 15.1875 13.3655 15.1875 12.9343C15.1875 12.628 15.0813 12.4155 14.8938 12.328C14.7188 12.2468 14.6438 12.2468 14.4563 12.3218Z" fill="white"/>
<path d="M10.3812 14.278C10.0625 14.4405 9.96875 14.6592 9.96875 15.2467C9.96875 15.7405 9.9875 15.8342 10.175 16.2092C10.2875 16.4342 10.4812 16.7155 10.6062 16.828C11.4562 17.5717 12.725 17.528 13.4312 16.7217C13.8 16.303 13.95 15.9342 13.9875 15.3717C14.0187 14.8155 13.95 14.5842 13.675 14.353L13.4875 14.1967H12.0125C10.9625 14.1967 10.4875 14.2217 10.3812 14.278ZM13 15.3405C13 15.5717 12.7312 16.028 12.5062 16.178C12.1875 16.3905 11.9312 16.4155 11.6062 16.2717C11.2812 16.128 11.0312 15.7967 10.9687 15.428L10.925 15.1967H11.9625H13V15.3405Z" fill="white"/>
<path d="M22.4875 6.37803C22.2875 6.55303 22.2875 6.57178 22.2625 7.19053L22.2375 7.82178H21.65C21.0938 7.82178 21.0563 7.82803 20.8625 8.00303L20.6563 8.18428L20.6375 9.02178C20.6 10.3905 20.725 10.5718 21.7063 10.5718H22.25V11.0218C22.25 11.653 22.3375 11.928 22.5813 12.0718C22.7563 12.178 22.9 12.1968 23.6563 12.1968C24.4125 12.1968 24.5563 12.178 24.7313 12.0718C24.975 11.928 25.0625 11.653 25.0625 11.0218V10.5718H25.6125C26.5875 10.5718 26.7125 10.3905 26.675 9.02178L26.6563 8.18428L26.45 8.00303C26.2563 7.82803 26.2188 7.82178 25.6625 7.82178H25.075L25.05 7.19053C25.025 6.57178 25.025 6.55303 24.825 6.37803L24.625 6.19678H23.6563H22.6875L22.4875 6.37803ZM24.0625 7.79053C24.0625 8.35303 24.0688 8.39053 24.2438 8.58428C24.4188 8.78428 24.4375 8.78428 25.0563 8.80928L25.6875 8.83428V9.20303V9.57178H25.0563C24.4438 9.57178 24.425 9.57803 24.2438 9.75303C24.0688 9.93428 24.0625 9.95303 24.0625 10.5655V11.1968H23.6563H23.25V10.5655C23.25 9.95303 23.2438 9.93428 23.0688 9.75303C22.8875 9.57803 22.8688 9.57178 22.2563 9.57178H21.625V9.20303V8.83428L22.2563 8.80928C22.875 8.78428 22.8938 8.78428 23.0688 8.58428C23.2438 8.39053 23.25 8.35303 23.25 7.79053V7.19678H23.6563H24.0625V7.79053Z" fill="white"/>
</svg>
