<svg width="36" height="36" viewBox="0 0 36 36" fill="none" xmlns="http://www.w3.org/2000/svg">
<path d="M10.9336 2.65075C10.8211 2.66481 10.4766 2.74215 10.1813 2.8195C7.60081 3.46637 5.58987 5.46325 4.84456 8.12106C4.70394 8.63434 4.68284 8.8734 4.65472 10.7226C4.61253 13.8586 4.87269 15.7359 5.7094 18.2812C6.2719 20.0039 6.8555 21.2343 8.12112 23.3789C9.63987 25.9523 10.1813 27.3164 11.0461 30.7547C11.236 31.5281 11.4328 32.2242 11.475 32.3015C11.6789 32.6882 11.9883 32.9836 12.4102 33.1945C12.8321 33.3984 12.9024 33.4125 13.4227 33.3843C13.8516 33.3562 14.0414 33.314 14.2875 33.1664C14.6672 32.9484 15.0047 32.5757 15.1594 32.2172C15.2157 32.0765 15.5672 29.9601 15.9258 27.5273C16.2914 25.0875 16.6289 22.9711 16.6711 22.8164C16.8399 22.2117 17.6063 21.7195 18.2039 21.832C18.7313 21.9304 19.1953 22.3453 19.336 22.8304C19.3782 22.9781 19.7086 25.0875 20.0742 27.5273C20.4328 29.9601 20.7844 32.0765 20.8407 32.2172C20.9953 32.5757 21.3328 32.9484 21.7125 33.1664C21.9586 33.314 22.1485 33.3562 22.5774 33.3843C23.0977 33.4125 23.168 33.3984 23.5899 33.1945C24.0117 32.9836 24.3211 32.6882 24.525 32.3015C24.5672 32.2242 24.7641 31.5281 24.9539 30.7547C25.8328 27.2742 26.4164 25.8187 27.9844 23.2031C28.8282 21.8039 29.3555 20.7632 29.7985 19.6523C30.1149 18.8578 30.5297 17.5992 30.6774 17.0156L30.7688 16.6289L31.3805 16.6078L31.9922 16.5867V16.3054C31.9922 15.1312 32.9555 13.6195 34.0805 13.0218C34.5235 12.7898 35.4446 12.5156 35.8032 12.5156H36V11.8828V11.25H35.6977C35.536 11.25 35.2125 11.2007 34.9946 11.1445C33.4055 10.7297 32.161 9.29528 32.0133 7.69215L31.9711 7.24215H31.4227H30.8742L30.593 6.67262C29.9602 5.41403 28.8985 4.28903 27.668 3.57184C25.418 2.26403 22.5282 2.27106 20.25 3.57887C19.1883 4.19059 18.9985 4.24684 18 4.24684C17.0016 4.24684 16.8117 4.19059 15.75 3.57887C14.5547 2.89684 13.3875 2.5945 11.9602 2.60856C11.5102 2.61559 11.0532 2.63668 10.9336 2.65075ZM13.5141 4.00778C14.0625 4.14137 14.5899 4.3734 15.6657 4.94996C16.4461 5.36481 17.0719 5.51246 18 5.51246C18.9282 5.51246 19.5539 5.36481 20.3344 4.94996C22.0571 4.02887 22.6407 3.85309 23.9766 3.84606C24.961 3.83903 25.643 3.97965 26.4516 4.34528C28.3641 5.21012 29.8828 7.17887 30.0657 9.02809L30.1078 9.457L29.693 9.907C28.9899 10.6875 28.1321 11.1375 27.1828 11.2359L26.6836 11.2851L26.6625 11.8898L26.6414 12.4945L27.0492 12.5367C28.0266 12.6422 29.1586 13.2187 29.7141 13.8937L29.9742 14.2101L29.8547 14.9273C29.4399 17.4937 28.4696 20.0109 26.9297 22.5351C25.3547 25.1086 24.7078 26.6906 23.8992 29.9179C23.4914 31.5422 23.3789 31.8586 23.1399 32.0414C22.8024 32.2945 22.2399 32.1539 22.036 31.7742C21.9657 31.6265 21.6914 29.9953 21.2625 27.1476C20.8969 24.7289 20.5524 22.5843 20.4961 22.3875C20.2852 21.6492 19.6102 20.9742 18.8227 20.714C18.3938 20.5734 17.6063 20.5734 17.1774 20.714C16.3899 20.9742 15.7149 21.6492 15.5039 22.3875C15.4477 22.5843 15.1032 24.7289 14.7375 27.1476C14.3086 29.9953 14.0344 31.6265 13.9641 31.7742C13.7602 32.1539 13.1977 32.2945 12.8602 32.0414C12.6211 31.8586 12.5086 31.5422 12.1008 29.9179C11.2852 26.6554 10.7086 25.2562 9.05628 22.5C7.67815 20.2148 7.01019 18.6468 6.47581 16.4882C5.99065 14.5195 5.87815 13.4578 5.87815 11.0039C5.87815 9.18278 5.88519 8.99293 6.03284 8.47262C6.36331 7.27731 6.93987 6.34215 7.86097 5.47731C8.76097 4.63356 10.0055 4.02887 11.1657 3.87419C11.7985 3.78278 12.8532 3.84606 13.5141 4.00778ZM31.6196 10.139C31.9078 10.6242 32.625 11.3343 33.1383 11.6578L33.5461 11.9039L33.1875 12.1148C32.7164 12.382 31.943 13.1484 31.6125 13.6757L31.3453 14.0836L31.1414 13.732C30.8672 13.2609 30.1289 12.5086 29.6016 12.1711L29.1797 11.8968L29.5453 11.6718C30.0446 11.3625 30.7407 10.6804 31.0571 10.1882C31.2047 9.96325 31.3383 9.7734 31.3594 9.7734C31.3805 9.7734 31.493 9.94215 31.6196 10.139Z" fill="#2E37A4"/>
<path d="M14.2247 6.11715C13.845 6.69371 13.8169 6.64449 14.7309 7.09449C15.4833 7.46011 16.0387 7.64293 16.8192 7.76949C18.3731 8.02261 19.8356 7.79761 21.27 7.09449C22.1841 6.64449 22.1559 6.69371 21.7762 6.11715C21.5934 5.84996 21.4247 5.62496 21.3966 5.62496C21.3755 5.62496 21.1575 5.73043 20.9255 5.85699C19.9551 6.39136 19.1114 6.60933 18.0005 6.60933C16.8895 6.60933 16.0458 6.39136 15.0755 5.85699C14.8434 5.73043 14.6255 5.62496 14.6044 5.62496C14.5762 5.62496 14.4075 5.84996 14.2247 6.11715Z" fill="#2E37A4"/>
<path d="M6.96094 11.918V12.5156H7.55859H8.15625V11.918V11.3203H7.55859H6.96094V11.918Z" fill="#2E37A4"/>
<path d="M7.38275 13.6336C7.01712 13.6828 7.03118 13.6125 7.22103 14.7656C7.57259 16.9242 8.38821 19.2164 9.49212 21.1359C9.73118 21.5578 9.95618 21.9304 9.99134 21.9656C10.0476 22.0289 11.039 21.4242 11.039 21.3328C11.039 21.3046 10.8773 21.0234 10.6804 20.7C9.54837 18.8226 8.61321 16.1367 8.33196 13.9359L8.28275 13.5703L7.99446 13.5843C7.83275 13.5843 7.55853 13.6125 7.38275 13.6336Z" fill="#2E37A4"/>
<path d="M4.00781 22.5914C4.00781 23.0203 3.83203 23.6531 3.56484 24.1875C3.25547 24.8133 2.43984 25.6219 1.82109 25.9242C1.33594 26.1633 0.611719 26.3672 0.232031 26.3672H0V27V27.6328H0.232031C0.611719 27.6328 1.33594 27.8367 1.82109 28.0758C2.43984 28.3781 3.25547 29.1867 3.56484 29.8125C3.83203 30.3469 4.00781 30.9797 4.00781 31.4086V31.7109H4.64062H5.27344V31.4437C5.28047 30.1922 6.28594 28.6453 7.47422 28.0688C7.9875 27.8227 8.67656 27.6328 9.09141 27.6328H9.35156V27V26.3672H9.09141C8.67656 26.3672 7.9875 26.1773 7.47422 25.9313C6.28594 25.3547 5.28047 23.8078 5.27344 22.5492V22.2891H4.64062H4.00781V22.5914ZM4.89375 25.2211C5.13984 25.65 5.99062 26.5008 6.41953 26.7469C6.60234 26.8523 6.75 26.9719 6.75 27C6.75 27.0281 6.60234 27.1477 6.41953 27.2531C5.99062 27.4992 5.13984 28.35 4.89375 28.7789C4.78828 28.9617 4.67578 29.1094 4.65469 29.1094C4.62656 29.1094 4.51406 28.9617 4.39453 28.7789C4.09219 28.2938 3.44531 27.6398 2.96016 27.3164C2.72812 27.1617 2.53125 27.0211 2.53125 27C2.53125 26.9789 2.67891 26.8734 2.86172 26.7539C3.34687 26.4516 4.00078 25.8047 4.32422 25.3195C4.47891 25.0875 4.62656 24.8906 4.65469 24.8906C4.67578 24.8906 4.78828 25.0383 4.89375 25.2211Z" fill="#00D3C7"/>
</svg>
