<svg width="32" height="33" viewBox="0 0 32 33" fill="none" xmlns="http://www.w3.org/2000/svg">
<path d="M26.0936 1.17805C25.4999 1.39055 25.1561 1.65305 24.2624 2.55305L23.3686 3.45305L23.5186 3.65305C23.6061 3.76555 23.7624 3.95305 23.8686 4.0718L24.0561 4.29055L24.9499 3.37805C25.9874 2.3218 26.2874 2.1343 26.8999 2.1343C27.3624 2.1343 27.6936 2.27805 28.0124 2.6093C28.3186 2.92805 28.4374 3.2343 28.4374 3.69055C28.4374 4.3718 28.4561 4.3468 24.3124 8.3843L20.5311 12.0655L18.4061 12.0718H16.2811L19.7999 8.55305C21.7311 6.6218 23.3124 5.0093 23.3124 4.97805C23.3124 4.8968 22.6749 4.2593 22.5936 4.2593C22.5561 4.2593 21.7874 5.00305 20.8749 5.91555L19.2186 7.5718H16.9999C14.9999 7.5718 14.7311 7.5843 14.2624 7.6968C13.1811 7.95305 12.4061 8.4218 11.3311 9.46555L10.6186 10.1593L11.0061 10.5468L11.3999 10.9405L12.1811 10.178C12.8124 9.56555 13.0686 9.3593 13.4811 9.1468C14.3624 8.69055 14.7249 8.6218 16.5936 8.59055L18.2186 8.5593L13.5936 13.1968C8.61237 18.1906 8.68112 18.1343 8.03737 18.1343C7.59362 18.1343 7.28112 18.0218 6.96862 17.7468C6.61862 17.4343 6.43737 17.0656 6.43737 16.6406C6.43737 15.9281 6.41237 15.9593 8.54362 13.8218C9.61862 12.7343 10.4999 11.8218 10.4999 11.7843C10.4999 11.7031 9.85612 11.0718 9.77487 11.0718C9.74362 11.0718 8.83737 11.9531 7.76862 13.028C5.98737 14.8093 5.79987 15.0156 5.61237 15.4156C5.44362 15.7843 5.40612 15.9406 5.38737 16.4218C5.35612 17.1281 5.46237 17.5343 5.83112 18.0843C6.13737 18.5468 6.69362 18.9531 7.23112 19.1093L7.58112 19.2093L4.28737 22.5031L0.999875 25.7906V28.3093C0.999875 31.3906 0.887375 31.1031 2.08738 31.0531C3.31862 30.9968 4.38737 30.7218 5.46862 30.1843C6.67487 29.5781 7.26862 29.0968 9.14362 27.2156L10.4999 25.8468V24.5968V23.3468L10.7374 23.1156L10.9811 22.8781L11.0561 23.1468C11.2874 23.9156 11.7936 24.5156 12.4811 24.8406C12.8249 24.9968 13.0061 25.0406 13.4436 25.0593L13.9874 25.0843L14.0124 25.6281C14.0436 26.3093 14.2811 26.8593 14.7499 27.3218C15.2124 27.7906 15.7624 28.0281 16.4436 28.0593L16.9874 28.0843L17.0124 28.6343C17.0374 29.1156 17.0686 29.2468 17.2686 29.6531C17.5374 30.1968 17.9374 30.5968 18.4874 30.8656C18.8124 31.0281 18.8999 31.0406 19.5624 31.0406C20.2124 31.0406 20.3124 31.0218 20.6436 30.8718C21.1311 30.6406 21.2686 30.5218 22.2374 29.4531L23.0686 28.5406L22.6749 28.1843C22.4561 27.9843 22.2686 27.8281 22.2499 27.8281C22.2311 27.8281 21.8311 28.2656 21.3624 28.7906C20.3999 29.8593 20.1749 30.0156 19.6061 30.0156C19.4186 30.0156 19.1561 29.9718 19.0249 29.9156C18.7061 29.7843 18.3249 29.4156 18.1811 29.1031C18.0374 28.7906 18.0249 28.1593 18.1561 27.8343C18.2249 27.6781 19.0124 26.8468 20.5811 25.2718L22.9061 22.9468L22.5124 22.5593L22.1249 22.1656L19.7999 24.4906C18.1561 26.1281 17.3999 26.8406 17.2249 26.9093C16.8811 27.0531 16.2874 27.0406 15.9624 26.8781C15.6561 26.7343 15.2749 26.3406 15.1499 26.0343C15.0311 25.7531 15.0374 25.1468 15.1624 24.8468C15.2311 24.6718 15.9436 23.9156 17.5811 22.2718L19.9061 19.9468L19.5124 19.5593L19.1249 19.1656L16.7999 21.4906C15.1561 23.1281 14.3936 23.8468 14.2249 23.9156C13.8749 24.0593 13.3249 24.0468 12.9749 23.8843C12.6561 23.7281 12.2811 23.3468 12.1499 23.0343C12.0374 22.7718 12.0374 22.1281 12.1499 21.8656C12.1999 21.7468 12.9811 20.9281 14.0686 19.8656L15.9061 18.0718H19.0686H22.2249L22.8311 18.7531C23.9749 20.0468 24.9624 20.8218 26.2811 21.4718C27.6436 22.1468 28.8749 22.4843 30.2374 22.5531L31.0061 22.5906L30.9874 22.0656L30.9686 21.5406L30.3124 21.4968C28.3124 21.3718 26.2999 20.5218 24.7374 19.1531C24.4749 18.9156 23.9436 18.3781 23.5561 17.9468C23.1749 17.5156 22.8499 17.1531 22.8311 17.1343C22.8124 17.1156 21.3061 17.0906 19.4811 17.0718C15.6124 17.0281 15.7874 17.0531 15.1499 16.4218C14.6749 15.9406 14.5311 15.5781 14.5749 14.9218C14.6374 13.9781 15.2749 13.2968 16.2499 13.1406C16.5061 13.0968 18.3686 13.0718 21.3311 13.0718H25.9999V12.5718V12.0718H24.0499L22.0936 12.0655L23.8749 10.3218L25.6561 8.57805L28.3311 8.5718H30.9999V8.0718V7.5718H28.8624H26.7186L27.8811 6.3968C28.5186 5.75305 29.0999 5.12805 29.1749 5.0093C29.4186 4.5968 29.5186 4.0968 29.4811 3.49055C29.4561 3.0218 29.4186 2.8718 29.2249 2.4843C28.9561 1.9343 28.5874 1.5718 28.0186 1.3093C27.6686 1.14055 27.5186 1.1093 27.0061 1.09055C26.5436 1.0718 26.3374 1.09055 26.0936 1.17805ZM13.6811 16.1906C13.8624 16.6343 14.1186 16.9968 14.4999 17.3406L14.8124 17.6218L12.4186 19.9468C11.1061 21.2281 9.91237 22.3968 9.76862 22.5468L9.49987 22.8156V24.0531V25.2968L7.98112 26.7968C6.39362 28.3781 5.98737 28.7093 5.08737 29.1656C4.24987 29.5906 2.81237 30.0093 2.18113 30.0093H1.99987V28.1843V26.3531L7.73737 20.6156L13.4686 14.8843L13.5061 15.3656C13.5311 15.6343 13.6061 16.0031 13.6811 16.1906Z" fill="white"/>
<path d="M12.4688 17.0718L12.0938 17.4468L12.6125 17.9655L13.125 18.478L13.5125 18.0843L13.9062 17.6968L13.4062 17.1968C13.1313 16.9218 12.8938 16.6968 12.875 16.6968C12.8562 16.6968 12.675 16.8655 12.4688 17.0718Z" fill="white"/>
<path d="M10.9688 18.5718L10.5938 18.9468L11.1125 19.4655L11.625 19.978L12.0125 19.5843L12.4062 19.1968L11.9062 18.6968C11.6313 18.4218 11.3938 18.1968 11.375 18.1968C11.3562 18.1968 11.175 18.3655 10.9688 18.5718Z" fill="white"/>
<path d="M6.56263 25.0468C5.71888 25.7843 4.85013 26.5155 4.62513 26.6655C4.17513 26.9655 3.30013 27.4155 3.04388 27.478C2.95013 27.503 2.86263 27.5468 2.84388 27.5718C2.80638 27.6343 3.12513 28.5718 3.18763 28.5718C3.28138 28.5718 4.16888 28.1843 4.56263 27.9655C4.78763 27.8468 5.15013 27.6155 5.37513 27.4593C5.68138 27.2405 7.56888 25.6343 8.83763 24.503C8.90013 24.4468 8.26888 23.6968 8.16263 23.6968C8.12513 23.703 7.40638 24.3093 6.56263 25.0468Z" fill="white"/>
<path d="M24.9688 4.57178L24.5938 4.94678L25.1125 5.46553L25.625 5.97803L26.0125 5.58428L26.4062 5.19678L25.9062 4.69678C25.6313 4.42178 25.3938 4.19678 25.375 4.19678C25.3562 4.19678 25.175 4.36553 24.9688 4.57178Z" fill="white"/>
<path d="M23.4688 6.07178L23.0938 6.44678L23.6125 6.96553L24.125 7.47803L24.5125 7.08428L24.9062 6.69678L24.4062 6.19678C24.1313 5.92178 23.8938 5.69678 23.875 5.69678C23.8562 5.69678 23.675 5.86553 23.4688 6.07178Z" fill="white"/>
<path d="M21.9688 7.57178L21.5938 7.94678L22.1125 8.46553L22.625 8.97803L23.0125 8.58428L23.4062 8.19678L22.9062 7.69678C22.6313 7.42178 22.3938 7.19678 22.375 7.19678C22.3562 7.19678 22.175 7.36553 21.9688 7.57178Z" fill="white"/>
<path d="M20.4688 9.07178L20.0938 9.44678L20.6125 9.96553L21.125 10.478L21.5125 10.0843L21.9062 9.69678L21.4062 9.19678C21.1313 8.92178 20.8938 8.69678 20.875 8.69678C20.8562 8.69678 20.675 8.86553 20.4688 9.07178Z" fill="white"/>
<path d="M18.9688 10.5718L18.5938 10.9468L19.1125 11.4655L19.625 11.978L20.0125 11.5843L20.4062 11.1968L19.9062 10.6968C19.6313 10.4218 19.3938 10.1968 19.375 10.1968C19.3562 10.1968 19.175 10.3655 18.9688 10.5718Z" fill="white"/>
<path d="M30.0877 23.7531C29.5002 24.3156 28.8314 24.6906 28.0814 24.8906C27.6814 24.9968 27.3314 25.0281 26.1627 25.0531C24.8252 25.0843 24.7314 25.0968 24.5939 25.2218C24.5189 25.2906 24.0814 25.7718 23.6252 26.2781L22.7939 27.2031L23.1627 27.5406C23.3689 27.7281 23.5627 27.8781 23.5939 27.8781C23.6314 27.8781 24.0189 27.4781 24.4564 26.9843L25.2564 26.0843L26.6752 26.0593C28.0252 26.0343 28.1189 26.0218 28.6252 25.8593C29.6064 25.5343 30.2877 25.1156 30.9877 24.4031C31.2314 24.1468 31.4377 23.9156 31.4377 23.8906C31.4377 23.8468 30.6627 23.2593 30.6189 23.2593C30.6064 23.2656 30.3627 23.4843 30.0877 23.7531Z" fill="white"/>
</svg>
