<svg width="46" height="46" viewBox="0 0 46 46" fill="none" xmlns="http://www.w3.org/2000/svg">
<path d="M6.6875 0.759277C6.5 0.946777 6.5 1.06865 6.5 9.3749V17.803L4.84063 17.8405C3.20938 17.8687 3.15313 17.878 2.60938 18.1405C1.8875 18.4968 1.175 19.2093 0.81875 19.9312L0.546875 20.4937V31.6968V42.8999L0.81875 43.4624C1.175 44.1843 1.8875 44.8968 2.60938 45.253L3.17188 45.5249H20H36.8281L37.3906 45.253C38.4313 44.7374 39.2 43.7343 39.425 42.5999C39.4813 42.2999 40.8781 37.1812 42.5188 31.2187C44.8813 22.6124 45.5 20.2593 45.5 19.8187C45.5 18.0374 44.1781 16.303 42.3969 15.7499C41.8906 15.5905 41.5156 15.5718 39.1625 15.5718H36.5V9.75928C36.5 4.06865 36.5 3.94678 36.3125 3.75928C36.1438 3.59053 36.0031 3.57178 34.8125 3.57178H33.5V2.25928C33.5 1.06865 33.4813 0.928024 33.3125 0.759277C33.125 0.571777 33.0031 0.571777 20 0.571777C6.99688 0.571777 6.875 0.571777 6.6875 0.759277ZM32 11.8218V21.5718H24.7156H17.4313L15.5469 19.6968L13.6625 17.8218H10.8313H8V9.94678V2.07178H20H32V11.8218ZM35 13.3218V21.5718H34.25H33.5V13.3218V5.07178H34.25H35V13.3218ZM42.125 17.3624C42.4156 17.4937 42.8 17.7374 42.9875 17.9062C43.4094 18.2718 43.9062 19.228 43.9156 19.6874C43.9156 19.8749 42.9313 23.5968 41.7313 27.9655L39.5469 35.9155L39.5 30.0749L39.4531 24.2437L39.2 23.728C38.7219 22.753 37.8594 21.9843 36.9406 21.7124L36.5469 21.5999L36.5188 19.3218L36.5 17.053L39.05 17.0905C41.5719 17.1187 41.6188 17.128 42.125 17.3624ZM14.675 21.1687L16.5313 23.0249L26.4031 23.0718L36.2656 23.1187L36.6406 23.3155C37.1562 23.5968 37.5219 23.9718 37.7563 24.478C37.9531 24.8999 37.9531 24.9562 37.9531 33.5249C37.9531 41.6062 37.9438 42.178 37.7844 42.5905C37.5875 43.1062 36.9688 43.7155 36.4438 43.8937C36.1344 44.0062 33.4344 44.0249 19.9531 44.0249H3.82813L3.40625 43.828C2.87188 43.5749 2.49688 43.1999 2.24375 42.6655C2.04688 42.2437 2.04688 42.2155 2.04688 31.6968C2.04688 21.178 2.04688 21.1499 2.24375 20.728C2.58125 20.0062 3.18125 19.5374 3.92188 19.4062C4.12813 19.378 6.21875 19.3405 8.5625 19.3312L12.8281 19.3218L14.675 21.1687Z" fill="white"/>
<path d="M14.3 3.76865C13.6344 4.03115 12.95 4.71553 12.6969 5.3999C12.5281 5.84053 12.5 6.13115 12.5 7.3124C12.5 8.82178 12.5938 9.25303 13.025 9.8249C13.2406 10.1062 13.25 10.1718 13.1563 10.4718C13.0063 10.903 12.6313 11.0718 11.7781 11.0718C11.0281 11.0718 10.5312 11.2687 10.0906 11.7374C9.575 12.2812 9.5 12.5905 9.5 14.1655V15.5718H10.25H11V14.4937C11 12.8062 11.1781 12.5718 12.4906 12.5718C12.8844 12.5718 13.25 12.5062 13.4844 12.3937C13.8875 12.2155 14.4219 11.6718 14.6 11.2687C14.7031 11.0343 14.7313 11.0249 15.5 11.0249C16.2688 11.0249 16.2969 11.0343 16.4 11.2687C16.5781 11.6718 17.1125 12.2155 17.5156 12.3937C17.75 12.5062 18.1156 12.5718 18.5094 12.5718C19.8219 12.5718 20 12.8062 20 14.4937V15.5718H20.75H21.5V14.1655C21.5 12.5905 21.425 12.2812 20.9094 11.7374C20.4688 11.2687 19.9719 11.0718 19.2219 11.0718C18.3688 11.0718 17.9938 10.903 17.8438 10.4718C17.75 10.1718 17.7594 10.1062 17.975 9.8249C18.4062 9.25303 18.5 8.82178 18.5 7.3124C18.5 5.60615 18.3594 5.12803 17.6562 4.41553C16.8219 3.59053 15.4531 3.32803 14.3 3.76865ZM16.25 5.38115C16.8313 5.76553 16.9531 6.10303 16.9531 7.32178C16.9531 8.54053 16.8313 8.87803 16.25 9.2624C15.5938 9.7124 14.675 9.45928 14.2438 8.72803C14.075 8.44678 14.0469 8.24053 14.0469 7.32178C14.0469 6.40303 14.075 6.19678 14.2438 5.91553C14.525 5.4374 14.975 5.16553 15.5 5.16553C15.8 5.16553 16.0438 5.23115 16.25 5.38115Z" fill="white"/>
<path d="M23.1875 3.75928C23.0094 3.9374 23 4.06865 23 5.82178C23 7.5749 23.0094 7.70615 23.1875 7.88428C23.3656 8.0624 23.4969 8.07178 26.75 8.07178C30.0031 8.07178 30.1344 8.0624 30.3125 7.88428C30.4906 7.70615 30.5 7.5749 30.5 5.82178C30.5 4.06865 30.4906 3.9374 30.3125 3.75928C30.1344 3.58115 30.0031 3.57178 26.75 3.57178C23.4969 3.57178 23.3656 3.58115 23.1875 3.75928ZM29 5.82178V6.57178H26.75H24.5V5.82178V5.07178H26.75H29V5.82178Z" fill="white"/>
<path d="M23 10.3218V11.0718H26.75H30.5V10.3218V9.57178H26.75H23V10.3218Z" fill="white"/>
<path d="M23 13.3218V14.0718H26.75H30.5V13.3218V12.5718H26.75H23V13.3218Z" fill="white"/>
<path d="M23 16.3218V17.0718H26.75H30.5V16.3218V15.5718H26.75H23V16.3218Z" fill="white"/>
<path d="M23 19.3218V20.0718H26.75H30.5V19.3218V18.5718H26.75H23V19.3218Z" fill="white"/>
<path d="M16.4375 25.5093C16.2594 25.6874 16.25 25.8187 16.25 27.7593V29.8218H14.1875C12.2469 29.8218 12.1156 29.8312 11.9375 30.0093C11.7594 30.1874 11.75 30.3187 11.75 33.5718C11.75 36.8249 11.7594 36.9562 11.9375 37.1343C12.1156 37.3124 12.2469 37.3218 14.1875 37.3218H16.25V39.3843C16.25 41.3249 16.2594 41.4562 16.4375 41.6343C16.6156 41.8124 16.7469 41.8218 20 41.8218C23.2531 41.8218 23.3844 41.8124 23.5625 41.6343C23.7406 41.4562 23.75 41.3249 23.75 39.3843V37.3218H25.8125C27.7531 37.3218 27.8844 37.3124 28.0625 37.1343C28.2406 36.9562 28.25 36.8249 28.25 33.5718C28.25 30.3187 28.2406 30.1874 28.0625 30.0093C27.8844 29.8312 27.7531 29.8218 25.8125 29.8218H23.75V27.7593C23.75 25.8187 23.7406 25.6874 23.5625 25.5093C23.3844 25.3312 23.2531 25.3218 20 25.3218C16.7469 25.3218 16.6156 25.3312 16.4375 25.5093ZM22.25 28.8843C22.25 30.8249 22.2594 30.9562 22.4375 31.1343C22.6156 31.3124 22.7469 31.3218 24.6875 31.3218H26.75V33.5718V35.8218H24.6875C22.7469 35.8218 22.6156 35.8312 22.4375 36.0093C22.2594 36.1874 22.25 36.3187 22.25 38.2593V40.3218H20H17.75V38.2593C17.75 36.3187 17.7406 36.1874 17.5625 36.0093C17.3844 35.8312 17.2531 35.8218 15.3125 35.8218H13.25V33.5718V31.3218H15.3125C17.2531 31.3218 17.3844 31.3124 17.5625 31.1343C17.7406 30.9562 17.75 30.8249 17.75 28.8843V26.8218H20H22.25V28.8843Z" fill="#00D3C7"/>
</svg>
