<svg width="36" height="36" viewBox="0 0 36 36" fill="none" xmlns="http://www.w3.org/2000/svg">
<g clip-path="url(#clip0_314_314597)">
<path d="M6.1957 0.611156C4.95117 0.948656 3.57304 2.29866 2.51835 4.22522C1.84335 5.45569 1.2457 7.12913 1.02773 8.40178C0.894136 9.21038 0.873042 10.9541 0.992573 11.7487C1.28789 13.7174 2.27929 16.108 3.45351 17.669C4.29726 18.794 5.0707 19.4338 6.03398 19.8135C6.46289 19.9823 6.61054 20.0033 7.39101 20.0104C8.2207 20.0104 8.29101 19.9963 8.69179 19.8065C9.47929 19.4198 10.091 18.6041 10.3793 17.5494C10.5269 17.001 10.5973 15.5737 10.4988 14.983C10.2035 13.2393 10.084 12.944 9.62695 12.944C9.05039 12.944 8.95195 13.2463 9.17695 14.3783C9.42304 15.5877 9.45117 15.9252 9.35976 16.5932C9.07851 18.6604 7.86914 19.4057 6.16054 18.569C4.36054 17.6901 2.43398 14.1744 2.11054 11.1862C1.96289 9.82209 2.1457 8.26116 2.61679 6.91819C3.43242 4.59084 4.83867 2.55881 6.04804 1.95412C6.66679 1.64475 7.05351 1.58147 7.62304 1.69397C8.18554 1.79944 8.50195 1.96819 8.81835 2.31975C9.14882 2.68538 9.26132 3.10022 9.39492 4.35881C9.48632 5.21663 9.52851 5.40647 9.65507 5.54006C9.86601 5.76506 10.2668 5.75803 10.4848 5.526L10.6535 5.35022L10.5691 4.34475C10.4285 2.72053 10.2176 2.07366 9.59882 1.41272C8.88164 0.646313 7.39101 0.28772 6.1957 0.611156Z" fill="#2E37A4"/>
<path d="M28.1336 0.540869C27.775 0.604149 27.107 0.878368 26.8258 1.06821C26.4109 1.34946 26.1016 1.72915 25.8836 2.22134C25.6305 2.76977 25.5531 3.17056 25.4477 4.36587L25.3633 5.35024L25.532 5.52602C25.743 5.75102 26.1648 5.77212 26.3758 5.56118C26.4531 5.48384 26.5164 5.39946 26.5164 5.36431C26.5234 4.95649 26.7555 3.25493 26.8398 2.97368C27.1 2.14399 27.8172 1.6729 28.8438 1.66587C29.3219 1.65884 29.4273 1.68696 29.9055 1.92602C30.8969 2.41118 31.9164 3.64868 32.732 5.35024C34.2297 8.46509 34.3563 11.1018 33.1539 14.1393C32.0852 16.8323 30.5875 18.5479 29.0336 18.8573C27.7398 19.1174 26.8891 18.3018 26.657 16.5932C26.5656 15.9252 26.5938 15.5877 26.8398 14.3713C27.0227 13.4713 27.0016 13.2393 26.7414 13.0424C26.5727 12.9088 26.207 12.9229 26.0242 13.0706C25.8977 13.169 25.8273 13.401 25.6586 14.2448C25.4688 15.187 25.4547 15.3909 25.4828 16.2135C25.5391 17.6127 25.8695 18.5409 26.5516 19.237C27.0789 19.7784 27.5922 19.9963 28.3797 20.0315C29.1813 20.0666 29.6594 19.9682 30.3625 19.6307C31.8813 18.8854 33.2734 17.0643 34.2719 14.519C34.5672 13.7666 34.9117 12.501 35.0242 11.7487C35.1367 10.9752 35.1156 9.16118 34.9891 8.40884C34.3844 4.94243 32.1625 1.46196 30.0602 0.695555C29.6523 0.547899 28.5695 0.463524 28.1336 0.540869Z" fill="#2E37A4"/>
<path d="M8.39609 5.98303C8.19219 6.06741 8.11484 6.22913 8.03047 6.72835C7.96016 7.17131 7.77734 7.67053 7.68594 7.67053C7.56641 7.67053 6.98281 7.25569 6.575 6.876C6.21641 6.54553 6.09687 6.47522 5.88594 6.47522C5.53437 6.47522 5.35156 6.67209 5.35156 7.04475C5.35156 7.30491 5.39375 7.37522 5.75937 7.73381C6.27969 8.24006 6.87734 8.64085 7.46094 8.85881C7.95312 9.04163 8.23438 9.05569 10.5547 9.00647C11.7711 8.98538 12.3195 9.09788 13.3461 9.60413C14.5625 10.2018 15.5328 11.158 15.9336 12.1565C16.3977 13.3096 16.4117 14.4979 16.0039 16.8955C15.6734 18.8151 15.5961 19.8276 15.6875 20.7979C15.793 21.9721 16.018 22.5979 16.5172 23.1533C16.9039 23.5823 17.3609 23.7721 18.0078 23.7721C18.6547 23.7721 19.1117 23.5823 19.4984 23.1533C20.4547 22.0987 20.5953 20.3198 20.0117 16.8885C19.5969 14.5049 19.618 13.3096 20.082 12.1565C20.6164 10.8276 22.1562 9.60413 23.8789 9.13303C24.3641 9.00647 24.5891 8.98538 25.4609 9.00647C27.7461 9.06272 28.0625 9.04163 28.5547 8.85881C29.1312 8.64085 29.6937 8.26819 30.2422 7.74084C30.6219 7.37522 30.6641 7.30491 30.6641 7.04475C30.6641 6.67209 30.4812 6.47522 30.1297 6.47522C29.9187 6.47522 29.7992 6.54553 29.4195 6.89709C28.9062 7.36116 28.3578 7.71272 28.2805 7.62835C28.175 7.50881 28.0062 6.99553 27.957 6.62991C27.8867 6.13069 27.732 5.94788 27.3594 5.94788C26.9656 5.94788 26.7969 6.15178 26.7969 6.60881C26.7969 6.89709 26.9164 7.44553 27.0359 7.74788C27.0781 7.84631 26.9305 7.86038 25.5875 7.85334C24.2586 7.85334 24.0336 7.86741 23.5484 8.001C20.9539 8.73225 19.1609 10.476 18.6969 12.726C18.4789 13.7737 18.5492 15.4049 18.8867 17.3033C19.3016 19.6448 19.2945 21.0791 18.8656 21.944C18.6547 22.3658 18.3172 22.6471 18.0078 22.6471C17.6984 22.6471 17.3609 22.3658 17.15 21.944C16.7141 21.0721 16.7141 19.6448 17.143 17.2682C17.3891 15.8901 17.4031 15.6932 17.4102 14.3854C17.4102 12.7893 17.3398 12.4096 16.8828 11.4323C16.5664 10.7643 16.4047 10.5323 15.7719 9.89944C14.9141 9.02756 13.7469 8.36663 12.4531 8.00803C11.9117 7.86038 11.7148 7.84631 10.393 7.85334C9.07109 7.86038 8.9375 7.85334 8.97969 7.74788C9.08516 7.50178 9.21875 6.84788 9.21875 6.57366C9.21875 6.39788 9.16953 6.2221 9.09922 6.13069C8.95156 5.96194 8.62109 5.8846 8.39609 5.98303Z" fill="#00D3C7"/>
<path d="M3.96641 7.82522C3.77656 7.91662 3.63594 8.24709 3.69219 8.46506C3.74844 8.70412 4.35312 9.47053 4.84531 9.93459L5.26719 10.3424L4.83125 10.6518C4.59219 10.8205 4.18437 11.1862 3.92422 11.4604C3.50937 11.9033 3.45312 11.9947 3.45312 12.2338C3.45312 12.4518 3.49531 12.5432 3.63594 12.6557C3.9875 12.9299 4.17031 12.8596 4.88047 12.1846C5.53437 11.5729 6.31484 11.0455 6.58203 11.0455C6.65937 11.0455 6.84219 11.0807 6.98984 11.1229L7.25703 11.1932L7.00391 11.5026C6.13906 12.5643 5.97031 13.2955 6.54688 13.4924C6.90547 13.619 7.13047 13.4854 7.43281 12.9721C7.74922 12.4307 8.31172 11.7908 8.71953 11.5096L9.01484 11.3057L10.0484 11.3479C11.7008 11.4182 12.6922 11.7557 13.332 12.4658C13.9789 13.1901 14.0844 13.8651 13.8313 15.8619C13.3742 19.5533 13.4094 21.5291 13.9719 23.4557L14.1547 24.0885L13.8875 24.2994C12.9453 25.0237 12.2352 26.001 11.9961 26.908C11.5531 28.6237 12.418 30.4799 14.1758 31.5416C14.4852 31.7315 14.7805 31.9283 14.8297 31.9916C14.893 32.069 14.9141 32.5119 14.9141 33.6651C14.9141 35.1416 14.9211 35.2401 15.0547 35.3737C15.2586 35.5776 15.6875 35.5635 15.8914 35.3455C16.0461 35.1838 16.0461 35.1557 16.025 33.3908L16.0039 31.5979L15.8141 31.3096C15.6734 31.1057 15.4484 30.9229 15.0406 30.6838C12.8609 29.4393 12.418 27.3721 13.993 25.8112C14.2461 25.558 14.5766 25.2627 14.7242 25.1572C15.2586 24.7565 15.3992 24.0955 15.132 23.2377C14.5977 21.5432 14.5484 19.5885 14.9492 16.3401C15.2164 14.1533 15.1742 13.3307 14.7242 12.3955C14.45 11.826 13.7469 11.144 13.0859 10.8135C12.2 10.3705 11.6586 10.2721 9.74609 10.1947C8.81797 10.1596 7.81953 10.0822 7.51719 10.033C6.58203 9.85725 5.9 9.43537 5.225 8.60568C4.50781 7.72678 4.36016 7.63537 3.96641 7.82522Z" fill="#2E37A4"/>
<path d="M31.4938 7.81119C31.4305 7.85338 31.2125 8.09244 31.0157 8.3526C30.2071 9.37213 29.5532 9.82213 28.5899 10.026C28.3227 10.0823 27.3102 10.1596 26.3399 10.1948C24.9969 10.251 24.4555 10.3003 24.0547 10.4057C22.7118 10.7503 21.7625 11.4393 21.2914 12.4026C20.8344 13.3448 20.7852 14.1956 21.0805 16.3612C21.2422 17.5776 21.2704 18.0135 21.2704 19.694C21.2774 21.7401 21.2352 22.1057 20.8766 23.2729C20.7079 23.8284 20.7008 24.3135 20.8625 24.6581C20.9329 24.8057 21.2211 25.1081 21.5305 25.3682C22.9157 26.5143 23.3024 27.7448 22.6696 29.0456C22.3954 29.6151 21.6219 30.3463 20.9118 30.719C20.2368 31.0706 19.9414 31.387 19.8289 31.8862C19.7868 32.1112 19.7657 32.8213 19.7797 33.7424C19.8008 35.226 19.8008 35.2471 19.9696 35.3807C20.1946 35.5635 20.6164 35.5565 20.7922 35.3667C20.9118 35.2331 20.9258 35.0643 20.961 33.637L20.9961 32.0479L21.6149 31.6753C22.3954 31.2042 22.8524 30.8245 23.2532 30.3042C24.2938 28.9542 24.4063 27.2526 23.5485 25.8253C23.2954 25.4104 22.7399 24.8057 22.2055 24.3698L21.861 24.0885L22.0719 23.3503C22.4024 22.169 22.4727 21.5221 22.4657 19.694C22.4586 18.3018 22.4305 17.7956 22.2618 16.4948C21.9172 13.8721 22.0016 13.1549 22.761 12.3956C23.4571 11.7065 24.3008 11.4323 26.0024 11.3549L27.0008 11.3057L27.2961 11.5096C27.7039 11.7909 28.2664 12.4307 28.5829 12.9721C28.8852 13.4854 29.1102 13.619 29.4688 13.4924C30.0524 13.2956 29.9047 12.6346 29.0469 11.5448L28.7727 11.1932L29.1383 11.1088C29.4688 11.0385 29.5461 11.0456 29.7571 11.151C30.2211 11.3901 30.636 11.7065 31.1985 12.2549C31.8313 12.8596 32.0282 12.9299 32.3797 12.6557C32.5204 12.5432 32.5625 12.4518 32.5625 12.2268C32.5625 11.9737 32.5133 11.8963 32.0563 11.4253C31.7821 11.144 31.3883 10.7924 31.1774 10.6448C30.9735 10.5042 30.8047 10.3776 30.8047 10.3565C30.8047 10.3354 31.0508 10.0682 31.3532 9.75182C31.9368 9.1401 32.3516 8.56354 32.3516 8.36666C32.3516 7.92369 31.8594 7.60026 31.4938 7.81119Z" fill="#2E37A4"/>
<path d="M16.7779 25.5932C16.2576 25.7409 15.6529 26.0502 15.435 26.2682C15.224 26.4862 15.21 26.8799 15.4069 27.0768C15.6248 27.2948 15.8639 27.3229 16.1592 27.1541C17.0522 26.6479 17.7201 26.5073 18.5147 26.6409C18.9998 26.7252 19.2951 26.8377 19.8576 27.1541C20.1529 27.3229 20.392 27.2948 20.61 27.0768C20.8069 26.8799 20.7928 26.4862 20.5819 26.2682C20.3498 26.0362 19.6678 25.7057 19.1545 25.5721C18.5709 25.4174 17.3334 25.4315 16.7779 25.5932Z" fill="#2E37A4"/>
</g>
<defs>
<clipPath id="clip0_314_314597">
<rect width="36" height="36" fill="white"/>
</clipPath>
</defs>
</svg>
