<svg width="24" height="33" viewBox="0 0 24 33" fill="none" xmlns="http://www.w3.org/2000/svg">
<path d="M6.83021 0.260456L6.64153 0.441587V3.45291C6.64153 6.35857 6.64907 6.47178 6.79247 6.66046C6.92832 6.82649 6.93587 6.89442 6.86794 7.18121C6.83021 7.36234 6.79247 8.35857 6.79247 9.39253V11.2869L6.51323 11.385C6.13587 11.5208 5.63021 12.0039 5.42643 12.434C5.2604 12.7737 5.2453 12.8793 5.22266 14.7284L5.19247 16.668L3.05662 16.6906L0.920773 16.7133L0.724547 16.8944L0.52832 17.0756V24.3888V31.702L0.717 31.8831L0.898132 32.0718H12H23.1019L23.283 31.8831L23.4717 31.702V24.3888V17.0756L23.2755 16.8944L23.0793 16.7133L20.9434 16.6906L18.8076 16.668L18.7774 14.7284C18.7547 12.9472 18.7396 12.7586 18.5962 12.4416C18.3925 12.0039 17.9547 11.5661 17.5321 11.3774L17.2076 11.234V9.78498C17.2076 8.10196 17.2302 8.17744 16.4302 7.26423L15.917 6.67555L15.9245 3.55857V0.449135L15.7434 0.260456L15.5547 0.0717773H11.283H7.01134L6.83021 0.260456ZM14.5661 1.95857V2.48687H11.283H8.00002V1.95857V1.43027H11.283H14.5661V1.95857ZM14.5661 4.56234V5.58121H11.283H8.00002V4.56234V3.54347H11.283H14.5661V4.56234ZM15.2151 7.59631C16.2264 8.70574 16.151 8.50951 16.151 9.97366V11.2416H15.7736H15.4038L15.3812 10.7057C15.3585 10.2152 15.3359 10.1472 15.1547 10.0114C15.0264 9.91329 14.8981 9.8831 14.7774 9.91329C14.3698 10.0189 14.3774 9.95102 14.3396 12.1774C14.3019 14.2454 14.3019 14.2529 14.1208 14.4416C13.8566 14.7208 13.4642 14.7057 13.0944 14.4114C12.7245 14.1171 12.4906 14.1246 12.0755 14.4567C11.6755 14.7737 11.5095 14.7586 11.0717 14.3586C10.8378 14.1472 10.7321 14.102 10.5736 14.1397C10.4679 14.1623 10.1962 14.2076 9.97738 14.2303L9.58492 14.2831L9.21511 13.8831C8.89813 13.5435 8.80756 13.4831 8.49813 13.4529C8.23398 13.4227 8.10568 13.3623 7.99247 13.2114C7.84153 13.0227 7.84153 12.9472 7.87172 10.2605C7.88681 8.38121 7.92455 7.41517 7.99247 7.21895L8.08304 6.9397H11.351H14.6189L15.2151 7.59631ZM17.117 12.4491C17.2528 12.5322 17.4264 12.7057 17.5095 12.8416C17.6453 13.0756 17.6604 13.2265 17.6604 14.8793V16.6756H17.283H16.9057V15.0227C16.9057 13.468 16.8981 13.3623 16.7472 13.1737C16.6038 12.9925 16.551 12.9774 16.0302 12.9774H15.4717V12.6378V12.2982H16.1736C16.7321 12.2982 16.9132 12.3284 17.117 12.4491ZM6.79247 12.9623C6.79247 13.2491 6.8453 13.4982 6.94341 13.6944C7.07926 13.9586 7.09436 14.1397 7.09436 15.3322V16.6756H6.717H6.33209L6.35473 14.8039C6.37738 13.1284 6.39247 12.9171 6.52077 12.7284C6.72455 12.4265 6.79247 12.4793 6.79247 12.9623ZM15.7736 15.3925V16.6756H12H8.22643V15.6039V14.5322L8.51323 14.8039C8.96606 15.234 9.2453 15.3472 9.88681 15.3548C10.3095 15.3548 10.5359 15.4001 10.7925 15.5284C11.3208 15.7774 11.7359 15.8076 12.2642 15.634C12.6793 15.4906 12.7245 15.4906 12.9434 15.6039C13.3132 15.8001 14.083 15.7699 14.4906 15.5435C14.9057 15.3095 15.3057 14.7963 15.3661 14.4039C15.4113 14.1548 15.4415 14.1095 15.5925 14.1095H15.7736V15.3925ZM21.9925 18.1623C21.9774 18.2378 21.6378 19.8605 21.2453 21.7699C20.8528 23.6793 20.4755 25.385 20.4151 25.5586C20.2415 26.0114 19.7585 26.5246 19.2604 26.7661L18.8302 26.9774H12H5.16983L4.73964 26.7661C4.24153 26.5246 3.75851 26.0114 3.58492 25.5586C3.52455 25.385 3.14719 23.6793 2.75474 21.7699C2.36228 19.8605 2.02266 18.2378 2.00757 18.1623C1.97738 18.0416 2.49058 18.034 12 18.034C21.5095 18.034 22.0227 18.0416 21.9925 18.1623ZM2.21889 24.6529C2.52077 26.0793 2.75474 26.585 3.36606 27.1661C3.86417 27.6416 4.55096 27.9661 5.2453 28.0718C5.53964 28.1095 6.74719 28.1472 7.93209 28.1472H10.0906L10.1359 28.4416C10.2113 29.0529 10.6491 29.634 11.2076 29.8906C11.6679 30.102 12.4 30.0793 12.883 29.8454C13.4415 29.5661 13.8868 28.8944 13.8868 28.3284V28.1472H16.0604C17.2528 28.1472 18.4679 28.1095 18.7547 28.0718C19.4491 27.9661 20.1359 27.6416 20.634 27.1661C21.2453 26.585 21.4793 26.0793 21.7811 24.6529C21.9245 23.9812 22.0528 23.3925 22.0755 23.3548C22.0906 23.3095 22.1057 24.9548 22.1057 26.9925L22.1132 30.7133H12H1.88681L1.89436 26.9925C1.89436 24.9548 1.90945 23.3095 1.92455 23.3548C1.94719 23.3925 2.07549 23.9812 2.21889 24.6529ZM12.7245 28.351C12.6642 28.6001 12.3698 28.8793 12.1057 28.9472C11.7359 29.0378 11.3434 28.7661 11.2076 28.3133C11.1623 28.1472 11.1623 28.1472 11.9623 28.1472H12.7698L12.7245 28.351Z" fill="white"/>
<path d="M11.7359 19.3322C11.6529 19.3775 11.5623 19.453 11.5321 19.4983C11.5019 19.5435 11.4717 20.0643 11.4717 20.653V21.7322H10.3925C9.16985 21.7322 9.05664 21.7775 9.05664 22.2756C9.05664 22.736 9.18494 22.7888 10.4 22.7888H11.4717V23.8756C11.4717 24.9624 11.4717 24.97 11.668 25.1209C11.9246 25.3171 12.0755 25.3171 12.3321 25.1209C12.5283 24.97 12.5283 24.9624 12.5283 23.8756V22.7888H13.6076C14.8302 22.7888 14.9434 22.7435 14.9434 22.2454C14.9434 21.785 14.8151 21.7322 13.6 21.7322H12.5283V20.653C12.5283 20.0643 12.4981 19.5435 12.468 19.4983C12.4 19.3926 12.1132 19.2417 11.9849 19.2417C11.9321 19.2417 11.8189 19.2869 11.7359 19.3322Z" fill="white"/>
</svg>
