<svg width="36" height="36" viewBox="0 0 36 36" fill="none" xmlns="http://www.w3.org/2000/svg">
<g clip-path="url(#clip0_314_314490)">
<path d="M5.73048 0.682079C4.93594 0.794582 3.81094 1.17427 3.53673 1.42739C3.31173 1.62427 3.31876 1.98989 3.55079 2.21489C3.76876 2.43989 3.88829 2.43286 4.51407 2.18677C5.3086 1.86333 6.0961 1.72974 6.89063 1.77896C8.09298 1.84927 9.07032 2.22192 10.0617 2.97427C11.2149 3.85317 12.0094 4.37349 12.7617 4.73911C13.8656 5.28052 14.0274 5.32974 14.2594 5.19614C14.5406 5.04146 14.6602 4.75317 14.5547 4.49302C14.4844 4.32427 14.3227 4.2188 13.718 3.93052L12.9727 3.57896L13.1484 3.43833C13.4719 3.18521 14.7234 2.60864 15.3422 2.43286C17.8945 1.70161 20.7422 2.05317 22.8094 3.36099L23.0906 3.53677L22.5633 3.79692C21.8883 4.14146 21.0164 4.4438 20.1375 4.64771C19.5188 4.79536 19.2656 4.80943 17.775 4.81646C16.6922 4.81646 16.0805 4.84458 16.0313 4.8938C15.8906 5.03442 15.8274 5.39302 15.9188 5.56177C16.0664 5.85708 16.3266 5.92739 17.55 5.96255C19.7086 6.02583 21.3328 5.6813 23.2383 4.73911C23.9977 4.37349 24.7852 3.85317 25.9383 2.97427C27.0492 2.12349 28.0195 1.79302 29.3906 1.79302C30.7336 1.79302 31.6688 2.10942 32.7445 2.92505C34.9805 4.62661 35.55 7.89614 34.0242 10.2375L33.743 10.6805L33.1875 10.104L32.632 9.53442L32.9766 9.16177C33.3984 8.70474 33.6586 8.16333 33.7992 7.46724C34.1649 5.6813 32.8711 3.66333 30.9164 2.96724C30.5156 2.82661 30.2344 2.78442 29.5594 2.7563C28.1953 2.70708 27.3375 3.00943 26.2266 3.93052C25.0594 4.8938 24.6305 5.19614 23.7305 5.69536C22.6688 6.27896 22.3664 6.54614 22.057 7.17192L21.832 7.62896L21.7899 9.70317C21.7406 11.9672 21.7055 12.2344 21.2906 13.043C21.0375 13.5493 20.9109 13.7391 20.4117 14.3579C19.8422 15.068 19.3852 15.8696 19.1391 16.6008C18.9 17.325 18.7313 18.3727 18.8016 18.661C18.9 19.0477 19.575 19.1602 19.7859 18.8227C19.8422 18.7383 19.9055 18.4782 19.9336 18.2461C20.0531 17.1422 20.4891 16.1227 21.2555 15.1524C22.1203 14.0485 22.4227 13.5141 22.718 12.5016C22.8516 12.0446 22.8727 11.7563 22.9149 9.94927C22.9641 7.67114 22.9781 7.57271 23.4774 7.16489L23.7305 6.96099L23.7516 9.29536C23.7656 10.7438 23.7445 11.8547 23.6953 12.1993C23.5406 13.3102 23.2031 14.2032 22.5281 15.2719C21.4242 17.0227 21.2203 18.8719 21.9024 20.8899C22.0008 21.1782 22.1133 21.5297 22.1414 21.6774C22.1977 21.9094 22.1906 21.9446 22.0922 21.9024C21.4875 21.6704 20.8195 21.8532 20.3625 22.3735C20.1867 22.5704 20.018 22.704 19.9758 22.6829C19.9266 22.6477 19.8984 22.3032 19.8984 21.6985C19.8984 20.8547 19.8844 20.7422 19.7508 20.5735C19.5539 20.3274 19.1461 20.3204 18.9211 20.5594C18.7664 20.7211 18.7664 20.7633 18.7875 21.8813C18.8086 23.0344 18.8086 23.0415 19.0125 23.3016C19.3641 23.7657 20.0391 23.9555 20.5524 23.7375C20.6789 23.6883 20.925 23.4844 21.1008 23.2805C21.2836 23.0836 21.4734 22.9219 21.5367 22.9219C21.6774 22.9219 22.057 23.2454 22.1133 23.4071C22.1414 23.4915 22.0008 23.7586 21.7055 24.2016C21.2625 24.8696 20.8828 25.7133 20.7281 26.3672C20.6508 26.7118 20.6367 26.7258 20.2922 26.8313C19.7367 26.993 18.6609 27.1407 17.9649 27.1407C16.8961 27.1407 15.3774 26.8172 14.618 26.4305C14.3156 26.2829 14.2594 26.1493 14.0274 25.1368C13.7742 24.0118 13.7461 23.6883 13.8797 23.4352C14.0063 23.1891 14.3086 22.9219 14.4633 22.9219C14.5195 22.9219 14.7164 23.0766 14.8922 23.2735C15.4125 23.829 15.9188 23.9625 16.4953 23.7024C16.657 23.6321 16.875 23.4493 16.9875 23.3016L17.1914 23.0415L17.2125 20.7141C17.2336 18.2743 17.1914 17.6555 16.9313 16.8118C16.7344 16.1579 16.2984 15.3 15.8906 14.7657C15.1242 13.7532 14.9133 13.4438 14.7024 13.043C14.2945 12.2344 14.2594 11.9672 14.2102 9.70317L14.168 7.62896L13.943 7.17192C13.6336 6.54614 13.3313 6.27896 12.2695 5.69536C11.3695 5.19614 10.9406 4.8938 9.77345 3.93052C8.66251 3.00943 7.80469 2.70708 6.44063 2.7563C5.7586 2.78442 5.48438 2.82661 5.07657 2.96724C3.76876 3.4313 2.7211 4.50708 2.27813 5.83599C2.09532 6.38442 2.10938 7.41099 2.31329 7.97349C2.4961 8.48677 2.79141 8.95083 3.15001 9.30239L3.42423 9.56958L2.85469 10.1321L2.29219 10.6946L2.17266 10.5329C1.86329 10.1321 1.58204 9.58364 1.38516 9.02114C1.08985 8.16333 1.04063 6.94692 1.2586 6.03286C1.42032 5.3438 1.81407 4.51411 2.24298 3.93755C2.57344 3.49458 2.62266 3.18521 2.3836 2.94614C2.27813 2.84068 2.17266 2.81255 1.94766 2.82661C1.68751 2.84771 1.62423 2.88989 1.32188 3.26958C0.900007 3.78989 0.40782 4.77427 0.196882 5.51958C0.0562572 6.01177 0.0351634 6.23677 0.0421947 7.31255C0.0421947 8.45161 0.0562572 8.59224 0.23907 9.17583C0.471101 9.93521 0.85782 10.7016 1.35704 11.3555L1.72266 11.8477V12.6915C1.72969 13.4016 1.75079 13.5985 1.88438 13.936C2.25704 14.8571 3.00235 15.5602 3.98673 15.9047C4.67579 16.1368 5.99766 16.1368 6.71485 15.9047C7.38985 15.6797 8.0086 15.3211 8.48673 14.8782C8.84532 14.5477 8.93673 14.4985 9.28126 14.4633C9.9211 14.386 10.6102 14.175 11.4328 13.8094C11.475 13.7883 11.5453 13.9008 11.5945 14.0555C11.693 14.386 12.1992 15.3915 12.6774 16.2071C13.2047 17.093 13.3242 17.5711 13.3172 18.7032C13.3172 19.6172 13.3031 19.6805 13.0219 20.5524C12.4242 22.3735 12.4313 23.2032 13.0711 26.086C14.8219 34.0032 14.8781 34.2352 15.0399 34.411C15.2508 34.636 16.0875 35.0438 16.6641 35.2055C17.3742 35.3954 18.7172 35.3813 19.4063 35.1633C20.032 34.9665 20.7984 34.5938 20.9813 34.3899C21.0656 34.2985 21.1992 33.8555 21.3539 33.1735C21.4875 32.5829 21.6 32.0907 21.6141 32.0836C21.6211 32.0696 21.7547 32.2383 21.9024 32.4563C22.2891 33.0118 23.3016 33.9399 23.9484 34.3266C24.6305 34.7274 25.2 34.9594 26.0016 35.1704C26.8734 35.3954 28.4484 35.3954 29.3414 35.1704C32.0133 34.5024 34.0242 32.4915 34.6781 29.8336C34.8539 29.0954 34.8961 27.5133 34.7484 26.8243C34.1578 24.0821 32.2875 22.05 29.6367 21.2625C28.7367 21.0024 27.1969 20.9461 26.2195 21.15C25.4109 21.3188 24.532 21.6633 23.9063 22.0641C23.6602 22.2188 23.4422 22.3454 23.4352 22.3313C23.4281 22.3243 23.3719 22.0711 23.3156 21.7758C23.2594 21.4735 23.0906 20.8758 22.95 20.4399C22.6969 19.6946 22.6828 19.6032 22.6828 18.7032C22.6758 17.5711 22.7953 17.093 23.3227 16.2071C23.8008 15.3915 24.307 14.386 24.4055 14.0555C24.4547 13.9008 24.525 13.7883 24.5672 13.8094C25.418 14.1891 26.1 14.393 26.7539 14.4633C27.1266 14.4985 27.218 14.5407 27.5063 14.8079C28.3641 15.6024 29.3344 16.0172 30.4875 16.0805C32.0063 16.1649 32.8711 15.729 32.5266 15.054C32.3719 14.7657 32.1399 14.7165 31.5984 14.8571C30.4313 15.1735 29.1375 14.8079 28.2516 13.9149C26.9508 12.6141 27.1055 10.8422 28.5961 10.111C29.2219 9.80864 30.1149 9.75239 30.8461 9.97036C31.7672 10.2516 32.618 10.9688 33.0258 11.7985C33.2086 12.1641 33.2227 12.2696 33.2227 12.9797C33.2227 13.6547 33.2438 13.7883 33.3563 13.9149C33.525 14.0977 33.8836 14.1118 34.0945 13.936C34.3547 13.7321 34.4672 12.7969 34.3125 12.129C34.2563 11.8829 34.2703 11.8266 34.4109 11.6719C34.9313 11.1094 35.5289 9.97036 35.8031 9.02818C35.9438 8.54302 35.9649 8.31099 35.9649 7.27739C35.9649 5.88521 35.8594 5.39302 35.332 4.32427C33.8344 1.27974 30.2836 -0.11948 27.0633 1.05474C26.2828 1.33599 25.7414 1.65239 24.8906 2.32036C24.4969 2.62974 24.1594 2.88286 24.1453 2.88286C24.1383 2.88286 23.9203 2.74224 23.6813 2.57349C22.725 1.90552 21.3258 1.35005 19.9336 1.07583C19.0547 0.907082 17.0156 0.907082 16.1367 1.07583C14.7445 1.35005 13.3453 1.90552 12.3891 2.57349C12.15 2.74224 11.918 2.88286 11.8828 2.88286C11.8547 2.88286 11.5172 2.63677 11.1375 2.34146C9.93516 1.39224 8.81719 0.878956 7.57266 0.710205C7.03829 0.632862 6.16641 0.625832 5.73048 0.682079ZM7.73438 4.03599C8.32501 4.23989 8.59923 4.41567 9.51329 5.18911C9.9211 5.54067 10.4484 5.94849 10.6805 6.09614L11.1094 6.36333V8.44458V10.5258L10.8141 10.7579C10.6594 10.8844 10.3641 11.0813 10.1742 11.1868L9.81563 11.3766L9.68907 10.9899C9.31641 9.90005 8.46563 9.13364 7.27032 8.82427C6.71485 8.68364 5.6461 8.69771 5.04141 8.85239L4.56329 8.97896L4.30313 8.78911C3.7336 8.36724 3.36094 7.76255 3.26954 7.10161C3.12188 6.08208 3.96563 4.76724 5.13282 4.19067C5.9836 3.77583 6.82032 3.72661 7.73438 4.03599ZM30.3399 3.97271C31.7109 4.35239 32.8992 5.89927 32.7305 7.10161C32.6602 7.60786 32.3156 8.24771 31.9149 8.6063C31.5141 8.96489 31.5 8.96489 30.9024 8.82427C30.3469 8.69067 29.3133 8.69067 28.793 8.82427C27.6047 9.13364 26.557 10.1321 26.332 11.1586C26.3109 11.2852 26.2688 11.3907 26.2547 11.3907C26.1563 11.3907 25.5797 11.0532 25.2633 10.8141L24.8906 10.5329V8.44458V6.36333L25.3195 6.09614C25.5516 5.94849 26.0789 5.54067 26.4867 5.18911C27.3445 4.46489 27.6258 4.27505 28.1391 4.07114C28.8281 3.79692 29.5805 3.7688 30.3399 3.97271ZM12.7828 7.43911C12.8531 7.54458 12.9445 7.69224 12.9727 7.76958C13.0078 7.84692 13.057 8.82427 13.0852 9.94927C13.1203 11.7563 13.1484 12.0446 13.282 12.5157C13.5 13.261 13.9219 14.0907 14.3719 14.6602C15.3633 15.9188 15.7781 16.7063 15.9891 17.7329C16.1297 18.4008 16.1578 22.5985 16.0242 22.6829C15.982 22.704 15.8133 22.5704 15.6375 22.3735C15.1805 21.8532 14.5125 21.6704 13.9078 21.9024C13.8094 21.9446 13.8024 21.9094 13.8586 21.6774C13.8867 21.5297 13.9992 21.1782 14.0977 20.8899C14.7797 18.8719 14.5758 17.0227 13.4719 15.2719C12.818 14.2313 12.4734 13.3383 12.3117 12.2555C12.2695 11.9743 12.2344 10.7016 12.2344 9.35161V6.95396L12.4453 7.10161C12.5578 7.17896 12.7125 7.33364 12.7828 7.43911ZM7.38282 10.0618C8.72579 10.6805 9.09844 12.0938 8.26876 13.3876C7.67813 14.3157 6.45469 14.9766 5.34376 14.9766C4.12032 14.9766 3.12188 14.2875 2.88282 13.2821C2.61563 12.1782 3.41719 10.793 4.66876 10.2024C5.28751 9.90005 5.56173 9.85083 6.32813 9.86489C6.86954 9.87896 7.06641 9.92114 7.38282 10.0618ZM11.1656 12.4313C11.1445 12.6844 11.1305 12.6985 10.6102 12.9165C10.3149 13.043 9.97735 13.1696 9.85782 13.1907L9.64688 13.2329L9.72423 12.9094C9.8086 12.593 9.83673 12.5719 10.2094 12.4172C10.4203 12.3258 10.7086 12.1922 10.8352 12.1149C11.1234 11.9461 11.2008 12.0235 11.1656 12.4313ZM25.9524 12.4805C26.2125 12.5719 26.2899 12.6352 26.325 12.7829C26.3461 12.8883 26.3813 13.043 26.4094 13.1274L26.4516 13.2891L26.0789 13.1766C25.868 13.1204 25.5024 12.9797 25.2633 12.8672C24.8414 12.6774 24.8203 12.6493 24.8203 12.4172C24.8203 11.9672 24.8625 11.9461 25.2633 12.1711C25.4672 12.2836 25.7766 12.4243 25.9524 12.4805ZM28.9055 22.2469C31.1273 22.718 32.9414 24.4547 33.5461 26.6907C33.75 27.4219 33.7641 28.8493 33.5813 29.5313C33.0609 31.5 31.7953 32.9977 30.0164 33.7571C25.8399 35.536 21.2133 32.1188 21.6633 27.5766C21.825 25.9875 22.6406 24.4829 23.8922 23.4774C24.518 22.9711 25.5024 22.479 26.2617 22.2961C26.9508 22.1274 28.2305 22.1063 28.9055 22.2469ZM16.1367 28.0899C17.2688 28.329 19.125 28.3008 20.1516 28.0266L20.5031 27.9352L20.5172 28.4696C20.5242 28.7649 20.5594 29.1586 20.5945 29.3415C20.6649 29.7352 20.693 29.7141 19.793 29.9602C18.4359 30.3258 16.868 30.2485 15.5039 29.7352C15.3 29.6579 15.0961 29.5524 15.0539 29.5032C15.0117 29.454 14.8852 29.018 14.7797 28.5329L14.5828 27.654L15.075 27.8157C15.3492 27.9 15.8274 28.0266 16.1367 28.0899ZM16.4742 31.1836C17.5992 31.4016 19.4695 31.2961 20.3906 30.9727C20.5664 30.9094 20.6719 30.9024 20.6719 30.9446C20.6719 30.9868 20.5383 31.6125 20.3836 32.3438L20.0883 33.6657L19.6945 33.8485C18.5695 34.3477 17.4305 34.3618 16.3758 33.8766L15.9047 33.6657L15.6164 32.3227C15.4547 31.5774 15.3281 30.9516 15.3281 30.9235C15.3281 30.8954 15.4547 30.9165 15.6094 30.9727C15.7711 31.029 16.1578 31.1204 16.4742 31.1836Z" fill="#2E37A4"/>
<path d="M26.1771 24.1314C25.9381 24.2439 25.8748 24.5532 25.8748 25.5306V26.4376H24.8693C23.4771 26.4376 23.5545 26.3321 23.5545 28.1884C23.5545 29.6017 23.5545 29.6087 23.7303 29.7774C23.892 29.9462 23.9342 29.9532 24.8834 29.9532H25.8607L25.8889 30.9657C25.917 32.372 25.7834 32.2735 27.6748 32.2735H29.1725L29.3131 32.0907C29.4467 31.922 29.4607 31.8095 29.4607 30.9306V29.9532H30.4381C31.317 29.9532 31.4295 29.9392 31.5982 29.8056L31.781 29.6649V28.1884C31.781 26.311 31.8795 26.4376 30.4803 26.4376H29.4607V25.4181C29.4607 24.4196 29.4537 24.3845 29.285 24.2228C29.1162 24.047 29.1092 24.047 27.724 24.054C26.8943 24.054 26.2685 24.0892 26.1771 24.1314ZM28.3357 26.1634C28.3357 26.7048 28.3639 27.211 28.406 27.2814C28.5185 27.4923 28.8701 27.5626 29.7842 27.5626H30.656V28.1954V28.8282H29.6717C28.7154 28.8282 28.6732 28.8353 28.5115 29.004C28.3428 29.1657 28.3357 29.2009 28.3357 30.1993V31.2189H27.6678H26.9998V30.1712V29.1165L26.817 28.9759C26.6482 28.8423 26.5357 28.8282 25.6568 28.8282H24.6795V28.2024V27.5767L25.692 27.5485C27.0631 27.5204 26.9998 27.5837 26.9998 26.2126V25.172H27.6678H28.3357V26.1634Z" fill="#00D3C7"/>
</g>
<defs>
<clipPath id="clip0_314_314490">
<rect width="36" height="36" fill="white"/>
</clipPath>
</defs>
</svg>
