<svg width="36" height="36" viewBox="0 0 36 36" fill="none" xmlns="http://www.w3.org/2000/svg">
<g clip-path="url(#clip0_314_314520)">
<path d="M25.1008 0.133667C24.5101 0.323509 24.1304 0.541479 23.7086 0.942261C23.2445 1.3782 22.8367 1.98289 22.7101 2.41882C22.6398 2.66492 22.5906 2.73523 22.5062 2.71414C22.1687 2.60867 20.889 2.38367 20.2281 2.31335C19.5039 2.23601 19.4547 2.23601 19.2789 2.3696C19.1383 2.47507 19.082 2.58054 19.0679 2.79148C19.0398 3.18523 19.2437 3.33992 19.8765 3.4032C20.7273 3.48757 22.3867 3.80398 22.4851 3.89538C22.4922 3.90945 22.5344 4.09929 22.5765 4.33132C22.9633 6.48289 25.2906 7.82585 27.3859 7.10163C27.6109 7.02429 27.8781 6.91179 27.9695 6.84851C28.1172 6.75007 28.1523 6.75007 28.314 6.85554C28.6375 7.07351 30.1703 8.59929 30.6344 9.17585C32.5469 11.5454 33.7633 14.4774 34.0937 17.5009C34.1781 18.2743 34.2906 18.4501 34.6984 18.4501C35.0992 18.4501 35.2469 18.2462 35.2328 17.7118C35.1976 16.1298 34.5086 13.5915 33.6156 11.7634C32.5961 9.67507 31.4289 8.12117 29.6922 6.53913L29.0453 5.94851L29.1719 5.77273C29.6148 5.13992 29.8258 4.43679 29.8187 3.58601C29.8117 1.98289 28.7992 0.604759 27.2875 0.140697C26.7039 -0.0421143 25.6492 -0.0421143 25.1008 0.133667ZM27.2734 1.37117C28.1875 1.8282 28.7008 2.65789 28.6937 3.66335C28.6867 5.27351 27.0765 6.51804 25.5508 6.08914C23.6101 5.53367 22.9984 3.19226 24.4398 1.8282C24.6508 1.63132 24.9672 1.40632 25.15 1.32195C25.8109 1.03367 26.6406 1.04773 27.2734 1.37117Z" fill="#2E37A4"/>
<path d="M24.8969 2.64374C24.7282 2.85467 24.7141 3.00936 24.8266 3.26249C24.9883 3.61405 25.5508 3.66327 25.7688 3.35389C25.9164 3.13592 25.9024 2.7703 25.7336 2.60155C25.5157 2.38358 25.0797 2.41171 24.8969 2.64374Z" fill="#2E37A4"/>
<path d="M16.6637 2.29925C9.85045 2.97425 4.04263 7.83284 2.15123 14.4211C1.36373 17.1914 1.27935 20.2711 1.91919 22.9289L2.08091 23.5969L1.77857 23.7235C1.30044 23.9203 0.759038 24.4617 0.519976 24.975C0.351226 25.3547 0.323101 25.5094 0.323101 26.0157C0.31607 26.5219 0.351226 26.6766 0.512945 27.0352C0.76607 27.5836 1.24419 28.0617 1.7856 28.3078C2.35513 28.575 3.21998 28.5891 3.75435 28.35C3.94419 28.2657 4.10591 28.2024 4.11294 28.2094C4.50669 28.8633 5.48404 30.0938 6.22232 30.8602C8.71841 33.4547 11.9247 35.1492 15.5739 35.7961C16.6356 35.986 19.0262 36.0563 20.1934 35.9367C22.9004 35.6485 25.4598 34.7274 27.7661 33.2086L28.4973 32.7235L28.7715 33.2719C29.8965 35.5149 32.8356 35.986 34.6356 34.2071C35.3106 33.5461 35.7184 32.5407 35.7184 31.5774C35.7184 31.1344 35.5426 30.4383 35.3176 29.9672C34.9239 29.1516 33.7919 28.2305 32.9973 28.0828L32.7723 28.0407L32.9551 27.7524C33.6864 26.5992 34.6286 24.1805 34.9379 22.6617C35.1489 21.6422 35.2965 20.2641 35.2262 20.0672C35.1489 19.8774 34.952 19.7578 34.6989 19.7578C34.27 19.7578 34.1575 19.9688 34.0731 20.918C33.8973 22.8516 33.0747 25.2774 31.9708 27.1617C31.1481 28.5539 29.7559 30.1852 28.4762 31.2539C26.6833 32.7446 24.2786 33.9469 22.0075 34.4813C20.3833 34.861 18.1965 34.9946 16.6286 34.8047C12.0301 34.2563 7.92388 31.7742 5.35748 27.9985L4.96373 27.4219L5.13248 26.9438C5.64576 25.5164 4.92857 24.0258 3.52935 23.618C3.20591 23.5266 3.21998 23.5477 2.99498 22.5703C2.74185 21.4875 2.64341 20.5594 2.64341 19.1953C2.63638 17.318 2.84732 15.9469 3.38873 14.2805C5.31529 8.35316 10.4551 4.1555 16.6637 3.44534C17.5286 3.34691 17.5567 3.33284 17.6903 3.07972C17.8169 2.8266 17.7747 2.58753 17.5637 2.39066C17.409 2.25003 17.2684 2.23597 16.6637 2.29925ZM3.12857 24.6867C3.97232 24.9188 4.42232 25.868 4.0356 26.6203C3.85279 26.9719 3.38873 27.3235 3.03716 27.3867C2.24966 27.5203 1.40591 26.8102 1.40591 26.0157C1.40591 25.4883 1.84185 24.8977 2.36216 24.7149C2.69966 24.5953 2.77701 24.5883 3.12857 24.6867ZM33.159 29.3555C33.609 29.5735 34.1294 30.1219 34.3544 30.6141C35.0645 32.161 33.9817 33.9891 32.252 34.1508C31.4645 34.2211 30.5504 33.8344 30.0653 33.2157C29.8403 32.9274 29.5379 32.2524 29.5309 32.0274C29.5309 31.936 29.8122 31.6055 30.2762 31.1485C30.684 30.7407 31.2606 30.1149 31.5559 29.7492L32.0903 29.0953L32.4419 29.1375C32.6317 29.1586 32.9551 29.2571 33.159 29.3555Z" fill="#2E37A4"/>
<path d="M31.6049 32.0765C31.2604 32.2594 31.1901 32.618 31.4362 32.9344C31.7315 33.307 32.4135 33.082 32.4135 32.6109C32.4135 32.3297 32.3432 32.2101 32.1252 32.0976C31.8932 31.9711 31.7948 31.9711 31.6049 32.0765Z" fill="#2E37A4"/>
<path d="M17.613 4.99222C16.263 5.26644 15.0537 6.39144 14.7021 7.72034C14.5966 8.10003 14.2169 8.47972 13.8372 8.58519C13.5138 8.66956 13.4716 8.66253 12.5365 8.26878C11.3271 7.7555 10.0263 7.88206 8.91538 8.62737C8.34584 9.00003 7.94506 9.45003 7.66381 10.0196C7.10131 11.1586 7.10131 12.4594 7.66381 13.5703C7.90991 14.0625 7.93803 14.4422 7.74116 14.8289C7.55834 15.1805 7.481 15.2367 6.86225 15.4688C6.12397 15.743 5.74428 15.9821 5.26616 16.4672C4.80913 16.9313 4.41538 17.6485 4.28178 18.2742C4.16225 18.8297 4.23256 19.9125 4.41538 20.4258C4.49975 20.6578 4.71772 21.0586 4.8935 21.3188C5.37866 22.0289 5.94116 22.4367 6.94663 22.8164C7.58647 23.0555 7.81147 23.3157 7.86069 23.8641C7.88178 24.1735 7.85366 24.3 7.67788 24.6516C7.55834 24.8907 7.41069 25.2774 7.34741 25.5305C7.11538 26.4094 7.33334 27.9492 7.74116 28.2797C7.94506 28.4485 8.33178 28.4414 8.50756 28.2657C8.69038 28.0828 8.68334 27.8086 8.50053 27.2602C8.2685 26.5852 8.33178 25.9524 8.71147 25.1086C8.99975 24.4828 9.01381 24.4336 8.98569 23.8782C8.97163 23.4 8.92944 23.2242 8.75366 22.8867C8.47241 22.3313 7.97319 21.9305 7.30522 21.7196C6.51772 21.4664 5.97631 21.0094 5.58959 20.25C5.32944 19.7438 5.26616 18.893 5.44194 18.3375C5.71616 17.4867 6.40522 16.8117 7.29819 16.5164C8.41616 16.1508 8.99975 15.3774 8.99975 14.2594C8.99975 13.8235 8.96459 13.6828 8.70444 13.1203C8.41616 12.5086 8.40209 12.4453 8.40209 11.8125C8.40209 11.2078 8.42319 11.1024 8.62709 10.6735C9.01381 9.85081 9.69584 9.32347 10.6029 9.13362C11.1583 9.01409 11.6787 9.11253 12.4591 9.46409C12.9724 9.70315 13.106 9.73128 13.5701 9.73128C14.6599 9.72425 15.4826 9.09143 15.7919 8.03675C15.9255 7.58675 16.3544 6.92581 16.699 6.65862C18.2037 5.47034 20.3622 6.12425 20.9599 7.94534C21.2763 8.90159 21.8247 9.45003 22.6966 9.67503C23.2943 9.82269 23.7091 9.7594 24.5037 9.40081C25.0872 9.13362 25.1857 9.11253 25.7412 9.1055C26.2966 9.1055 26.381 9.12659 26.8732 9.37268C27.4919 9.67503 27.8997 10.0899 28.188 10.6875C28.3498 11.025 28.3708 11.1657 28.3708 11.7774C28.3708 12.4453 28.3568 12.5086 28.0966 13.0711C27.6537 14.0414 27.6818 14.843 28.1951 15.6164C28.4622 16.0242 28.8068 16.2703 29.4958 16.5235C30.1638 16.7696 30.5294 17.0227 30.874 17.4516C31.8232 18.661 31.5701 20.461 30.3255 21.3117C30.1497 21.4383 29.763 21.6282 29.4748 21.7336C28.8068 21.9797 28.4622 22.2258 28.1951 22.6336C27.6818 23.4071 27.6537 24.2086 28.0966 25.1789C28.3568 25.7414 28.3708 25.8047 28.3708 26.4727C28.3708 27.0844 28.3498 27.225 28.188 27.5625C27.8154 28.343 27.1052 28.9055 26.2333 29.1094C25.699 29.236 25.1716 29.1516 24.4685 28.8282C23.7583 28.5047 23.3716 28.4414 22.8162 28.5399C21.9513 28.7016 21.3044 29.2852 21.0162 30.1641C20.7208 31.0571 20.2568 31.5914 19.4341 31.9711C19.0755 32.1399 18.9349 32.168 18.3865 32.168C17.8099 32.168 17.7044 32.1469 17.2826 31.936C16.4951 31.5492 16.0943 31.0571 15.7146 30.0024C15.363 29.018 14.3013 28.3782 13.2677 28.5117C13.0638 28.5399 12.6701 28.6735 12.3888 28.8071C11.6716 29.1516 11.1091 29.2289 10.4974 29.0813C9.81538 28.9196 9.60444 28.9336 9.42866 29.1516C9.11928 29.5383 9.33725 29.9602 9.93491 30.1219C10.8208 30.375 11.7349 30.3188 12.5435 29.9813C13.4716 29.5875 13.5138 29.5805 13.8302 29.6649C14.231 29.7774 14.5896 30.1289 14.6951 30.5157C14.9412 31.4508 15.7076 32.4 16.5794 32.8571C17.4794 33.3352 18.3865 33.4407 19.3638 33.1875C20.6997 32.85 21.5787 31.9852 22.113 30.4946C22.2677 30.0657 22.549 29.7844 22.9427 29.6719C23.2943 29.5805 23.3997 29.6016 24.0115 29.8828C24.6583 30.1852 25.0029 30.2625 25.7693 30.2555C26.3388 30.2555 26.5708 30.2203 26.9716 30.0797C28.5537 29.5172 29.531 28.1461 29.531 26.4797C29.531 25.7485 29.4255 25.2844 29.1162 24.6446C28.863 24.1172 28.8419 23.85 29.0458 23.4422C29.2005 23.1188 29.4607 22.9219 29.9177 22.7813C30.8318 22.5 31.7177 21.7547 32.1466 20.918C32.463 20.2992 32.5826 19.8 32.5826 19.125C32.5826 17.3953 31.5419 15.9961 29.8333 15.4407C29.4326 15.3071 29.1372 15.0539 28.9966 14.7164C28.849 14.3719 28.8771 14.0977 29.1162 13.6055C29.4255 12.9657 29.531 12.5016 29.531 11.7703C29.531 9.94925 28.3005 8.42347 26.5427 8.05081C25.6427 7.86097 24.8763 7.96643 23.913 8.40237C23.6107 8.53597 23.3013 8.64847 23.224 8.64847C23.1537 8.64847 22.9287 8.56409 22.7248 8.46565C22.3451 8.27581 22.2115 8.0719 21.9021 7.21409C21.6208 6.44065 20.6857 5.51253 19.856 5.20315C19.1177 4.92894 18.3091 4.85159 17.613 4.99222Z" fill="#2E37A4"/>
<path d="M18.7873 7.68518C18.5623 7.92424 18.5763 8.31096 18.8154 8.5008C19.1318 8.7469 19.4834 8.68362 19.6591 8.35315C19.9615 7.77659 19.2302 7.21409 18.7873 7.68518Z" fill="#2E37A4"/>
<path d="M17.2612 9.17578C16.9096 9.52031 17.1557 10.125 17.6479 10.125C17.9362 10.125 18.2104 9.85078 18.2104 9.5625C18.2104 9.27422 17.9362 9 17.6479 9C17.5143 9 17.3666 9.06328 17.2612 9.17578Z" fill="#2E37A4"/>
<path d="M11.0388 11.7774C10.8701 11.9531 10.8701 11.9602 10.9615 12.607C11.0669 13.4016 11.1865 13.5985 11.5872 13.6266C11.9669 13.6547 12.1638 13.4719 12.1638 13.0922C12.1568 12.6492 11.981 11.8899 11.8474 11.7422C11.6576 11.5313 11.2497 11.5524 11.0388 11.7774Z" fill="#2E37A4"/>
<path d="M21.2695 12.4313C20.4539 12.7125 19.8 13.2821 19.4273 14.0485C19.2445 14.4211 19.2305 14.5125 19.2305 15.293C19.2305 16.1086 19.2375 16.1578 19.4555 16.6008C20.5734 18.8649 23.7937 18.8719 24.9047 16.6078C25.1016 16.2071 25.1367 16.0594 25.1578 15.4617C25.1789 14.9485 25.1578 14.6883 25.0664 14.4C24.757 13.4649 24.068 12.7617 23.1469 12.4524C22.6055 12.2696 21.7687 12.2555 21.2695 12.4313ZM22.957 13.5985C23.6742 13.9289 24.0891 14.625 24.0328 15.4125C23.9977 15.9328 23.85 16.2774 23.5055 16.6219C22.7531 17.3742 21.607 17.3742 20.8687 16.6289C20.5172 16.2703 20.3695 15.9399 20.3344 15.4125C20.257 14.3227 21.0938 13.4297 22.1836 13.4297C22.4789 13.4297 22.7109 13.4789 22.957 13.5985Z" fill="#00D3C7"/>
<path d="M15.9677 13.3313C15.7919 13.5563 15.7919 13.5773 15.9255 14.3367C16.0451 15.0328 16.1576 15.1875 16.5373 15.1875C16.8818 15.1875 17.0857 14.9906 17.0857 14.6531C17.0857 14.175 16.924 13.4367 16.7904 13.2891C16.5865 13.0711 16.1505 13.0922 15.9677 13.3313Z" fill="#2E37A4"/>
<path d="M12.9375 16.4391C12.15 16.7063 11.6016 17.1985 11.2219 17.993C11.025 18.4149 11.0039 18.5203 11.0039 19.1321C11.0039 19.7649 11.018 19.8281 11.2711 20.3344C12.1781 22.1696 14.5406 22.486 15.9398 20.9672C16.0312 20.8617 16.2141 20.5735 16.3336 20.3203C16.5445 19.8914 16.5586 19.8141 16.5586 19.125C16.5586 18.443 16.5445 18.3516 16.3406 17.9297C16.0664 17.3461 15.5602 16.8399 14.9906 16.5727C14.407 16.2985 13.5281 16.2422 12.9375 16.4391ZM14.5195 17.5992C15.0961 17.8946 15.4688 18.4992 15.4688 19.125C15.4688 19.6313 15.2859 20.011 14.8852 20.3625C14.3648 20.8266 13.7391 20.9321 13.1484 20.6649C12.4734 20.3625 12.1359 19.8422 12.1359 19.125C12.1359 18.4078 12.4734 17.8946 13.1484 17.5781C13.5141 17.4094 14.175 17.4164 14.5195 17.5992Z" fill="#00D3C7"/>
<path d="M8.68359 17.6133C8.57109 17.7188 8.50781 17.8664 8.50781 18C8.50781 18.1336 8.57109 18.2812 8.68359 18.3867C8.78906 18.4992 8.93672 18.5625 9.07031 18.5625C9.20391 18.5625 9.35156 18.4992 9.45703 18.3867C9.80859 18.0422 9.5625 17.4375 9.07031 17.4375C8.93672 17.4375 8.78906 17.5008 8.68359 17.6133Z" fill="#2E37A4"/>
<path d="M18.7731 18.211C18.5973 18.3867 18.5903 18.7735 18.759 18.9774C18.8223 19.0547 18.977 19.1461 19.1035 19.1672C19.2934 19.2024 19.3637 19.1742 19.5465 18.9985C19.7926 18.7453 19.8137 18.5133 19.6098 18.2531C19.427 18.0211 18.991 17.993 18.7731 18.211Z" fill="#2E37A4"/>
<path d="M25.9734 19.2656C25.7766 19.343 25.5938 19.6031 25.5938 19.8C25.5938 19.8844 25.657 20.032 25.7414 20.1375C25.8539 20.2781 25.9453 20.3203 26.1633 20.3203C26.5148 20.3203 26.7188 20.1305 26.7188 19.8C26.7188 19.3852 26.3391 19.1109 25.9734 19.2656Z" fill="#2E37A4"/>
<path d="M17.9922 22.2188C17.1977 22.3524 16.4664 23.0203 16.2836 23.8008C16.2555 23.9133 16.2344 24.2086 16.2344 24.4547C16.2414 25.2633 16.6703 25.9383 17.4156 26.311C18.5266 26.8524 19.8344 26.4235 20.3688 25.3266C20.5375 24.9891 20.5656 24.8414 20.5586 24.3633C20.5586 23.4563 20.1578 22.8094 19.3844 22.4367C18.8992 22.2117 18.4773 22.1414 17.9922 22.2188ZM18.9625 23.4914C19.2578 23.6742 19.5039 24.1875 19.4477 24.4899C19.3773 24.8625 19.1453 25.1719 18.8219 25.3125C18.4422 25.4883 18.3227 25.4883 17.957 25.3055C17.5563 25.1156 17.3664 24.7992 17.3664 24.3352C17.3664 24.0188 17.4016 23.9414 17.6195 23.6953C18.0133 23.2594 18.4633 23.1891 18.9625 23.4914Z" fill="#00D3C7"/>
<path d="M23.4351 22.9922C23.1187 23.1187 23.0273 23.6602 23.2734 23.9062C23.4914 24.1242 23.9273 24.0961 24.1101 23.8641C24.3 23.625 24.3 23.393 24.1031 23.175C23.9203 22.9711 23.6601 22.9008 23.4351 22.9922Z" fill="#2E37A4"/>
<path d="M11.1444 24.7148C10.7858 25.0664 11.039 25.6641 11.5522 25.6641C12.0444 25.6641 12.2765 25.0664 11.9179 24.7148C11.8124 24.6023 11.6647 24.5391 11.5311 24.5391C11.3976 24.5391 11.2499 24.6023 11.1444 24.7148Z" fill="#2E37A4"/>
<path d="M13.3798 25.2844C13.2322 25.4321 13.2111 25.5094 13.2462 25.7204C13.3587 26.4305 14.3431 26.3602 14.3431 25.643C14.3431 25.1438 13.7455 24.9188 13.3798 25.2844Z" fill="#2E37A4"/>
<path d="M23.6599 25.6289C23.3435 25.9383 23.4138 26.1774 23.9974 26.768C24.588 27.3516 24.8271 27.4219 25.1365 27.1055C25.4529 26.7961 25.3826 26.557 24.799 25.9664C24.2083 25.3828 23.9693 25.3125 23.6599 25.6289Z" fill="#2E37A4"/>
<path d="M18.7727 29.3203C18.5547 29.5383 18.5829 29.9742 18.8149 30.157C19.0258 30.3258 19.1805 30.3399 19.4336 30.2274C19.7852 30.0656 19.8344 29.5031 19.5251 29.2852C19.3071 29.1375 18.9415 29.1516 18.7727 29.3203Z" fill="#2E37A4"/>
</g>
<defs>
<clipPath id="clip0_314_314520">
<rect width="36" height="36" fill="white"/>
</clipPath>
</defs>
</svg>
