<svg width="48" height="49" viewBox="0 0 48 49" fill="none" xmlns="http://www.w3.org/2000/svg">
<path d="M10.8376 1.24366C10.172 1.51553 9.5532 2.09678 9.23445 2.73428C9.0282 3.13741 9.00008 3.33428 9.00008 4.12178V5.04053H7.20008C5.1282 5.04053 4.4157 5.15303 3.56258 5.61241C2.86883 5.97803 1.80945 7.07491 1.46258 7.76866C0.918828 8.88428 0.937578 8.32178 0.937578 23.7437C0.937578 32.3874 0.975078 38.2468 1.03133 38.7905C1.16258 40.0093 1.4907 40.6655 2.4282 41.6124C3.30008 42.4843 4.03133 42.8874 4.99695 43.0093C5.38133 43.0562 10.322 43.103 16.4813 43.103H27.2907L28.2938 44.0124C30.0001 45.5499 31.3032 46.2718 33.3563 46.8343C34.1907 47.0499 34.4157 47.078 36.047 47.078C37.6969 47.078 37.8938 47.0593 38.7657 46.8155C39.8344 46.5249 41.3251 45.8499 42.1969 45.2499C43.6032 44.303 45.0657 42.6343 45.8626 41.078C46.7813 39.2874 47.1095 37.7874 47.0345 35.6968C46.9313 32.7905 45.9376 30.4843 43.8376 28.2249L43.0313 27.3718V18.1468V8.91241L42.7876 8.31241C42.2438 6.98116 41.4188 6.09053 40.1344 5.47178L39.3376 5.09678L37.2938 5.04053C36.1688 5.00303 35.222 4.95616 35.1938 4.92803C35.1657 4.89991 35.1095 4.48741 35.0626 4.02803C34.9688 2.99678 34.7438 2.47178 34.172 1.89991C33.5157 1.23428 33.0376 1.05616 31.9688 1.05616C30.9657 1.05616 30.5907 1.19678 29.897 1.82491C29.2595 2.40616 29.0345 2.95928 28.9876 4.07491L28.9501 5.04053H21.9751H15.0001V4.12178C15.0001 2.98741 14.7938 2.48116 14.072 1.83428C13.1532 1.00928 11.9438 0.784283 10.8376 1.24366ZM12.6845 3.52178L12.9376 3.76553V6.07178V8.37803L12.6657 8.64053C12.4501 8.84678 12.2907 8.91241 12.0001 8.91241C11.7095 8.91241 11.5501 8.84678 11.3345 8.64053L11.0626 8.37803V6.07178V3.76553L11.3251 3.52178C11.7563 3.10928 12.2345 3.10928 12.6845 3.52178ZM32.5126 3.38116C32.8876 3.68116 32.9345 3.99053 32.9345 6.07178C32.9345 8.34991 32.8876 8.54678 32.3345 8.81866C32.0626 8.94991 31.9407 8.95928 31.697 8.87491C31.1438 8.67803 31.097 8.44366 31.097 5.99678C31.097 3.82178 31.097 3.82178 31.322 3.57803C31.697 3.16553 32.1657 3.09053 32.5126 3.38116ZM9.00008 8.02178C9.00008 8.81866 9.0282 9.00616 9.23445 9.41866C10.172 11.303 12.7407 11.7155 14.2126 10.2249C14.7376 9.69053 15.0001 9.05303 15.0001 8.31241C15.0001 7.96553 15.0282 7.55303 15.0563 7.39366L15.122 7.10303H21.9845H28.847L28.9126 7.39366C28.9407 7.55303 28.9688 7.90928 28.9688 8.17178C28.9688 9.32491 29.5876 10.3093 30.6376 10.8249C31.097 11.0499 31.2845 11.0874 32.0157 11.0874C33.0188 11.0874 33.5063 10.8905 34.1626 10.2343C34.7626 9.63428 34.9688 9.13741 35.0626 8.07803C35.1095 7.58116 35.1563 7.15928 35.1845 7.14053C35.2032 7.11241 36.0282 7.13116 36.9938 7.17803C39.0282 7.28116 39.2719 7.34678 39.9751 8.02178C40.6969 8.71553 40.8001 9.04366 40.8844 10.853C40.922 11.7062 40.9594 12.5405 40.9594 12.6999L40.9688 13.0093H21.9845H2.9907L3.05633 11.3874C3.11258 9.75616 3.18758 9.24053 3.4407 8.76241C3.67508 8.30303 4.23758 7.74991 4.72508 7.49678C5.22195 7.24366 5.36258 7.22491 8.51258 7.12178L9.00008 7.10303V8.02178ZM40.9501 20.5093C40.9313 23.4999 40.8938 25.9562 40.8657 25.9843C40.847 26.003 40.3407 25.8624 39.7501 25.6562C38.3813 25.1968 37.2751 25.0093 36.0001 25.0093C32.9251 25.0093 30.2626 26.1343 28.1157 28.3468C27.122 29.378 26.6157 30.0812 26.0626 31.1874C25.0688 33.1843 24.6938 35.6968 25.0782 37.8905C25.1907 38.5468 25.6782 40.1968 25.9407 40.8249C25.9782 40.9187 23.8876 40.9468 15.6657 40.9468H5.34383L4.89383 40.7405C4.3032 40.4593 3.65633 39.7937 3.35633 39.1655L3.11258 38.6499L3.0657 26.8562L3.00945 15.0718H22.0032H40.997L40.9501 20.5093ZM38.1376 27.4468C41.0719 28.1499 43.4813 30.4655 44.5407 33.5874C44.747 34.1968 44.7657 34.3843 44.7657 36.1187L44.7563 37.9937L44.4095 38.9218C43.9501 40.178 43.3219 41.1905 42.4313 42.1374C40.6969 43.9749 38.5407 44.9124 36.0001 44.9218C33.4688 44.9218 31.4907 44.078 29.672 42.2218C27.7595 40.2624 26.972 38.0124 27.197 35.153C27.3563 33.1093 28.2938 31.1968 29.8782 29.6968C31.2657 28.3749 32.9157 27.5499 34.7345 27.2593C35.5407 27.1374 37.2282 27.2312 38.1376 27.4468Z" fill="white"/>
<path d="M8.2497 17.1905C7.7247 17.4155 7.22783 17.9593 7.07783 18.4843C6.8997 19.0843 6.89033 21.1655 7.06845 21.6624C7.25595 22.178 7.6497 22.6374 8.09033 22.8718C8.42783 23.0499 8.68095 23.0874 9.75908 23.1155C11.3997 23.1624 11.8966 23.0405 12.4497 22.4405C12.9841 21.8687 13.0497 21.5499 13.0122 19.8905C12.9841 18.503 12.9747 18.4655 12.7028 18.0249C12.4966 17.6874 12.281 17.4905 11.9153 17.303C11.4278 17.0499 11.3716 17.0405 9.99345 17.0405C8.94345 17.0499 8.49345 17.0874 8.2497 17.1905ZM10.8747 20.078V20.9593L10.4341 21.0155C10.181 21.053 9.79658 21.0437 9.5622 20.9968C9.14033 20.9312 9.14033 20.9218 9.06533 20.4624C9.02783 20.1999 9.01845 19.8155 9.04658 19.5905L9.10283 19.1968H9.99345H10.8747V20.078Z" fill="#00D3C7"/>
<path d="M16.3594 17.1343C15.9375 17.2655 15.4125 17.7437 15.1969 18.1937C15.0188 18.5499 15 18.7749 15 20.0687C15 21.7468 15.0563 21.9718 15.6375 22.553C16.1156 23.0312 16.575 23.1343 18.2438 23.1343C19.4906 23.1343 19.5188 23.1343 19.9125 22.8624C20.475 22.478 20.8875 21.9812 20.9531 21.6062C20.9906 21.4374 21 20.6405 20.9813 19.8437C20.9531 18.4187 20.9438 18.3718 20.6906 17.9968C20.5406 17.7905 20.25 17.4999 20.0438 17.3499C19.6594 17.0874 19.6406 17.0874 18.15 17.0687C17.3156 17.0593 16.5188 17.0874 16.3594 17.1343ZM18.8438 20.078V20.9499L18.3938 21.0062C18.1406 21.0343 17.7656 21.0343 17.5594 21.0062C17.1844 20.9593 17.175 20.9405 17.1094 20.5562C17.0813 20.3312 17.0813 19.9374 17.1188 19.6749L17.1844 19.1968H18.0094H18.8438V20.078Z" fill="#00D3C7"/>
<path d="M24.0849 17.303C23.7192 17.4905 23.5036 17.6874 23.2974 18.0249C23.0255 18.4749 23.0161 18.503 22.988 19.928C22.9505 21.6437 23.0349 21.9718 23.663 22.553C24.2067 23.0499 24.7317 23.1624 26.2974 23.1155C27.6849 23.078 28.0974 22.928 28.5567 22.3374C28.9599 21.803 29.0536 21.4093 29.063 20.1249C29.063 18.6812 28.9317 18.1655 28.4349 17.678C27.8536 17.1155 27.5724 17.0405 25.9786 17.0405C24.638 17.0405 24.563 17.0499 24.0849 17.303ZM26.5505 19.1593C26.8786 19.2155 26.8974 19.2437 26.9442 19.6562C26.9817 19.8905 26.9724 20.2749 26.9349 20.5093C26.8599 20.9218 26.8505 20.9312 26.3911 21.0062C26.1286 21.053 25.7442 21.0624 25.538 21.0249C25.163 20.9687 25.1442 20.9593 25.088 20.5562C25.0505 20.3405 25.0505 19.9374 25.088 19.6749C25.1442 19.2343 25.163 19.2062 25.4442 19.1687C25.9505 19.103 26.1942 19.103 26.5505 19.1593Z" fill="#00D3C7"/>
<path d="M32.2497 17.1905C31.7247 17.4155 31.2278 17.9593 31.0778 18.4843C30.8997 19.0843 30.8903 21.1655 31.0685 21.6624C31.256 22.178 31.6497 22.6374 32.0903 22.8718C32.4278 23.0499 32.681 23.0874 33.7591 23.1155C35.3997 23.1624 35.8966 23.0405 36.4497 22.4405C36.9841 21.8687 37.0497 21.5499 37.0122 19.8905C36.9841 18.503 36.9747 18.4655 36.7028 18.0249C36.4966 17.6874 36.281 17.4905 35.9153 17.303C35.4278 17.0499 35.3716 17.0405 33.9935 17.0405C32.9435 17.0499 32.4935 17.0874 32.2497 17.1905ZM34.8747 20.078V20.9593L34.4341 21.0155C34.181 21.053 33.7966 21.0437 33.5622 20.9968C33.1403 20.9312 33.1403 20.9218 33.0653 20.4624C33.0278 20.1999 33.0185 19.8155 33.0466 19.5905L33.1028 19.1968H33.9935H34.8747V20.078Z" fill="#00D3C7"/>
<path d="M8.14678 25.2718C7.58428 25.5624 7.1624 26.0874 7.03115 26.6593C6.90928 27.1843 6.91865 29.1905 7.0499 29.6124C7.19053 30.0999 7.6874 30.6718 8.18428 30.9062C8.54053 31.0749 8.76553 31.103 10.003 31.103C11.3718 31.103 11.4374 31.0937 11.9155 30.8405C12.2812 30.653 12.4968 30.4562 12.703 30.1187C12.9749 29.678 12.9843 29.6405 13.0124 28.253C13.0499 26.5937 12.9843 26.2749 12.4499 25.703C11.9249 25.1405 11.4562 25.0093 9.88115 25.0093C8.70928 25.0093 8.61553 25.0187 8.14678 25.2718ZM10.528 27.128L10.8749 27.1937V28.0655V28.9468H9.99365H9.1124L9.05615 28.4968C9.01865 28.253 9.02803 27.8687 9.06553 27.6343C9.14053 27.2499 9.16865 27.2124 9.46865 27.1562C9.9374 27.0718 10.1249 27.0624 10.528 27.128Z" fill="#00D3C7"/>
<path d="M16.2375 25.1968C15.7781 25.403 15.3187 25.8624 15.1312 26.2936C15.0375 26.5093 15 27.0155 15 28.0749C15 29.753 15.1031 30.128 15.7312 30.6249C16.275 31.0468 16.6781 31.1218 18.2437 31.0843C19.6406 31.0561 19.6594 31.0561 20.0625 30.7749C20.2781 30.6249 20.5781 30.3343 20.7094 30.128C20.9437 29.7718 20.9531 29.6968 20.9812 28.253C21 27.3343 20.9719 26.6124 20.9156 26.3968C20.8594 26.2093 20.625 25.8624 20.4 25.6374C19.8937 25.1124 19.4719 25.0093 17.8312 25.0093C16.8562 25.0093 16.5656 25.0468 16.2375 25.1968ZM18.4125 27.128L18.8437 27.1936V28.0655V28.9468H18H17.1562V28.0655V27.1749L17.4656 27.1374C17.625 27.1186 17.8125 27.0905 17.8687 27.0905C17.925 27.0811 18.1687 27.0999 18.4125 27.128Z" fill="#00D3C7"/>
<path d="M8.20312 33.203C7.8 33.3811 7.3125 33.8874 7.11563 34.3374C6.975 34.6374 6.9375 34.9561 6.9375 35.903C6.9375 37.5436 7.04063 37.9655 7.56563 38.4718C7.79063 38.6968 8.1375 38.9311 8.325 38.9874C8.54063 39.0436 9.27188 39.0718 10.1906 39.053C11.7 39.0249 11.7 39.0249 12.1031 38.7436C12.3563 38.5655 12.6094 38.2655 12.7781 37.9468C13.0406 37.4311 13.05 37.4311 13.0125 35.9218C12.9844 34.4593 12.975 34.403 12.7219 34.028C12.5813 33.8124 12.2906 33.5218 12.075 33.3811C11.6906 33.1186 11.6531 33.1186 10.0875 33.0905C8.8875 33.0811 8.40938 33.0999 8.20312 33.203ZM10.875 36.0718V36.9155H9.99375H9.12188L9.06563 36.4655C9.0375 36.2124 9.0375 35.8374 9.06563 35.6218L9.12188 35.228H9.99375H10.875V36.0718Z" fill="#00D3C7"/>
<path d="M16.1719 33.2312C15.7594 33.4468 15.5625 33.6343 15.2625 34.0937C15 34.5155 15 34.5249 15 36.0437C15 37.9655 15.1219 38.2749 16.125 38.8749C16.425 39.053 16.5938 39.0718 17.9813 39.0718C19.8938 39.0718 20.2031 38.9499 20.8031 37.9468C20.9813 37.6468 21 37.478 21 36.0905C21 34.178 20.8781 33.8687 19.875 33.2687C19.575 33.0905 19.4062 33.0718 18 33.0718C16.7719 33.0812 16.3969 33.1093 16.1719 33.2312ZM18.9375 36.0718V37.0093H18H17.0625V36.0718V35.1343H18H18.9375V36.0718Z" fill="#00D3C7"/>
<path d="M38.8688 33.0437C38.4 33.4937 37.2375 34.6374 36.2812 35.5749L34.5469 37.2905L33.8906 36.6249C33.525 36.2593 32.9906 35.753 32.6906 35.4999C32.2125 35.0968 32.0906 35.0405 31.7156 35.0405C31.3594 35.0405 31.2469 35.0874 30.975 35.3593C30.7125 35.6218 30.6562 35.753 30.6562 36.0718C30.6562 36.5124 30.75 36.6249 32.8031 38.7155L33.9844 39.9155H34.5469H35.1094L38.175 36.8499L41.25 33.7749V33.3062C41.25 32.8843 41.2125 32.7905 40.9406 32.528C40.6781 32.2749 40.5656 32.228 40.1813 32.228C39.7406 32.228 39.7031 32.2468 38.8688 33.0437Z" fill="#00D3C7"/>
</svg>
