<svg width="36" height="36" viewBox="0 0 36 36" fill="none" xmlns="http://www.w3.org/2000/svg">
<path d="M10.6521 2.34847C9.87864 2.58754 8.98568 3.41019 8.71849 4.12738C8.49349 4.72504 8.53568 5.34379 8.83802 5.80785C9.49193 6.81332 9.83646 7.57269 9.97708 8.32504L10.0333 8.64145L9.39349 9.13363C7.04505 10.9266 5.51927 13.5211 5.13255 16.3829C5.00599 17.2829 5.02708 18.7805 5.16771 19.4414C5.5474 21.2485 6.6513 23.4633 8.17005 25.4743C10.7224 28.8563 14.688 32.3157 17.3036 33.4477C18.6255 34.0172 19.6521 33.7922 21.0021 32.6461C22.9919 30.9446 25.2771 26.5571 26.3669 22.3383C27.1193 19.4204 27.1896 17.3883 26.606 15.5321C26.3036 14.5758 25.5583 13.1977 25.045 12.6352C24.6724 12.2414 23.9763 12.5086 23.9763 13.05C23.9763 13.1204 24.1872 13.486 24.4404 13.8657C24.9466 14.618 25.3826 15.5532 25.6146 16.3829C25.8326 17.1563 25.8255 19.0899 25.6075 20.2993C24.8201 24.6375 22.5419 29.4891 20.299 31.6125C19.3427 32.5196 18.731 32.7235 17.9154 32.4141C16.7763 31.9922 14.8779 30.6282 12.8599 28.793C10.0544 26.2477 7.71302 23.1188 6.79896 20.7071C6.54583 20.0532 6.29271 19.1321 6.34896 19.0829C6.36302 19.0618 6.6724 19.1461 7.03099 19.2657C9.32318 20.0391 11.088 19.7719 12.4169 18.4571C13.3872 17.5008 14.0201 16.3336 15.2505 13.2539C17.149 8.51488 18.3443 6.7641 20.3693 5.74457C21.1849 5.32973 21.8529 5.19613 23.449 5.12582C24.2646 5.09066 25.1083 5.0766 25.3333 5.10473C26.0365 5.18207 26.374 5.61098 26.4724 6.5602C26.5076 6.89067 26.5638 7.08754 26.6552 7.17895C26.831 7.35473 27.281 7.35473 27.499 7.17895C27.6466 7.05941 27.6607 6.99613 27.6466 6.51801C27.6115 5.37191 27.1615 4.54926 26.3458 4.14848L25.8888 3.92348L23.899 3.9516C22.0146 3.97972 21.8599 3.99379 21.2201 4.16254C19.9404 4.50707 18.9068 5.10473 17.9505 6.05395L17.4372 6.56723V5.61098C17.4372 4.75316 17.4232 4.63363 17.2755 4.35238C16.924 3.68441 16.2349 3.37504 15.124 3.37504C14.5755 3.37504 14.3716 3.41019 14.0341 3.55082L13.6122 3.71957L13.5138 3.56488C13.2888 3.23441 12.5857 2.6016 12.2411 2.43285C11.9599 2.28519 11.7911 2.25004 11.4115 2.25707C11.1513 2.25707 10.8068 2.29926 10.6521 2.34847ZM11.4607 3.50863C11.4607 3.66332 11.2286 4.19769 11.074 4.4016C10.8771 4.66176 10.2583 4.99223 9.97005 4.99223C9.80833 4.99223 9.77318 4.9641 9.77318 4.83051C9.77318 4.47191 10.3849 3.75472 10.863 3.54379C11.1021 3.43832 11.4607 3.41722 11.4607 3.50863ZM12.7122 4.63363C12.8036 4.83051 12.8318 5.23832 12.8669 6.51098C12.9091 8.39535 12.9232 8.43754 13.4786 8.43754C14.006 8.43754 14.0622 8.32504 14.0622 7.22113V6.28598L14.7865 6.3141C15.2505 6.32817 15.6302 6.30004 15.8763 6.23676L16.2419 6.13832V7.16488V8.18441L15.6513 9.3516C15.3279 9.99145 14.913 10.8844 14.7232 11.3344C14.5333 11.7914 14.3646 12.1641 14.3435 12.1641C14.3224 12.1641 14.1818 11.8829 14.0411 11.5383C13.3521 9.9141 12.3888 8.83832 11.306 8.47973C11.2286 8.45863 11.1794 8.37426 11.1794 8.26879C11.1794 8.01567 10.849 6.92582 10.6521 6.5391C10.5536 6.34926 10.4763 6.18051 10.4763 6.16644C10.4763 6.14535 10.6732 6.06098 10.9122 5.9766C11.4536 5.77973 12.1357 5.13285 12.3396 4.6266C12.4943 4.26097 12.5505 4.26097 12.7122 4.63363ZM15.9115 4.68988C16.1646 4.81644 16.1083 4.89379 15.6654 5.02738C15.124 5.18207 14.2029 5.13988 14.1888 4.95707C14.1888 4.8516 14.5122 4.63363 14.7724 4.57035C15.0747 4.49301 15.6513 4.55629 15.9115 4.68988ZM11.2357 9.76645C11.9951 10.1602 12.8107 11.4821 13.3802 13.261L13.6333 14.0485L13.2888 14.8149C12.6068 16.3407 11.9247 17.3743 11.2497 17.9086C10.1458 18.7805 8.72552 18.7594 6.69349 17.8524L6.23646 17.6485L6.28568 17.0297C6.4474 14.8219 7.45286 12.6704 9.10521 11.0039C9.73099 10.3782 10.6872 9.63285 10.8771 9.63285C10.9333 9.63285 11.088 9.69613 11.2357 9.76645Z" fill="#2E37A4"/>
<path d="M23.6597 7.41797C22.5769 7.68516 21.1425 8.59922 19.3003 10.1883C18.4214 10.9547 17.9855 11.25 17.7534 11.25C17.3948 11.25 17.2261 11.9531 17.5144 12.2414C17.6409 12.368 17.7253 12.3891 18.0698 12.3609C18.6253 12.3188 18.9839 12.0867 20.3972 10.8633C22.2323 9.26719 23.1253 8.75391 24.405 8.5711C24.9112 8.50079 25.094 8.50079 25.6003 8.59219C26.5495 8.76797 27.4847 9.18985 28.4339 9.86485L28.7714 10.1109L28.455 10.2516C28.0964 10.4133 27.6183 10.8633 27.4917 11.1727L27.4073 11.3766L27.0839 11.1727C26.5636 10.8422 25.9378 10.6805 25.2206 10.6805C24.187 10.6805 23.273 11.0391 22.598 11.7141C22.2253 12.0938 21.8667 12.7125 21.8667 12.9867C21.8667 13.2539 22.162 13.5 22.4925 13.5C22.8019 13.5 22.9284 13.4016 23.1323 13.0078C23.519 12.2484 24.6651 11.7281 25.5933 11.8969C26.2964 12.0234 26.7675 12.3609 27.2386 13.0711C27.6042 13.6336 27.8222 13.8234 28.223 13.9289C29.0386 14.1469 30.0792 13.6195 30.6136 12.7055C30.8105 12.382 31.0073 11.6086 31.0073 11.1797C31.0073 10.6383 30.8808 10.3922 30.2761 9.80157C29.3058 8.85235 27.8714 7.99454 26.5073 7.5586C26.0081 7.38985 25.762 7.35469 24.9956 7.34063C24.3558 7.32657 23.955 7.34766 23.6597 7.41797ZM29.7417 11.3977C29.7417 12.0656 29.0456 12.8813 28.5745 12.7688C28.4269 12.7266 28.4058 12.6844 28.4058 12.4242C28.4128 11.7492 28.8487 11.25 29.4464 11.25C29.6995 11.25 29.7417 11.2711 29.7417 11.3977Z" fill="#2E37A4"/>
<path d="M19.223 13.6477C19.1035 13.7813 19.0894 13.9501 19.0542 15.5743L19.0191 17.3532L17.9996 19.1391L16.98 20.9251L15.848 21.6071C15.2152 21.9797 14.6738 22.2891 14.6316 22.2891C14.5894 22.2891 14.2449 22.0852 13.8652 21.8321C13.3519 21.4876 13.1269 21.3751 12.9371 21.3751C12.8035 21.3751 12.2972 21.5016 11.8121 21.6633C10.7925 21.9938 10.5746 22.1626 10.6449 22.5563C10.7292 23.1188 11.0667 23.1891 12.0581 22.8516C12.4027 22.7391 12.7261 22.6407 12.7753 22.6407C12.8316 22.6407 13.1128 22.8024 13.4011 22.9993C13.7878 23.2594 13.9214 23.386 13.8933 23.4704C13.7808 23.8501 13.4292 25.3196 13.4292 25.418C13.4292 25.4813 13.5066 25.6079 13.605 25.6993C13.816 25.9172 14.28 25.9383 14.4699 25.7485C14.5402 25.6782 14.7019 25.179 14.8566 24.5391L15.1238 23.4493L15.9253 22.9712C16.3613 22.711 16.741 22.5001 16.7621 22.5001C16.7831 22.5001 16.8113 23.829 16.8183 25.4462C16.8394 28.2305 16.8464 28.3993 16.973 28.5399C17.1558 28.7438 17.6621 28.7438 17.8589 28.5469C17.9925 28.4133 17.9996 28.3149 17.9996 26.7399V25.0665L18.9839 26.0508C19.8699 26.9368 19.9894 27.0282 20.2074 27.0282C20.5519 27.0282 20.8121 26.7751 20.8121 26.4446C20.8121 26.2055 20.7136 26.086 19.4058 24.7852L17.9996 23.379V22.479V21.586L18.8855 20.018C19.3777 19.1602 19.8136 18.4149 19.8628 18.3657C19.9331 18.2883 20.0667 18.3305 20.5941 18.5907C20.9456 18.7735 21.2339 18.9282 21.2339 18.9352C21.2339 18.9493 21.1214 19.5118 20.9878 20.1797C20.8542 20.8477 20.7417 21.4454 20.7417 21.4946C20.7417 21.7055 21.0792 21.9376 21.3746 21.9376C21.7964 21.9376 21.8878 21.7969 22.0706 20.8758C22.155 20.4329 22.2464 20.018 22.2675 19.9407C22.2956 19.8352 22.3871 19.8985 22.823 20.3274C23.266 20.7704 23.3714 20.8407 23.5824 20.8407C23.9269 20.8407 24.1871 20.5876 24.1871 20.2501C24.1871 20.018 24.1097 19.9196 23.1535 18.9774C22.1199 17.9719 22.1058 17.9579 21.1847 17.5079L20.2496 17.0579V15.4196C20.2496 13.8727 20.2425 13.7743 20.1089 13.6407C19.9121 13.4438 19.4058 13.4438 19.223 13.6477Z" fill="#00D3C7"/>
</svg>
