<svg width="36" height="36" viewBox="0 0 36 36" fill="none" xmlns="http://www.w3.org/2000/svg">
<path d="M12.4027 0.10548C10.8136 0.471104 9.49879 1.46251 8.71832 2.89688C8.59175 3.12189 8.40894 3.31173 8.09957 3.51564C7.08707 4.19064 6.398 5.28751 6.20113 6.52501L6.08863 7.22814L5.70191 7.31251C4.7316 7.52345 3.69097 8.26173 3.19879 9.10548C2.82613 9.73829 2.67144 10.3078 2.67144 11.0672C2.67144 12.0024 2.9105 12.7125 3.46597 13.4297L3.70504 13.7461L3.19879 14.2875C2.60816 14.9133 2.13004 15.7711 1.89097 16.6359C1.76441 17.0719 1.72925 17.3742 1.72925 18.0352C1.72925 18.9422 1.84879 19.5328 2.15816 20.257L2.32691 20.6438L2.07379 21.0656C1.72925 21.6281 1.60269 22.0641 1.56754 22.8164C1.50425 23.9836 1.86988 24.9399 2.69957 25.7695L3.19879 26.2617L2.93863 26.7891C2.39019 27.893 2.44644 29.2289 3.09332 30.2414C3.3816 30.6914 4.04957 31.3102 4.47144 31.5141C5.17457 31.8727 5.54019 31.957 6.36285 31.95C7.0941 31.95 7.46675 31.8727 8.09254 31.6125C8.17691 31.5703 8.2191 31.6477 8.28941 31.9711C8.61988 33.4406 9.80816 34.8399 11.2988 35.5149C12.1144 35.8875 12.8457 36.0211 13.8863 35.9789C14.3996 35.9649 14.9832 35.8945 15.2222 35.8313C15.9746 35.6274 16.9027 35.1141 17.4793 34.5797L17.9996 34.0875L18.5199 34.5797C19.0964 35.1141 20.0246 35.6274 20.7769 35.8313C21.016 35.8945 21.5996 35.9649 22.1128 35.9789C22.8722 36.007 23.1253 35.993 23.6386 35.8664C25.7058 35.3742 27.2668 33.8555 27.7168 31.9008C27.78 31.6406 27.8222 31.5774 27.9066 31.6125C28.5324 31.8727 28.905 31.95 29.6363 31.95C30.4589 31.957 30.8246 31.8727 31.5277 31.5141C31.9496 31.3102 32.6175 30.6914 32.9058 30.2344C33.5738 29.2008 33.623 27.7805 33.0254 26.6977L32.7933 26.2758L33.2925 25.7766C34.1293 24.9399 34.5019 23.9766 34.4316 22.8164C34.3894 22.057 34.2629 21.6211 33.9254 21.0656L33.6722 20.6438L33.841 20.257C34.1574 19.5328 34.2699 18.9422 34.2699 18.0352C34.2629 17.3813 34.2277 17.0649 34.1082 16.6359C33.8691 15.7711 33.391 14.9133 32.8004 14.2875L32.2941 13.7461L32.5332 13.4297C32.8425 13.0289 33.0675 12.5859 33.2152 12.1008C33.3629 11.6016 33.3629 10.5539 33.2152 10.0477C32.8214 8.7047 31.6472 7.60079 30.3043 7.31251L29.9175 7.22814L29.805 6.52501C29.6011 5.28048 28.9121 4.19064 27.8996 3.51564C27.5902 3.31173 27.4074 3.12189 27.2808 2.89688C26.4933 1.45548 25.2558 0.520325 23.6386 0.133606C22.816 -0.0632706 21.3816 -0.0281143 20.6363 0.210949C19.8347 0.464073 19.0964 0.885948 18.5199 1.42032L17.9996 1.91251L17.5074 1.45548C16.9378 0.914074 16.2207 0.499229 15.4332 0.239075C14.948 0.0773544 14.723 0.0492287 13.8511 0.0281372C13.155 0.0140724 12.698 0.0351677 12.4027 0.10548ZM15.2433 1.15314C16.1082 1.47657 16.755 1.91251 17.2824 2.53829L17.5777 2.89688V18V33.1102L17.2824 33.4477C16.6496 34.1789 15.7636 34.7274 14.8003 34.9805C14.266 35.1141 13.0988 35.1211 12.5503 34.9805C12.3183 34.9242 11.8613 34.7414 11.5308 34.5797C10.1457 33.9047 9.07691 32.3227 9.06988 30.9375C9.06988 30.7617 9.02066 30.5438 8.95738 30.4594C8.80972 30.2484 8.43004 30.2484 8.13472 30.4734C7.62847 30.8531 6.96754 31.0781 6.36285 31.0781C4.63316 31.0711 3.23394 29.5383 3.52222 27.9563C3.59254 27.5484 3.96519 26.7188 4.07769 26.7188C4.10582 26.7188 4.2605 26.7609 4.41519 26.8172C4.56988 26.8734 4.86519 26.9367 5.08316 26.9649C5.42066 27.007 5.49097 26.993 5.61754 26.8664C5.78629 26.6977 5.80738 26.4516 5.67379 26.2688C5.62457 26.1984 5.37847 26.1 5.09722 26.0367C4.02847 25.7977 3.1566 25.1297 2.72066 24.2086C2.51675 23.7727 2.49566 23.6742 2.49566 23.0274C2.49566 22.4086 2.51675 22.275 2.6855 21.9234L2.87535 21.5227L3.3605 22.0078C3.62769 22.275 3.93004 22.5141 4.02847 22.5422C4.30972 22.6055 4.56988 22.4156 4.56988 22.1414C4.56988 21.9656 4.46441 21.8109 4.02144 21.3399C3.05816 20.3274 2.64332 19.3149 2.65035 18C2.65035 16.7484 3.07222 15.757 4.00035 14.8359C4.29566 14.5406 4.6191 14.2383 4.7316 14.1469C5.048 13.8867 4.99175 13.6617 4.47847 13.1414C4.21832 12.8813 3.9441 12.5156 3.82457 12.2695C3.63472 11.8828 3.62066 11.7844 3.62066 11.0742C3.62066 10.3641 3.63472 10.2656 3.82457 9.87892C4.07769 9.3586 4.69644 8.72579 5.19566 8.47267C6.00425 8.06485 6.96754 8.00157 7.77613 8.30392C7.98707 8.38126 8.24019 8.43751 8.34566 8.42345C8.59175 8.39532 8.7605 8.11407 8.69019 7.84689C8.63394 7.60782 8.18394 7.39688 7.50894 7.29142C6.96754 7.20001 6.9816 7.22814 7.12925 6.53204C7.50894 4.76017 9.25972 3.46642 11.0878 3.61407C11.3691 3.63517 11.8472 3.74063 12.1496 3.83907C12.7753 4.05001 13.0144 4.03595 13.1339 3.76173C13.4011 3.17813 12.3675 2.71407 10.7785 2.71407H9.92769L10.1105 2.49611C10.4761 2.07423 11.0105 1.67345 11.566 1.39923C12.4238 0.977356 12.7613 0.914074 13.816 0.9422C14.6035 0.956261 14.8003 0.991417 15.2433 1.15314ZM23.4488 1.01954C24.2082 1.20938 25.0027 1.65236 25.5793 2.20782L26.1066 2.71407H25.2347C24.3558 2.71407 23.6738 2.84767 23.1113 3.14298C22.8722 3.26251 22.7597 3.52267 22.8511 3.76173C22.9566 4.02892 23.2168 4.05704 23.8496 3.83907C24.5738 3.59298 25.2699 3.54376 25.9308 3.68439C27.4144 3.99376 28.5675 5.11173 28.8628 6.51798C29.0175 7.22814 29.0316 7.20001 28.4972 7.29142C27.8152 7.39688 27.3652 7.60782 27.3089 7.84689C27.2386 8.11407 27.4074 8.39532 27.6535 8.42345C27.7589 8.43751 28.0121 8.38126 28.223 8.30392C29.0316 8.00157 29.9949 8.06485 30.8035 8.47267C31.3027 8.72579 31.9214 9.3586 32.1746 9.87892C32.3644 10.2656 32.3785 10.3641 32.3785 11.0742C32.3785 11.7844 32.3644 11.8828 32.1746 12.2695C32.055 12.5156 31.7808 12.8813 31.5207 13.1414C31.0074 13.6617 30.9511 13.8867 31.2746 14.1469C31.7597 14.5406 32.5472 15.3984 32.7441 15.75C33.1589 16.4813 33.3488 17.1703 33.3488 18C33.3558 19.3149 32.941 20.3274 31.9777 21.3399C31.5347 21.8109 31.4293 21.9656 31.4293 22.1414C31.4293 22.4156 31.6894 22.6055 31.9707 22.5422C32.0691 22.5141 32.3714 22.275 32.6386 22.0078L33.1238 21.5227L33.3136 21.9234C33.4824 22.275 33.5035 22.4086 33.5035 23.0274C33.5035 23.6742 33.4824 23.7727 33.2785 24.2086C32.8425 25.1297 31.9707 25.7977 30.9019 26.0367C30.6207 26.1 30.3746 26.1984 30.3253 26.2688C30.1918 26.4516 30.2129 26.6977 30.3816 26.8664C30.5082 26.993 30.5855 27.007 30.8949 26.9719C31.0918 26.9438 31.4082 26.8734 31.591 26.8172C31.9777 26.6906 31.9988 26.7047 32.273 27.2531C32.7441 28.2094 32.5191 29.4258 31.7246 30.2063C30.6629 31.2539 29.0527 31.3594 27.8644 30.4734C27.5691 30.2484 27.1894 30.2484 27.0418 30.4594C26.9785 30.5438 26.9293 30.7617 26.9293 30.9375C26.9222 32.3227 25.8535 33.9047 24.4683 34.5797C24.1378 34.7414 23.6808 34.9242 23.4488 34.9805C22.9003 35.1211 21.7332 35.1141 21.1988 34.9805C20.2355 34.7274 19.3074 34.1578 18.7238 33.4617L18.4214 33.1031V27.7664V22.4297L20.5378 22.4438L22.6613 22.4649L23.1394 23.8219L23.6246 25.1789L23.4136 25.3617C23.0269 25.6852 22.83 26.1141 22.7949 26.7117C22.7597 27.3867 22.9285 27.8438 23.3925 28.2727C23.8144 28.6594 24.1238 28.7789 24.7144 28.7859C25.8535 28.7859 26.6691 27.9774 26.6691 26.8524C26.6691 25.7695 25.8253 24.8906 24.7918 24.8906H24.5035L24.0183 23.5055C23.505 22.0641 23.3503 21.7477 23.0621 21.607C22.9355 21.5438 22.2957 21.5156 20.6574 21.5156H18.4214V19.9688V18.4219L21.8386 18.4359L25.2628 18.457L25.3543 18.7242C25.7832 19.9547 27.4777 20.3555 28.455 19.4555C29.3339 18.6469 29.3339 17.3531 28.455 16.5445C27.4777 15.6445 25.7832 16.0453 25.3543 17.2758L25.2628 17.543L21.8386 17.5641L18.4214 17.5781V16.0313V14.4844H20.6574C22.2957 14.4844 22.9355 14.4563 23.0621 14.393C23.3503 14.2524 23.505 13.9359 24.0183 12.4945L24.5035 11.1094H24.7918C25.4738 11.1094 26.1488 10.6805 26.4652 10.0406C26.8308 9.30939 26.6621 8.31095 26.0785 7.75548C25.08 6.80626 23.3714 7.18595 22.8863 8.4586C22.6121 9.17579 22.8511 10.1672 23.4136 10.6383L23.6246 10.8211L23.1394 12.1781L22.6613 13.5352L20.5378 13.5563L18.4214 13.5703V8.2336V2.89688L18.7238 2.53829C19.2933 1.85626 20.2214 1.2797 21.1636 1.02657C21.6769 0.885948 22.9144 0.885948 23.4488 1.01954ZM25.3964 8.42345C25.6566 8.66954 25.6918 8.73985 25.7128 9.07735C25.7339 9.37267 25.7128 9.50626 25.6003 9.68907C25.291 10.1742 24.6652 10.3359 24.2011 10.0547C23.5964 9.68204 23.5261 8.88048 24.0605 8.39532C24.2714 8.19845 24.3628 8.17032 24.7707 8.16329C25.066 8.15626 25.1433 8.19142 25.3964 8.42345ZM27.6324 17.107C28.7925 17.7188 27.9628 19.4555 26.7605 18.9281C25.9519 18.5695 25.9378 17.4445 26.7394 17.0859C27.1261 16.9102 27.2668 16.9102 27.6324 17.107ZM25.2277 25.9453C25.5933 26.1703 25.748 26.4797 25.7128 26.9227C25.6918 27.2672 25.6566 27.3305 25.3894 27.5836C25.1011 27.8508 25.08 27.8578 24.6722 27.8297C24.2293 27.7945 23.9902 27.6469 23.7933 27.2672C23.3503 26.4094 24.398 25.4391 25.2277 25.9453Z" fill="#2E37A4"/>
<path d="M12.2834 6.14531C11.2569 6.51797 10.5467 7.2 10.2444 8.11406C9.90687 9.10547 10.3077 10.6172 10.8983 10.6172C11.3061 10.6172 11.4256 10.2305 11.1795 9.69609C10.7717 8.78906 11.2498 7.67109 12.2553 7.17188C13.2186 6.70078 14.4069 6.78516 15.1662 7.38281C15.5319 7.67109 15.9889 7.45312 15.9467 7.01719C15.9327 6.84141 15.8483 6.74297 15.5952 6.56016C15.0397 6.15938 14.5616 6.02578 13.6053 5.99766C12.853 5.97656 12.7123 5.99062 12.2834 6.14531Z" fill="#00D3C7"/>
<path d="M8.50715 14.1469C7.99387 14.9766 8.05012 16.2492 8.63371 17.1L8.83762 17.4023L8.70403 17.7188C8.12746 19.0617 8.28918 20.5242 9.15403 21.7758C9.32981 22.043 9.39309 22.0781 9.61809 22.0781C9.76574 22.0781 9.92043 22.043 9.96965 21.9938C10.1173 21.8461 10.0611 21.4664 9.85012 21.15C9.45637 20.5664 9.32278 20.1375 9.32278 19.4062C9.31574 18.6539 9.49856 17.9297 9.66028 18.0633C9.70949 18.1055 9.96965 18.218 10.2368 18.3234C10.8767 18.5625 11.7345 18.6188 12.3954 18.4641C12.9087 18.3445 13.6329 18.007 13.8509 17.7891C14.1392 17.5008 13.9493 17.0156 13.5556 17.0156C13.4572 17.0156 13.197 17.1281 12.972 17.2617C11.4111 18.2039 9.21731 17.2969 9.09074 15.6516C9.06262 15.3 9.08371 15.1453 9.20324 14.8711C9.36496 14.4984 9.39309 14.1328 9.26653 14.0063C9.21731 13.957 9.06262 13.9219 8.91496 13.9219C8.68996 13.9219 8.62668 13.957 8.50715 14.1469Z" fill="#00D3C7"/>
<path d="M10.6242 23.8078C9.71016 24.0539 8.86641 24.7149 8.47266 25.4883C8.27578 25.882 8.26172 25.9664 8.26172 26.6836C8.26172 27.4008 8.27578 27.4852 8.47266 27.8789C8.6625 28.2516 8.71172 28.3008 8.91562 28.3219C9.18984 28.35 9.42188 28.1813 9.42188 27.9563C9.42188 27.8719 9.35859 27.6399 9.28125 27.4359C8.99297 26.6766 9.15469 25.9313 9.72422 25.3617C10.1672 24.9117 10.7437 24.6656 11.4047 24.6234C12.0656 24.5813 12.5297 24.6938 13.05 25.0031C13.507 25.2774 13.725 25.2984 13.9219 25.1016C14.1187 24.9047 14.0977 24.6375 13.8727 24.4266C13.6195 24.1945 12.9164 23.8711 12.4594 23.7727C11.9531 23.6672 11.0812 23.6813 10.6242 23.8078Z" fill="#00D3C7"/>
<path d="M11.1093 27.7875C10.6875 28.4765 10.6382 29.5593 10.9828 30.3187C11.7632 32.0132 14.0765 32.6953 15.8906 31.7812C16.1226 31.6617 16.3757 31.507 16.4531 31.4296C16.6289 31.2539 16.6359 30.9234 16.4672 30.7757C16.2773 30.6 16.0101 30.6281 15.6445 30.8601C13.9851 31.9148 11.5734 30.832 11.6859 29.0882C11.7 28.8492 11.7703 28.5468 11.8336 28.4132C12.0797 27.9211 11.932 27.5625 11.489 27.5625C11.2922 27.5625 11.2218 27.6046 11.1093 27.7875Z" fill="#00D3C7"/>
</svg>
