<svg width="28" height="33" viewBox="0 0 28 33" fill="none" xmlns="http://www.w3.org/2000/svg">
<path d="M21.8938 1.33428L20.625 2.59678L20.4188 2.39678C20.2563 2.24053 20.1563 2.19678 19.9688 2.19678C19.7313 2.19678 19.6688 2.24678 18.2688 3.65303C16.9 5.01553 16.8125 5.12178 16.8125 5.33428C16.8125 5.50928 16.85 5.59678 16.975 5.69053C17.3063 5.95303 17.3688 5.91553 18.7188 4.57178L19.9688 3.32178L21.8938 5.24678L23.8125 7.16553L22.8625 8.11553L21.9063 9.06553L21.5625 8.97178C21.1563 8.86553 20.3875 8.85928 19.925 8.95303C19.3188 9.07803 18.5875 9.47803 18.125 9.94678C17.6563 10.4093 17.2563 11.1405 17.1313 11.7468C17.0375 12.1968 17.05 13.0343 17.15 13.4155L17.2313 13.728L16.6 14.3718L15.9688 15.0093L14.05 13.0905L12.125 11.1655L14.375 8.91553C16.3688 6.92178 16.625 6.64053 16.625 6.46553C16.625 6.08428 16.2438 5.87178 15.9063 6.05928C15.8375 6.09678 14.7063 7.20303 13.3938 8.52178C10.625 11.2968 10.7563 11.0968 11.325 11.678L11.65 12.0093L10.9688 12.6968C9.99375 13.6718 9.93125 13.4718 11.7813 15.3218C13.65 17.1905 13.4563 17.128 14.45 16.153L15.125 15.4843L15.4563 15.8093C15.9563 16.303 16.0063 16.2905 16.9 15.3905L17.6438 14.6468L18.0938 15.103C18.4375 15.453 18.6625 15.6155 19.0688 15.8155C19.3625 15.953 19.65 16.0718 19.7063 16.0718C19.8688 16.0718 19.9063 16.3343 19.9 17.353C19.8938 18.1468 19.8688 18.3843 19.7375 18.8843C19.3625 20.2718 18.5625 21.4905 17.4375 22.353C17.025 22.6655 16.5063 22.9718 16.4625 22.928C16.4438 22.9093 16.3875 22.7343 16.3313 22.528C16.1688 21.8968 16.4188 21.9468 13.3688 21.9468H10.6938L10.575 22.103C10.5063 22.1905 10.4313 22.3718 10.4063 22.5093C10.3813 22.6468 10.35 22.7593 10.3313 22.7593C10.25 22.7593 9.5 22.178 9.1875 21.8718L8.84375 21.5405L9.59375 21.5218C10.675 21.4968 10.625 21.5718 10.625 20.0093C10.625 18.8093 10.625 18.778 10.4813 18.6468L10.3375 18.5093H5.7625C1.26875 18.5093 1.1875 18.5093 1.0625 18.6343C0.94375 18.753 0.9375 18.8405 0.9375 20.0093C0.9375 21.178 0.94375 21.2655 1.0625 21.3843C1.18125 21.503 1.26875 21.5093 2.51875 21.5093H3.85L4.11875 22.053C5.10625 24.0593 6.775 25.7343 8.8 26.7593C9.0875 26.9093 9.30625 27.0593 9.29375 27.0968C9.275 27.1343 9.21875 27.3843 9.15625 27.6468L9.05 28.128L6.825 28.1468C4.61875 28.1655 4.5875 28.1718 4.1875 28.328C3.05 28.7655 2.24375 29.678 1.96875 30.8405C1.8375 31.403 1.84375 31.7905 2 31.9468C2.125 32.0718 2.20625 32.0718 13.3625 32.0718C22.4188 32.0718 24.625 32.0593 24.7125 31.9905C24.8688 31.878 24.9 31.4843 24.7875 30.9593C24.4938 29.553 23.525 28.5468 22.1563 28.228C21.875 28.1593 21.2875 28.1343 19.7375 28.1343H17.7L17.5875 27.653C17.5 27.2843 17.4875 27.1718 17.55 27.1468C17.875 27.0405 19.0125 26.428 19.5 26.103C23.075 23.6968 24.8625 19.2593 23.9375 15.0718L23.825 14.5405L24.0063 14.1655C24.375 13.3968 24.4813 12.4468 24.2813 11.6655C24.0875 10.8905 23.4875 9.97803 22.9375 9.60928L22.7813 9.50928L23.8625 8.42803C25.0813 7.20928 25.1125 7.14678 24.7438 6.72803L24.5438 6.50303L25.8063 5.23428C27.0063 4.02178 27.0625 3.95303 27.0625 3.72178C27.0625 3.49053 27 3.42178 25.3625 1.77803C23.7063 0.115527 23.65 0.0717769 23.4125 0.0717769C23.175 0.0717769 23.1188 0.115527 21.8938 1.33428ZM24.8938 4.77178L23.8438 5.82178L22.5813 4.55928L21.3125 3.29053L22.3563 2.24678L23.4063 1.19678L24.6688 2.45928L25.9375 3.72803L24.8938 4.77178ZM21.6875 9.99678C22.3688 10.2655 22.9875 10.878 23.2625 11.5718C23.375 11.8468 23.4 12.0405 23.4 12.5405C23.4 13.0405 23.375 13.2343 23.2625 13.5093C22.9875 14.203 22.3813 14.8093 21.6875 15.0843C21.4063 15.1968 21.2188 15.2218 20.6875 15.2218C20.0813 15.2218 20 15.2093 19.6063 15.028C19.0438 14.7655 18.5 14.2218 18.2313 13.653C18.0438 13.253 18.0313 13.1843 18.0313 12.5405C18.0313 11.903 18.0438 11.8218 18.225 11.4468C18.575 10.7155 19.1188 10.2218 19.8688 9.96553C20.3938 9.77803 21.1563 9.79678 21.6875 9.99678ZM13.9875 15.2405L13.5313 15.6968L12.4875 14.653L11.4375 13.603L11.8875 13.153L12.3438 12.6968L13.3875 13.7405L14.4375 14.7905L13.9875 15.2405ZM23.2063 17.2593C23.2125 18.1593 23.1875 18.478 23.075 19.0468C22.4813 22.0468 20.6438 24.5218 18 25.8843C17.65 26.0593 17.3313 26.1968 17.2938 26.178C17.225 26.153 16.6438 23.9593 16.6938 23.9218C16.7063 23.9155 16.9125 23.803 17.15 23.6718C19.55 22.3718 20.9875 19.7593 20.8563 16.9468L20.825 16.1968H21.025C21.5 16.1968 22.7313 15.728 22.95 15.4593C23.0875 15.2905 23.1938 16.0468 23.2063 17.2593ZM9.6875 20.0093V20.5718H5.78125H1.875V20.0093V19.4468H5.78125H9.6875V20.0093ZM7.8375 21.8093C8.1625 22.253 8.9625 22.9968 9.5125 23.3655C9.775 23.5405 10.0188 23.6905 10.05 23.703C10.1 23.7218 9.6875 25.6155 9.55 26.0093C9.525 26.0905 8.8875 25.7593 8.18125 25.2905C7.0625 24.5468 5.9 23.2968 5.21875 22.103C5.0625 21.828 4.9375 21.5843 4.9375 21.5593C4.9375 21.528 5.5375 21.5093 6.275 21.5093H7.6125L7.8375 21.8093ZM16.0813 25.4905C16.425 26.9093 16.6938 28.0843 16.675 28.103C16.6625 28.1218 15.1563 28.128 13.3375 28.1218L10.025 28.103L10.6375 25.5718C10.975 24.178 11.2625 23.003 11.2813 22.9593C11.3 22.8968 11.7563 22.8843 13.3813 22.8968L15.45 22.9155L16.0813 25.4905ZM22.45 29.3405C23.15 29.6843 23.675 30.3218 23.8438 31.028L23.8875 31.1968H13.3813C3.41875 31.1968 2.875 31.1905 2.875 31.0843C2.875 30.8843 3.24375 30.203 3.5125 29.9093C3.84375 29.5468 4.175 29.3343 4.625 29.1905C4.95 29.0843 5.48125 29.078 13.475 29.0905L21.975 29.103L22.45 29.3405Z" fill="white"/>
<path d="M20.3434 11.0031C18.9559 11.3656 18.6997 13.2281 19.9497 13.9156C20.3809 14.1531 21.0122 14.1781 21.4059 13.9656C21.9809 13.6593 22.2747 13.1781 22.2747 12.5406C22.2747 11.9093 21.9747 11.4093 21.4247 11.1281C21.1622 10.9968 20.6184 10.9281 20.3434 11.0031ZM21.0997 12.0406C21.4684 12.2781 21.3997 12.9093 20.9809 13.1093C20.7184 13.2343 20.4872 13.1906 20.2809 12.9781C19.9747 12.6781 20.0309 12.2281 20.3997 11.9968C20.6122 11.8656 20.8622 11.8843 21.0997 12.0406Z" fill="white"/>
<path d="M5.55 8.00926C5.425 8.08426 4.4 9.45926 3.7125 10.478C3.04375 11.478 2.64375 12.228 2.39375 12.9468C2.225 13.4405 2.1875 13.6343 2.1875 14.0968C2.1875 14.9905 2.43125 15.703 2.95625 16.353C4.05 17.6968 5.86875 18.0843 7.4375 17.303C7.99375 17.028 8.7125 16.303 8.98125 15.753C9.275 15.1593 9.39375 14.5843 9.35625 13.9468C9.2875 12.7843 8.58125 11.428 6.75 8.95301C6.36875 8.44051 6.01875 8.00301 5.9625 7.98426C5.825 7.92801 5.675 7.94051 5.55 8.00926ZM6.3 9.95301C7.35 11.3843 8.06875 12.6218 8.3125 13.4405C8.80625 15.0593 7.50625 16.7593 5.78125 16.7593C5.04375 16.7593 4.2375 16.3968 3.775 15.8593C3.375 15.3968 3.16875 14.878 3.1375 14.2843C3.1125 13.828 3.13125 13.6968 3.28125 13.2718C3.375 13.0093 3.58125 12.553 3.7375 12.2655C4.26875 11.2843 5.725 9.20926 5.8125 9.30301C5.8375 9.32801 6.05625 9.62176 6.3 9.95301Z" fill="white"/>
</svg>
