<svg width="48" height="49" viewBox="0 0 48 49" fill="none" xmlns="http://www.w3.org/2000/svg">
<g clip-path="url(#clip0_325_319776)">
<path d="M22.5749 0.249905C20.728 0.85928 19.4061 2.67803 19.4061 4.61866C19.4061 6.56865 20.7468 8.38741 22.5936 8.94053L23.1561 9.10928V17.9874V26.8655L22.3874 26.9218C19.4249 27.1187 18.7218 27.0718 17.728 26.5843C16.9499 26.2093 16.0593 25.3187 15.703 24.578C15.1124 23.3499 15.4218 22.0937 16.6311 20.8187C17.1655 20.2468 17.2499 20.1062 17.2499 19.8155C17.2499 19.1687 16.6499 18.8312 16.0499 19.1405C15.6561 19.3468 14.8593 20.2187 14.4843 20.8374C13.9405 21.7562 13.753 22.5155 13.7999 23.6124C13.8468 24.4749 13.8749 24.6062 14.2499 25.3655C15.028 26.9405 16.603 28.178 18.2811 28.5343C18.8624 28.6562 19.3499 28.6749 21.0749 28.628L23.1561 28.5624V31.6937V34.8249L21.8999 34.8812C20.0155 34.9749 19.303 34.7687 18.5436 33.9343C17.6624 32.9593 17.7374 31.9749 18.7593 30.9155C19.153 30.5124 19.2186 30.3905 19.2186 30.0718C19.2186 29.6499 19.003 29.3687 18.5999 29.2655C18.0561 29.1249 17.1749 29.9218 16.6499 31.0093C16.3874 31.5624 16.3593 31.703 16.3593 32.5562C16.3593 33.428 16.378 33.5405 16.6593 34.1124C16.9968 34.7874 17.7655 35.5937 18.4686 36.0062C19.2561 36.4655 19.9311 36.5687 21.6374 36.5124L23.1561 36.4655V39.1187V41.7624L22.6686 41.828C21.4218 41.9687 20.6811 41.7999 20.2593 41.2749C19.8374 40.7312 19.8843 40.328 20.4374 39.6812C20.8968 39.1562 20.9436 38.7249 20.578 38.3687C20.203 37.9843 19.7718 38.0499 19.228 38.5562C17.9905 39.7187 18.028 41.5093 19.3218 42.6718C20.0343 43.3093 20.578 43.478 21.9843 43.478H23.1561V45.3249C23.1561 47.828 23.2405 48.0718 24.0843 48.0718C24.3749 48.0718 24.4968 48.0155 24.6468 47.828C24.8343 47.5937 24.8436 47.4624 24.8436 45.6718V43.7593L25.3874 43.9937C25.9968 44.2655 26.3436 44.603 26.3436 44.9312C26.3436 45.0624 26.2311 45.3905 26.0999 45.6624C25.7061 46.4593 25.9686 47.0405 26.7186 47.0405C27.178 47.0405 27.403 46.8437 27.703 46.1593C28.0218 45.4562 28.078 44.9124 27.8905 44.2749C27.628 43.3468 26.878 42.728 25.4811 42.2593L24.8436 42.0437V39.3812V36.7093L25.153 36.7749C25.6686 36.8874 27.028 37.4312 27.4405 37.6937C28.453 38.3405 28.6124 39.1093 27.9936 40.3187C27.5905 41.0874 27.5905 41.3499 27.9561 41.6968C28.1249 41.8468 28.2655 41.8843 28.5936 41.8655C28.978 41.8374 29.0343 41.7999 29.3061 41.3874C30.0468 40.253 30.2061 38.7062 29.6905 37.703C29.3718 37.0843 28.603 36.3812 27.7968 35.9874C27.0936 35.6499 25.3218 35.0405 25.0218 35.0405C24.853 35.0405 24.8436 34.9468 24.8436 31.8624V28.6843L25.4343 28.8155C26.3811 29.0405 27.928 29.5843 28.7811 29.9968C30.2811 30.7187 31.0593 31.8155 30.8905 32.9593C30.8061 33.503 30.5343 34.2062 30.178 34.7874C29.8405 35.3405 29.8311 35.7249 30.1405 36.0249C30.4311 36.3249 31.0405 36.3437 31.3124 36.0718C31.5936 35.7905 32.2405 34.4499 32.3999 33.7937C32.6061 33.0155 32.5405 31.8062 32.2499 31.0562C31.9218 30.1937 30.8061 29.1343 29.6249 28.5437C28.6124 28.0468 26.428 27.3062 25.4811 27.1468L24.8436 27.0343V18.0624V9.09053L25.1624 9.03428C26.0999 8.85616 27.4686 7.85303 27.9936 6.96241C29.3624 4.62803 28.4343 1.60928 25.9968 0.474907C25.3124 0.156155 25.1999 0.128029 24.1874 0.0999069C23.3249 0.0811539 23.0061 0.10928 22.5749 0.249905ZM25.4343 2.06866C27.253 3.0624 27.5155 5.36866 25.9686 6.75615C24.5061 8.06865 22.2468 7.62803 21.3749 5.84678C20.5874 4.25303 21.4311 2.36866 23.1843 1.79678C23.8405 1.58115 24.7499 1.69366 25.4343 2.06866Z" fill="white"/>
<path d="M16.0781 8.14364C14.6438 8.35926 13.2938 8.99677 10.4062 10.8155C8.16563 12.2218 6.66563 12.9905 5.48438 13.3468C4.75313 13.5718 4.4625 13.6093 3.29063 13.6186C1.94063 13.628 1.94063 13.628 1.725 13.8905C1.60313 14.0311 1.5 14.2655 1.5 14.4061C1.5 14.7061 2.03438 15.6343 2.46563 16.0843C2.925 16.553 3.81563 16.9561 4.5375 17.0124C4.88438 17.0405 5.15625 17.0686 5.15625 17.078C5.15625 17.0874 5.07188 17.2561 4.96875 17.4624C4.6125 18.1655 4.79063 18.5499 5.59688 18.7843C6.4875 19.0468 7.59375 18.9155 8.84063 18.3999C8.99063 18.3343 9 18.3718 8.94375 18.7186C8.89688 18.9999 8.925 19.1593 9.0375 19.3374C9.30938 19.7405 9.68438 19.8624 10.6688 19.8718C11.7 19.8718 12.1969 19.7686 14.3063 19.1124C16.4625 18.4468 17.1563 18.3249 18.4125 18.3718C19.1906 18.4093 19.6406 18.4843 20.2031 18.6718C21.1313 18.9718 21.1969 18.9718 21.5531 18.6718L21.8438 18.428V14.4343V10.4405L21.3563 9.98114C19.7906 8.53739 17.8781 7.86239 16.0781 8.14364ZM17.8125 9.83114C18.4219 9.97176 19.2844 10.4218 19.8094 10.8624L20.25 11.2468V14.1061C20.25 16.5905 20.2313 16.9561 20.1094 16.9093C20.0344 16.8811 19.6031 16.8155 19.1531 16.7499C17.6719 16.553 16.1719 16.778 13.5938 17.5936C12.0844 18.0718 11.0813 18.3155 10.9969 18.2218C10.9688 18.1936 10.9969 18.0436 11.0531 17.8749C11.3813 16.928 10.9125 15.9249 10.1344 15.9155C10.0125 15.9155 9.55313 16.1218 9.10313 16.3655C8.27813 16.8249 7.3875 17.2374 7.33125 17.1811C7.3125 17.1624 7.45312 16.9561 7.63125 16.7124C8.0625 16.1593 8.07188 15.8218 7.6875 15.428C7.45312 15.1936 7.34063 15.1561 7.09688 15.1936C5.5875 15.428 5.0625 15.4749 4.67813 15.3905L4.26562 15.2968L4.92188 15.1749C6.61875 14.8749 8.33438 14.078 11.3813 12.1749C14.85 9.99989 16.2938 9.47489 17.8125 9.83114Z" fill="#00D3C7"/>
<path d="M30.2345 8.19052C29.1939 8.3499 28.1158 8.85615 27.122 9.65302C26.0627 10.4874 26.1564 10.0186 26.1564 14.5561V18.5124L26.372 18.6999C26.7189 19.028 26.9439 19.0374 27.7689 18.7655C28.3783 18.5686 28.7908 18.503 29.6814 18.4655C31.0502 18.4186 31.6595 18.5218 34.1064 19.253C36.1783 19.8624 37.2377 20.0311 38.0814 19.8718C38.8783 19.7311 39.1408 19.4405 39.0564 18.8218L39.0002 18.3905L39.8158 18.6624C40.7533 18.9811 41.747 19.0468 42.497 18.8311C43.2189 18.6249 43.3783 18.2405 43.0314 17.5561C42.9283 17.3499 42.8439 17.1811 42.8439 17.1718C42.8439 17.1718 43.1252 17.1343 43.4627 17.1061C44.6158 16.9936 45.5814 16.3468 46.2095 15.2499C46.5564 14.6405 46.5752 14.3218 46.2752 13.9749L46.0502 13.7218L44.7095 13.703C43.5377 13.6936 43.247 13.6561 42.5158 13.4405C41.3158 13.0843 39.722 12.2686 37.4533 10.8436C35.2595 9.4749 33.7689 8.70615 32.7189 8.41552C32.0158 8.22802 30.7595 8.11552 30.2345 8.19052ZM32.5314 10.103C33.497 10.4405 34.4908 10.9749 36.6095 12.2874C39.7033 14.2186 41.2783 14.9405 43.0877 15.2686L43.7345 15.3905L43.2377 15.4843C42.8627 15.5499 42.4877 15.5311 41.7283 15.4093C40.6314 15.2311 40.4533 15.2593 40.1814 15.653C39.947 15.9811 40.0033 16.328 40.3502 16.7968L40.6783 17.2186L40.3314 17.0968C40.1345 17.0218 39.5533 16.7499 39.0283 16.4874C38.0252 15.9905 37.6783 15.9155 37.3408 16.1499C36.9095 16.4499 36.7314 17.4718 36.9845 18.1093C37.0502 18.2686 37.022 18.278 36.647 18.2124C36.422 18.1749 35.4752 17.9218 34.547 17.6405C32.4939 17.0405 31.6408 16.8624 30.4595 16.7874C29.6627 16.7405 28.2752 16.8624 27.8814 17.0124C27.7689 17.0499 27.7502 16.6093 27.7502 14.1811C27.7502 10.8905 27.647 11.2936 28.7252 10.5624C29.8783 9.79365 31.1814 9.64365 32.5314 10.103Z" fill="#00D3C7"/>
<path d="M30.8438 19.5249C30.4031 20.003 30.6 20.6124 31.3125 20.978C31.7625 21.2124 32.3063 21.7561 32.55 22.2249C32.8313 22.7593 32.8406 23.7718 32.5781 24.3061C32.325 24.8311 31.6688 25.4593 31.1438 25.6843C30.4969 25.9655 30.375 26.1061 30.375 26.5561C30.375 27.4186 30.9938 27.6343 32.0156 27.1186C34.6406 25.7968 35.25 22.4311 33.2531 20.378C32.2781 19.3843 31.3031 19.0374 30.8438 19.5249Z" fill="white"/>
<path d="M20.6156 43.9749C20.025 44.2937 19.6406 44.9405 19.6406 45.6249C19.6406 46.6655 20.3344 47.4155 21.3563 47.4905C21.8438 47.528 21.9281 47.4999 22.2 47.2749C22.4344 47.078 22.5 46.9468 22.5 46.703C22.5 46.2905 22.1531 45.9155 21.7688 45.9155C21.4125 45.9155 21.2063 45.6905 21.375 45.4937C21.4406 45.4187 21.5625 45.353 21.6469 45.353C21.9375 45.353 22.2188 44.9499 22.2188 44.5374C22.2188 43.7968 21.4594 43.5343 20.6156 43.9749Z" fill="white"/>
</g>
<defs>
<clipPath id="clip0_325_319776">
<rect width="48" height="48" fill="white" transform="translate(0 0.0717773)"/>
</clipPath>
</defs>
</svg>
