<svg width="48" height="49" viewBox="0 0 48 49" fill="none" xmlns="http://www.w3.org/2000/svg">
<g clip-path="url(#clip0_324_318733)">
<path d="M21 0.212406C16.8375 0.728031 13.0125 2.27491 9.5625 4.83428C8.15625 5.88428 5.8125 8.22803 4.7625 9.63428C2.175 13.1218 0.646875 16.9374 0.13125 21.1655C-0.028125 22.553 -0.028125 25.5905 0.13125 26.978C0.646875 31.2062 2.175 35.0218 4.7625 38.5093C5.8125 39.9155 8.15625 42.2593 9.5625 43.3093C13.05 45.8968 16.8656 47.4249 21.0938 47.9405C22.4813 48.0999 25.5188 48.0999 26.9063 47.9405C31.1344 47.4249 34.95 45.8968 38.4375 43.3093C39.8438 42.2593 42.1875 39.9155 43.2375 38.5093C45.825 35.0218 47.3531 31.2062 47.8688 26.978C48.0281 25.5905 48.0281 22.553 47.8688 21.1655C47.3531 16.9374 45.825 13.1218 43.2375 9.63428C42.1875 8.22803 39.8438 5.88428 38.4375 4.83428C34.95 2.24678 31.1344 0.718655 26.9063 0.20303C25.5656 0.0436554 22.3313 0.0530319 21 0.212406ZM26.9719 3.15615C36.3094 4.53428 43.5375 11.7624 44.9156 21.0999C45.1594 22.7968 45.1594 25.3468 44.9156 27.0437C43.5375 36.3812 36.3094 43.6093 26.9719 44.9874C25.275 45.2312 22.725 45.2312 21.0281 44.9874C11.6906 43.6093 4.4625 36.3812 3.08438 27.0437C2.84063 25.3468 2.84063 22.7968 3.08438 21.0999C4.45312 11.7999 11.6531 4.57178 20.9438 3.16553C22.5656 2.92178 25.3313 2.92178 26.9719 3.15615Z" fill="white"/>
<path d="M13.6872 13.7124C13.3497 13.7874 12.7216 14.0218 12.281 14.2374C11.2591 14.7437 10.1435 15.8312 9.67474 16.778C9.05599 18.0343 8.83099 19.5624 9.16849 20.228C9.51536 20.9218 10.4341 21.1937 11.156 20.7999C11.606 20.5655 11.8122 20.1624 11.9154 19.3655C12.0654 18.1843 12.6372 17.3312 13.6216 16.8624C14.3904 16.4874 14.9247 16.4218 15.6372 16.6093C17.006 16.9562 17.8216 17.9218 18.0091 19.4124C18.1029 20.1718 18.3466 20.6218 18.7872 20.828C19.4904 21.1562 20.3247 20.9312 20.7279 20.303C20.8966 20.0312 20.9154 19.8905 20.8779 19.1499C20.8029 17.678 20.2591 16.4499 19.2279 15.3999C18.1216 14.2749 16.7716 13.6749 15.1966 13.6093C14.6154 13.5905 14.081 13.628 13.6872 13.7124Z" fill="white"/>
<path d="M31.8279 13.7124C30.5998 13.9843 29.6529 14.4999 28.7717 15.3999C27.7404 16.4499 27.1967 17.678 27.1217 19.1499C27.0842 19.8905 27.1029 20.0312 27.2717 20.303C27.6748 20.9312 28.5092 21.1562 29.2123 20.828C29.6529 20.6218 29.8967 20.1718 29.9904 19.4124C30.1779 17.9218 30.9936 16.9562 32.3623 16.6093C33.0748 16.4218 33.6092 16.4874 34.3779 16.8624C35.3623 17.3312 35.9342 18.1843 36.0842 19.3655C36.1873 20.1624 36.3936 20.5655 36.8436 20.7999C37.5654 21.1937 38.4842 20.9218 38.8311 20.228C39.1686 19.5624 38.9436 18.0343 38.3248 16.778C37.8561 15.8312 36.7404 14.7437 35.7186 14.2374C34.4342 13.6093 33.1029 13.4312 31.8279 13.7124Z" fill="white"/>
<path d="M10.5004 27.3343C10.041 27.578 9.72223 28.2062 9.78786 28.7312C9.85348 29.2187 10.4535 30.6249 11.0254 31.6093C11.7191 32.7999 12.4129 33.6999 13.4441 34.7124C15.6097 36.8499 18.1691 38.1999 21.2066 38.8093C22.7254 39.1187 25.2754 39.1187 26.7941 38.8093C31.1441 37.928 34.8097 35.3405 36.9754 31.6093C37.5472 30.6249 38.1472 29.2187 38.2129 28.7312C38.2504 28.4312 38.2129 28.2343 38.0441 27.9249C37.5097 26.903 36.0097 26.903 35.5129 27.9155C35.4285 28.0937 35.1285 28.7312 34.8379 29.3312C33.2347 32.7155 30.1504 35.1155 26.3254 35.9499C25.2379 36.1843 22.7629 36.1843 21.6754 35.9499C17.8504 35.1155 14.766 32.7155 13.1629 29.3312C12.8722 28.7312 12.5722 28.0937 12.4879 27.9155C12.1504 27.2218 11.2316 26.9593 10.5004 27.3343Z" fill="#00D3C7"/>
</g>
<defs>
<clipPath id="clip0_324_318733">
<rect width="48" height="48" fill="white" transform="translate(0 0.0717773)"/>
</clipPath>
</defs>
</svg>
