<svg width="38" height="24" viewBox="0 0 38 24" fill="none" xmlns="http://www.w3.org/2000/svg">
<path fill-rule="evenodd" clip-rule="evenodd" d="M25.9782 23.4348C32.2234 23.4348 37.2862 18.2838 37.2862 11.9298C37.2862 5.57576 32.2234 0.424805 25.9782 0.424805C23.1791 0.424805 20.6175 1.45957 18.6428 3.17363C16.6682 1.45985 14.1068 0.425284 11.308 0.425284C5.06275 0.425284 0 5.57624 0 11.9303C0 18.2843 5.06275 23.4352 11.308 23.4352C14.1071 23.4352 16.6687 22.4005 18.6434 20.6864C20.618 22.4002 23.1793 23.4348 25.9782 23.4348Z" fill="#ED0006"/>
<path fill-rule="evenodd" clip-rule="evenodd" d="M18.6426 20.6854C21.0736 18.5752 22.6151 15.4354 22.6151 11.9293C22.6151 8.42318 21.0736 5.28337 18.6426 3.17315C20.6173 1.45908 23.1789 0.424316 25.978 0.424316C32.2232 0.424316 37.286 5.57527 37.286 11.9293C37.286 18.2833 32.2232 23.4343 25.978 23.4343C23.1789 23.4343 20.6173 22.3995 18.6426 20.6854Z" fill="#F9A000"/>
<path fill-rule="evenodd" clip-rule="evenodd" d="M18.6434 20.6856C21.0745 18.5754 22.616 15.4356 22.616 11.9295C22.616 8.42337 21.0745 5.28356 18.6434 3.17334C16.2124 5.28356 14.6709 8.42337 14.6709 11.9295C14.6709 15.4356 16.2124 18.5754 18.6434 20.6856Z" fill="#FF5E00"/>
</svg>
