<svg width="34" height="30" viewBox="0 0 34 30" fill="none" xmlns="http://www.w3.org/2000/svg">
<path fill-rule="evenodd" clip-rule="evenodd" d="M4.83457 20.5615H2.2567C2.08029 20.5615 1.93026 20.6905 1.90275 20.8656L0.860126 27.514C0.839403 27.6452 0.94042 27.7635 1.07273 27.7635H2.30343C2.47984 27.7635 2.62987 27.6345 2.65738 27.4591L2.93859 25.6659C2.96571 25.4903 3.11611 25.3615 3.29216 25.3615H4.10822C5.80636 25.3615 6.78635 24.535 7.04242 22.8973C7.15772 22.1808 7.0473 21.6178 6.7136 21.2235C6.34729 20.7906 5.69734 20.5615 4.83457 20.5615ZM5.13199 22.9898C4.99104 23.9201 4.28426 23.9201 3.60087 23.9201H3.21186L3.48477 22.1826C3.50097 22.0777 3.59144 22.0003 3.69699 22.0003H3.87528C4.3408 22.0003 4.77998 22.0003 5.00692 22.2671C5.14211 22.4264 5.18362 22.6629 5.13199 22.9898ZM12.5405 22.9599H11.306C11.2008 22.9599 11.1099 23.0373 11.0937 23.1424L11.0391 23.4896L10.9528 23.3638C10.6855 22.9736 10.0896 22.8433 9.49482 22.8433C8.13055 22.8433 6.96549 23.8824 6.73855 25.3401C6.62063 26.0672 6.78826 26.7624 7.19836 27.2473C7.57462 27.6931 8.11293 27.8789 8.75329 27.8789C9.85242 27.8789 10.4621 27.168 10.4621 27.168L10.4069 27.5131C10.3862 27.6451 10.4872 27.7633 10.6187 27.7633H11.7307C11.9076 27.7633 12.0568 27.6343 12.0847 27.4589L12.7519 23.2094C12.773 23.0787 12.6724 22.9599 12.5405 22.9599ZM10.8197 25.3764C10.7005 26.0857 10.1408 26.5619 9.42696 26.5619C9.0685 26.5619 8.7819 26.4463 8.59804 26.2272C8.41558 26.0096 8.34616 25.6998 8.40424 25.3549C8.51553 24.6515 9.08472 24.16 9.7877 24.16C10.1381 24.16 10.4232 24.277 10.6109 24.498C10.7989 24.7214 10.8736 25.0329 10.8197 25.3764ZM17.8746 22.9598H19.1152C19.2889 22.9598 19.3903 23.1557 19.2915 23.2991L15.1656 29.2889C15.0988 29.3859 14.9887 29.4436 14.8711 29.4436H13.6321C13.4577 29.4436 13.3558 29.2461 13.4568 29.1024L14.7415 27.2786L13.3752 23.2456C13.3279 23.1054 13.4308 22.9598 13.5791 22.9598H14.798C14.9564 22.9598 15.0962 23.0643 15.1419 23.2168L15.867 25.6526L17.578 23.1178C17.645 23.0189 17.7563 22.9598 17.8746 22.9598Z" fill="#253B80"/>
<path fill-rule="evenodd" clip-rule="evenodd" d="M31.3248 27.5143L32.3827 20.7443C32.3989 20.6392 32.4895 20.5619 32.5947 20.5615H33.7857C33.9172 20.5615 34.0182 20.6801 33.9975 20.8113L32.9542 27.4594C32.927 27.6349 32.7769 27.7638 32.6002 27.7638H31.5365C31.405 27.7638 31.304 27.6456 31.3248 27.5143ZM23.2224 20.5619H20.644C20.468 20.5619 20.318 20.6908 20.2904 20.8659L19.2478 27.5143C19.2271 27.6456 19.3281 27.7638 19.4598 27.7638H20.7827C20.9057 27.7638 21.0109 27.6736 21.03 27.5508L21.3259 25.6663C21.3531 25.4907 21.5035 25.3619 21.6795 25.3619H22.4951C24.1936 25.3619 25.1734 24.5354 25.4297 22.8977C25.5453 22.1812 25.4342 21.6182 25.1007 21.2238C24.7346 20.791 24.0851 20.5619 23.2224 20.5619ZM23.5198 22.9901C23.3792 23.9205 22.6724 23.9205 21.9886 23.9205H21.5999L21.8733 22.1829C21.8895 22.078 21.9792 22.0006 22.085 22.0006H22.2633C22.7285 22.0006 23.1681 22.0006 23.3949 22.2675C23.5302 22.4268 23.5714 22.6633 23.5198 22.9901ZM30.9276 22.9603H29.694C29.5879 22.9603 29.4979 23.0377 29.482 23.1428L29.4274 23.49L29.3407 23.3642C29.0735 22.974 28.478 22.8436 27.8831 22.8436C26.5189 22.8436 25.3542 23.8828 25.1272 25.3405C25.0096 26.0675 25.1766 26.7628 25.5867 27.2477C25.9636 27.6935 26.5012 27.8793 27.1416 27.8793C28.2407 27.8793 28.8502 27.1684 28.8502 27.1684L28.7953 27.5135C28.7745 27.6454 28.8755 27.7636 29.0079 27.7636H30.1194C30.2954 27.7636 30.4454 27.6347 30.473 27.4593L31.1406 23.2098C31.161 23.0791 31.06 22.9603 30.9276 22.9603ZM29.2069 25.3768C29.0885 26.0861 28.528 26.5622 27.8141 26.5622C27.4563 26.5622 27.1692 26.4466 26.9851 26.2275C26.8027 26.01 26.7341 25.7001 26.7915 25.3552C26.9033 24.6519 27.4718 24.1603 28.1748 24.1603C28.5254 24.1603 28.8103 24.2773 28.9981 24.4984C29.1869 24.7217 29.2615 25.0333 29.2069 25.3768Z" fill="#179BD7"/>
<path d="M14.3752 18.1854L14.6922 16.1608L13.9862 16.1443H10.6152L12.9579 1.20459C12.9651 1.15949 12.9888 1.11744 13.0233 1.08758C13.0579 1.05772 13.1022 1.04126 13.1482 1.04126H18.8322C20.7193 1.04126 22.0215 1.43619 22.7014 2.21568C23.0201 2.58137 23.2232 2.96349 23.3214 3.38402C23.4243 3.82528 23.4262 4.35246 23.3255 4.99544L23.3182 5.04237V5.45436L23.6371 5.63599C23.9055 5.7792 24.1187 5.94315 24.2823 6.13087C24.5552 6.44352 24.7315 6.84089 24.806 7.31199C24.8829 7.79652 24.8575 8.37307 24.7315 9.0258C24.586 9.77667 24.3509 10.4306 24.0334 10.9657C23.7412 11.4588 23.3692 11.8676 22.9275 12.1847C22.5057 12.4857 22.0045 12.7143 21.438 12.8606C20.8888 13.0043 20.263 13.0769 19.5764 13.0769H19.134C18.8178 13.0769 18.5104 13.1915 18.2693 13.3969C18.0276 13.6066 17.8674 13.8929 17.8184 14.2062L17.7851 14.3885L17.2252 17.9568L17.1997 18.0878C17.1931 18.1294 17.1815 18.1501 17.1646 18.1641C17.1495 18.1768 17.1276 18.1854 17.1064 18.1854H14.3752Z" fill="#253B80"/>
<path d="M23.9373 5.08984C23.9204 5.19893 23.901 5.31046 23.8792 5.42504C23.1295 9.29573 20.5651 10.6329 17.2897 10.6329H15.6221C15.2216 10.6329 14.884 10.9254 14.8216 11.3228L13.9677 16.769L13.726 18.3127C13.6853 18.5736 13.8854 18.8088 14.1471 18.8088H17.105C17.4552 18.8088 17.7527 18.5529 17.8078 18.2055L17.8369 18.0543L18.3939 14.4999L18.4296 14.305C18.4841 13.9564 18.7822 13.7004 19.1324 13.7004H19.5748C22.4405 13.7004 24.6839 12.5302 25.3396 9.14398C25.6135 7.72941 25.4716 6.54829 24.7469 5.71758C24.5276 5.46709 24.2555 5.25927 23.9373 5.08984Z" fill="#179BD7"/>
<path d="M23.1539 4.77597C23.0394 4.74244 22.9212 4.71197 22.7999 4.68455C22.6782 4.65774 22.5533 4.63397 22.4249 4.61325C21.9752 4.54011 21.4826 4.50537 20.9548 4.50537H16.4996C16.3899 4.50537 16.2858 4.53035 16.1925 4.57546C15.987 4.67479 15.8343 4.87044 15.7974 5.10995L14.8495 11.1473L14.8223 11.3234C14.8847 10.926 15.2222 10.6335 15.6228 10.6335H17.2904C20.5658 10.6335 23.1303 9.29573 23.8799 5.42565C23.9022 5.31107 23.921 5.19955 23.938 5.09046C23.7484 4.98928 23.5429 4.90274 23.3217 4.82899C23.2673 4.81071 23.2109 4.79304 23.1539 4.77597Z" fill="#222D65"/>
<path d="M15.7965 5.10825C15.8335 4.86873 15.9863 4.6731 16.1916 4.57436C16.2856 4.52925 16.3892 4.50427 16.4988 4.50427H20.9541C21.4819 4.50427 21.9745 4.53901 22.424 4.61215C22.5526 4.63287 22.6775 4.65664 22.7993 4.68345C22.9205 4.71089 23.0386 4.74136 23.1532 4.77487C23.21 4.79194 23.2664 4.80961 23.3215 4.82729C23.5427 4.90103 23.7482 4.98818 23.9378 5.08875C24.1609 3.65834 23.9361 2.68442 23.1671 1.80253C22.3194 0.831666 20.7892 0.416016 18.8313 0.416016H13.1472C12.7472 0.416016 12.4062 0.708543 12.3442 1.10653L9.97678 16.1998C9.93003 16.4984 10.1591 16.7679 10.4584 16.7679H13.9677L14.8488 11.1456L15.7965 5.10825Z" fill="#253B80"/>
</svg>
