<svg width="41" height="27" viewBox="0 0 41 27" fill="none" xmlns="http://www.w3.org/2000/svg">
<path d="M8.1276 0.0981712C4.65078 0.586426 1.85981 2.89163 0.781476 6.17335C0.519822 6.96577 0.5 7.13386 0.5 8.58261C0.503964 10.4956 0.587218 10.9038 1.2691 12.3246C1.76069 13.3451 2.28797 14.0975 3.04518 14.8539C3.70724 15.5142 4.45652 16.0545 5.33663 16.4988C6.69247 17.1831 7.92938 17.4713 9.8006 17.5313C10.5419 17.5553 10.6648 17.5673 10.6807 17.6234C10.867 18.2477 10.7798 19.1882 10.4309 20.3968C10.094 21.5494 9.60634 22.722 8.7302 24.4709C8.3734 25.1873 8.05624 25.8397 8.02452 25.9197C7.97695 26.0598 7.97695 26.0718 8.04435 26.0718C8.21482 26.0718 8.96806 25.4995 9.99089 24.599C12.6709 22.2338 15.002 19.2402 16.5322 16.2066C17.4916 14.2976 18.114 12.4126 18.4035 10.5356C18.5224 9.75523 18.5343 8.07435 18.4233 7.402C18.1299 5.61706 17.4559 4.31238 16.116 2.95567C14.5659 1.38284 12.881 0.522392 10.645 0.1542C10.1812 0.0821629 8.52801 0.042141 8.1276 0.0981712Z" fill="#00D3C7"/>
<path d="M30.4236 0.0900974C30.3683 0.0981007 30.167 0.126112 29.9697 0.15012C29.1448 0.254162 28.1738 0.562281 27.3252 0.986446C26.3622 1.47063 25.6241 2.01885 24.8545 2.81116C23.5994 4.11967 22.8495 5.63226 22.5929 7.38894C22.289 9.50176 22.735 11.5666 23.8678 13.2952C24.8624 14.8078 25.9557 15.7922 27.5226 16.5725C28.8251 17.2248 29.9539 17.4769 31.8366 17.5369L32.7049 17.5649L32.7562 17.893C32.9614 19.2896 32.3496 21.2824 30.7117 24.5876C30.3367 25.3439 30.0289 25.9882 30.0289 26.0202C30.0289 26.1082 30.1118 26.0882 30.3801 25.9242C30.9248 25.6 32.0576 24.6156 33.2416 23.4352C36.9675 19.7217 39.6356 15.0199 40.3263 10.9503C40.4605 10.154 40.5 9.67383 40.5 8.84951C40.5 6.34053 39.7343 4.49981 37.9779 2.78715C36.4584 1.30657 34.4139 0.342196 32.2707 0.110106C31.9155 0.0700893 30.6525 0.0580845 30.4236 0.0900974Z" fill="#00D3C7"/>
</svg>
