<svg width="43" height="18" viewBox="0 0 43 18" fill="none" xmlns="http://www.w3.org/2000/svg">
<path fill-rule="evenodd" clip-rule="evenodd" d="M22.8779 2.50005L19.9316 3.13599V0.733541L22.8779 0.109375V2.50005ZM10.9042 1.47449L8.04004 2.08688L8.0283 11.52C8.0283 13.263 9.33124 14.5467 11.0685 14.5467C12.031 14.5467 12.7353 14.37 13.1227 14.158V11.7674C12.747 11.9204 10.8924 12.4622 10.8924 10.7192V6.53849H13.1227V4.03004H10.8924L10.9042 1.47449ZM3.96749 6.38563C3.34537 6.38563 2.96975 6.56228 2.96975 7.02157C2.96975 7.52305 3.6162 7.74364 4.41819 8.01731C5.72563 8.46346 7.44645 9.05068 7.45373 11.2259C7.45373 13.3339 5.77517 14.5469 3.33363 14.5469C2.32415 14.5469 1.22077 14.3467 0.12912 13.8756V11.0728C1.11512 11.6145 2.35937 12.0149 3.33363 12.0149C3.99097 12.0149 4.4605 11.8383 4.4605 11.2965C4.4605 10.741 3.75973 10.4872 2.91372 10.1806C1.6253 9.71381 0 9.12494 0 7.16289C0 5.07841 1.58465 3.83008 3.96749 3.83008C4.94176 3.83008 5.90429 3.98318 6.87856 4.37181V7.13934C5.98646 6.65649 4.85959 6.38563 3.96749 6.38563ZM16.7738 4.90295L16.586 4.03148H14.0506V14.3361H16.9851V7.35251C17.6777 6.44571 18.8515 6.61058 19.2154 6.74012V4.03148C18.8398 3.89016 17.4664 3.63107 16.7738 4.90295ZM19.9316 4.03032H22.8779V14.3349H19.9316V4.03032ZM42.2562 9.22382C42.2562 6.20898 40.8006 3.83008 38.0187 3.83008C35.225 3.83008 33.5348 6.20898 33.5348 9.20026C33.5348 12.7451 35.5302 14.5351 38.3943 14.5351C39.7912 14.5351 40.8476 14.2171 41.6458 13.7696V11.4143C40.8476 11.8147 39.932 12.062 38.77 12.062C37.6314 12.062 36.6219 11.6616 36.4928 10.2719H42.2327C42.2327 10.2071 42.2369 10.0599 42.2418 9.89019L42.2418 9.88988V9.88969C42.2484 9.65886 42.2562 9.38663 42.2562 9.22382ZM36.4568 8.10452C36.4568 6.77375 37.2668 6.22025 38.0063 6.22025C38.7223 6.22025 39.4853 6.77375 39.4853 8.10452H36.4568ZM26.7043 4.74866C27.1151 4.37181 27.8546 3.83008 29.005 3.83008C31.0591 3.83008 32.9959 5.6908 33.0077 9.10606C33.0077 12.8393 31.0943 14.5351 28.9932 14.5351C27.9603 14.5351 27.3381 14.0994 26.9156 13.7932L26.9038 17.126L23.9693 17.7502V4.01851H26.5517L26.7043 4.74866ZM26.9163 11.3904C27.198 11.6966 27.6088 11.9439 28.3014 11.9439C29.3813 11.9439 30.1091 10.7662 30.1091 9.18815C30.1091 7.6454 29.3696 6.44418 28.3014 6.44418C27.6323 6.44418 27.2097 6.67971 26.9045 7.02124L26.9163 11.3904Z" fill="#6461FC"/>
</svg>
