<svg width="41" height="14" viewBox="0 0 41 14" fill="none" xmlns="http://www.w3.org/2000/svg">
<path fill-rule="evenodd" clip-rule="evenodd" d="M10.4063 13.345H6.89261L4.25778 3.23517C4.13272 2.77012 3.86718 2.35898 3.47659 2.16521C2.5018 1.67826 1.42766 1.29072 0.255859 1.09526V0.706033H5.91611C6.69731 0.706033 7.28321 1.29072 7.38086 1.96976L8.74796 9.26229L12.2599 0.706033H15.6759L10.4063 13.345ZM17.6298 13.345H14.3114L17.0439 0.706033H20.3623L17.6298 13.345ZM24.6561 4.20667C24.7538 3.52595 25.3397 3.13672 26.0232 3.13672C27.0974 3.03899 28.2675 3.23445 29.244 3.71972L29.8299 0.998501C28.8534 0.609274 27.7792 0.413818 26.8044 0.413818C23.5837 0.413818 21.2401 2.1645 21.2401 4.59422C21.2401 6.44262 22.9002 7.41316 24.072 7.99784C25.3397 8.58084 25.8279 8.97007 25.7303 9.55307C25.7303 10.4276 24.7538 10.8168 23.779 10.8168C22.6072 10.8168 21.4354 10.5253 20.363 10.0383L19.7771 12.7612C20.9489 13.2465 22.2166 13.442 23.3884 13.442C26.9997 13.538 29.244 11.789 29.244 9.16384C29.244 5.85794 24.6561 5.66417 24.6561 4.20667ZM40.8574 13.345L38.2226 0.706033H35.3925C34.8066 0.706033 34.2207 1.09526 34.0254 1.67826L29.1463 13.345H32.5623L33.2442 11.4982H37.4414L37.832 13.345H40.8574ZM35.8775 4.10948L36.8522 8.87288H34.1198L35.8775 4.10948Z" fill="#172B85"/>
</svg>
